<ttFont>
          <CharString index="0">
            318 -3 rmoveto
            2 33 39 1 37 hhcurveto
            25 32 -2 -2 23 hvcurveto
            1 -13 callgsubr
            -18 -27 0 11 -10 -50 callsubr
            78 4 39 108 vvcurveto
            101 -79 51 -105 -76 -82 -27 -15 -16 vhcurveto
            -101 callsubr
            return
          </CharString>
          <CharString index="1">
            710 2 callsubr
            -69 -4 callgsubr
            -62 hlineto
            -19 -63 -91 callsubr
            -93 callgsubr
            26 callgsubr
            -66 callsubr
            -19 -74 5 1 -19 hvcurveto
            -2 -4 3 -38 -95 callsubr
            return
          </CharString>
          <CharString index="2">
            290 -34 callsubr
            2 9 61 callgsubr
            -3 12 -2 29 5 callgsubr
            72 65 callsubr
            13 22 vvcurveto
            18 2 54 5 13 -88 callsubr
            -3 7 -14 2 -14 rrcurveto
            2 -28 1 -16 -56 vvcurveto
            -83 89 callsubr
            -15 -2 -22 -62 callgsubr
            return
          </CharString>
          <CharString index="3">
            -105 callgsubr
            endchar
          </CharString>
          <CharString index="4">
            40 57 21 14 60 9 -42 callgsubr
            -5 -37 -23 -1 -32 hhcurveto
            -88 hlineto
            -33 -20 0 6 -39 hvcurveto
            -4 59 callsubr
            -19 callgsubr
            30 -7 41 5 -33 vvcurveto
            -11 -4 -14 -6 -10 vhcurveto
            -112 -173 -119 189 rlineto
            -4 7 -4 8 8 vvcurveto
            7 3 6 7 5 vhcurveto
            12 8 20 3 27 1 -42 callgsubr
            -4 -37 -44 -4 -31 hhcurveto
            -82 hlineto
            -32 -24 4 4 -33 hvcurveto
            -5 -27 callsubr
            9 -8 14 -16 9 -14 return
          </CharString>
          <CharString index="5">
            -57 callsubr
            -179 106 -154 209 -15 callsubr
            180 -117 156 -205 hvcurveto
            40 callgsubr
            -119 -84 98 159 -77 callsubr
            return
          </CharString>
          <CharString index="6">
            -3 -6 9 -94 91 callgsubr
            4 3 rlineto
            53 5 68 11 44 hhcurveto
            37 29 -11 -26 12 hvcurveto
            7 -16 4 -21 1 -41 rrcurveto
            -14 hlineto
            -25 -131 -4 -45 -69 hvcurveto
            -37 -24 -25 -39 -52 vvcurveto
            return
          </CharString>
          <CharString index="7">
            -74 -91 callsubr
            -49 callsubr
            20 -41 callgsubr
            10 -8 13 -13 2 -36 rrcurveto
            2 -31 0 -29 -93 vvcurveto
            return
          </CharString>
          <CharString index="8">
            hstem
            36 112 vstem
            -103 callgsubr
            return
          </CharString>
          <CharString index="9">
            -70 50 -62 95 63 54 39 39 31 vhcurveto
            1 -3 -4 -19 -1 -26 -4 -12 rlinecurve
            108 vmoveto
            -19 -16 -51 -28 -60 callsubr
            -85 -1 -13 -6 -9 -4 -7 rlinecurve
            return
          </CharString>
          <CharString index="10">
            -63 -2 rrcurveto
            34 48 callgsubr
            2 88 callsubr
            9 rlineto
            57 hlineto
            150 4 -1 -52 4 hvcurveto
            -19 callgsubr
            45 hlineto
            5 129 -6 10 rlineto
            -13 -128 -4 -37 hhcurveto
            return
          </CharString>
          <CharString index="11">
            164 654 rmoveto
            -29 -100 callsubr
            -163 vlineto
            -79 -1 -25 -1 -20 -47 callgsubr
            -20 -74 callgsubr
            return
          </CharString>
          <CharString index="12">
            -49 callsubr
            20 -41 callgsubr
            10 -8 13 -13 2 -36 rrcurveto
            2 -31 0 -29 -93 vvcurveto
            -172 vlineto
            -131 62 -102 200 164 89 102 131 vhcurveto
            172 vlineto
            93 1 29 1 31 vhcurveto
            2 -61 callsubr
            rlineto
            return
          </CharString>
          <CharString index="13">
            rmoveto
            26 50 -3 7 -181 101 rlineto
            -37 -2 -18 -28 -35 vvcurveto
            -5 1 -7 3 -7 vhcurveto
            201 -77 rlineto
            endchar
          </CharString>
          <CharString index="14">
            hstem
            82 callsubr
            409 -98 callgsubr
            return
          </CharString>
          <CharString index="15">
            -20 hstemhm
            272 110 hintmask 10110000
            -104 callgsubr
            hintmask 01110000
            93 callgsubr
            hintmask 10110000
            11 callsubr
            return
          </CharString>
          <CharString index="16">
            -86 callgsubr
            -38 return
          </CharString>
          <CharString index="17">
            vhcurveto
            -50 -121 -43 121 rlineto
            -9 24 -55 136 31 vvcurveto
            24 21 12 -82 callgsubr
            35 -58 51 -134 13 -30 80 -183 rcurveline
            -28 -75 -12 -32 -37 -39 -38 -19 rlinecurve
            -9 -17 -20 -3 -16 hhcurveto
            -14 hlineto
            -4 -5 3 -51 7 -2 rlineto
            26 12 0 2 11 hvcurveto
            77 11 77 50 32 81 rrcurveto
            return
          </CharString>
          <CharString index="18">
            -79 callgsubr
            -81 callgsubr
            return
          </CharString>
          <CharString index="19">
            vhcurveto
            -6 19 -35 -5 rlineto
            -4 -26 -38 -78 callgsubr
            return
          </CharString>
          <CharString index="20">
            hstem
            5 callsubr
            vstem
            -96 callgsubr
            return
          </CharString>
          <CharString index="21">
            559 -69 callsubr
            30 callsubr
            -82 callsubr
            return
          </CharString>
          <CharString index="22">
            35 -18 28 -37 2 vhcurveto
            -181 -101 -3 -7 26 -50 rlineto
            endchar
          </CharString>
          <CharString index="23">
            -64 -17 -8 -7 -152 hhcurveto
            -45 hlineto
            -14 -5 5 14 -1 hvcurveto
            -3 42 -2 14 78 vvcurveto
            82 11 vlineto
            61 return
          </CharString>
          <CharString index="24">
            53 -86 callsubr
            36 -581 -79 callgsubr
            hintmask 01101110
            -81 callgsubr
            return
          </CharString>
          <CharString index="25">
            12 37 -1 -1 12 hvcurveto
            -3 28 rlineto
            -12 -18 4 5 -7 hvcurveto
            -7 4 -7 8 -1 17 rrcurveto
            -2 24 0 9 57 vvcurveto
            55 vlineto
            65 0 45 4 42 vhcurveto
            -14 5 rlineto
            -4 hlineto
            -39 -28 -40 -16 -46 -17 -1 -4 rcurveline
            return
          </CharString>
          <CharString index="26">
            23 callsubr
            205 -20 -87 callsubr
            return
          </CharString>
          <CharString index="27">
            -2 27 rlineto
            -49 -1 20 64 hvcurveto
            38 hlineto
            8 52 rlineto
            -46 hlineto
            158 4 20 20 vvcurveto
            -7 5 -83 -8 -154 -219 6 -25 rlineto
            163 187 rmoveto
            1 -21 1 -37 -80 vvcurveto
            -103 hlineto
            endchar
          </CharString>
          <CharString index="28">
            rmoveto
            52 45 -32 -40 -11 -8 -12 -17 hvcurveto
            -46 -46 -3 -46 hhcurveto
            -50 hlineto
            52 11 40 46 65 hhcurveto
            return
          </CharString>
          <CharString index="29">
            23 3 6 5 rcurveline
            34 vlineto
            -9 callsubr
            -3 -25 -22 -3 -22 hhcurveto
            -81 hlineto
            -20 -23 1 5 -22 callgsubr
            return
          </CharString>
          <CharString index="30">
            145 69 108 129 131 80 -110 -144 -140 -75 -116 -131 hvcurveto
            return
          </CharString>
          <CharString index="31">
            rmoveto
            201 77 rlineto
            3 7 1 7 5 vvcurveto
            return
          </CharString>
          <CharString index="32">
            -84 callsubr
            57 0 -14 10 hvcurveto
            6 -8 4 -89 callgsubr
            -5 -8 -6 -6 vhcurveto
            -16 -16 -59 3 -97 callsubr
            -204 hlineto
            return
          </CharString>
          <CharString index="33">
            1 19 74 -39 callgsubr
            return
          </CharString>
          <CharString index="34">
            -50 -26 14 -67 hhcurveto
            -57 -22 -40 -36 -12 hvcurveto
            13 -48 rlineto
            16 13 9 9 33 hhcurveto
            return
          </CharString>
          <CharString index="35">
            hlineto
            -4 -3 rlineto
            -34 vlineto
            -19 callgsubr
            return
          </CharString>
          <CharString index="36">
            vhcurveto
            -6 19 -35 -5 rlineto
            -4 -34 -59 -45 callgsubr
            return
          </CharString>
          <CharString index="37">
            -29 16 -19 -21 vvcurveto
            -14 -8 -46 -15 -33 vhcurveto
            2 -14 16 -11 rlineto
            return
          </CharString>
          <CharString index="38">
            rmoveto
            66 17 rlineto
            2 -18 0 -7 -45 vvcurveto
            -67 vlineto
            -46 0 -12 -2 -18 vhcurveto
            -2 -16 -6 -8 -6 -5 rrcurveto
            -6 -8 -19 -3 -12 hhcurveto
            -3 -28 rlineto
            return
          </CharString>
          <CharString index="39">
            21 callgsubr
            -13 2 -36 rrcurveto
            2 -27 1 -25 -81 vvcurveto
            -203 vlineto
            -85 0 -143 -9 -32 vhcurveto
            -24 -7 -13 -22 -24 -6 -28 -1 -6 hhcurveto
            -4 -5 2 -52 8 -3 rlineto
            13 19 1 2 14 hvcurveto
            96 15 54 67 1 147 rrcurveto
            30 1 30 95 vvcurveto
            184 vlineto
            84 0 15 3 33 36 callgsubr
            endchar
          </CharString>
          <CharString index="40">
            vhcurveto
            62 callsubr
            12 9 vhcurveto
            9 13 20 1 21 hhcurveto
            4 4 return
          </CharString>
          <CharString index="41">
            -53 callsubr
            -59 hlineto
            return
          </CharString>
          <CharString index="42">
            vlineto
            52 2 11 20 vvcurveto
            16 2 38 5 11 -88 callsubr
            -4 7 79 callsubr
            return
          </CharString>
          <CharString index="43">
            5 1 -19 hvcurveto
            return
          </CharString>
          <CharString index="44">
            hvcurveto
            -61 -164 -21 -57 -20 -50 -11 -30 rlinecurve
            -15 32 -12 52 -23 53 -61 164 rcurveline
            -30 83 -24 -24 callgsubr
            -75 -4 callgsubr
            -74 hlineto
            hintmask 10100000
            -19 -61 7 callsubr
            34 33 0 -67 29 hvcurveto
            9 -20 10 -25 29 -79 156 -434 rcurveline
            return
          </CharString>
          <CharString index="45">
            vlineto
            -55 callgsubr
            return
          </CharString>
          <CharString index="46">
            62 callsubr
            11 9 rrcurveto
            9 12 23 1 19 hhcurveto
            4 4 3 38 return
          </CharString>
          <CharString index="47">
            -45 hhcurveto
            -30 -20 23 36 85 87 17 82 hvcurveto
            9 hlineto
            -5 return
          </CharString>
          <CharString index="48">
            73 70 19 43 69 hvcurveto
            24 44 -12 22 rlineto
            -36 -66 -83 -10 -57 hhcurveto
            -132 -98 90 167 87 22 81 50 45 hvcurveto
            31 34 44 14 60 hhcurveto
            75 83 -19 -60 9 hvcurveto
            return
          </CharString>
          <CharString index="49">
            rmoveto
            160 hlineto
            73 callgsubr
            hintmask 01111000
            -3 -27 79 callgsubr
            42 callsubr
            hintmask 01111000
            73 callsubr
            hintmask 10111000
            -80 callsubr
          </CharString>
          <CharString index="50">
            369 41 callsubr
            -203 -119 -153 -190 return
          </CharString>
          <CharString index="51">
            -20 26 callsubr
            111 return
          </CharString>
          <CharString index="52">
            211 375 rmoveto
            26 0 29 11 15 vhcurveto
            -6 19 -35 -5 rlineto
            -4 -26 -39 -78 callgsubr
            -4 7 79 callsubr
            3 -24 0 -16 -50 vvcurveto
            -103 vlineto
            -42 -1 -14 -2 -19 49 callgsubr
            -9 -13 -9 65 callgsubr
            return
          </CharString>
          <CharString index="53">
            rmoveto
            -66 callgsubr
            hintmask 11011000
            -70 callsubr
            174 hmoveto
            -66 callgsubr
            hintmask 11100100
            -70 callsubr
            endchar
          </CharString>
          <CharString index="54">
            -1 -19 -74 -4 callgsubr
            return
          </CharString>
          <CharString index="55">
            rmoveto
            -168 -135 -135 -165 -165 135 -137 163 173 136 133 169 165 -136 135 -168 hvcurveto
            -59 vmoveto
            131 108 -108 -133 -136 -107 -107 -136 -128 -106 109 134 133 107 108 131 hvcurveto
            endchar
          </CharString>
          <CharString index="56">
            -2 33 -5 5 rlineto
            return
          </CharString>
          <CharString index="57">
            106 callgsubr
            -3 11 -3 30 rrcurveto
            return
          </CharString>
          <CharString index="58">
            -41 callsubr
            21 return
          </CharString>
          <CharString index="59">
            83 callgsubr
            -10 -11 -12 9 callgsubr
            -2 -38 -7 callsubr
            return
          </CharString>
          <CharString index="60">
            -10 -11 -24 -1 10 callsubr
            return
          </CharString>
          <CharString index="61">
            -18 32 callgsubr
            23 -21 317 68 195 78 return
          </CharString>
          <CharString index="62">
            -349 17 callgsubr
            hintmask 11100000
            83 -117 -52 callgsubr
          </CharString>
          <CharString index="63">
            -76 -11 79 -47 -21 229 246 -75 75 return
          </CharString>
          <CharString index="64">
            3 3 -22 25 callsubr
            -34 vlineto
            6 -5 return
          </CharString>
          <CharString index="65">
            -33 callgsubr
            54 hlineto
            return
          </CharString>
          <CharString index="66">
            5 -4 rlineto
            return
          </CharString>
          <CharString index="67">
            hhcurveto
            -92 callgsubr
            8 38 rlineto
            -15 callgsubr
            return
          </CharString>
          <CharString index="68">
            20 rrcurveto
            67 32 29 0 34 hhcurveto
            -36 callgsubr
            -61 101 callgsubr
            hintmask 10100000
            -19 -68 4 2 -19 hvcurveto
            -2 -4 2 -38 rlineto
            hintmask 11000000
            -41 callsubr
            38 23 -4 -38 -31 return
          </CharString>
          <CharString index="69">
            rmoveto
            38 hlineto
            40 3 22 27 50 hhcurveto
            29 23 -20 -28 -60 -130 -112 -50 -58 hvcurveto
            -22 vlineto
            5 -16 rlineto
            return
          </CharString>
          <CharString index="70">
            rmoveto
            -105 callgsubr
            return
          </CharString>
          <CharString index="71">
            -35 -5 rlineto
            -4 -26 -39 53 callsubr
            return
          </CharString>
          <CharString index="72">
            rmoveto
            -12 48 rlineto
            -24 -18 -25 -2 -22 hhcurveto
            return
          </CharString>
          <CharString index="73">
            hmoveto
            -11 callsubr
            return
          </CharString>
          <CharString index="74">
            -11 -10 107 callgsubr
            return
          </CharString>
          <CharString index="75">
            57 callsubr
            276 421 -54 callgsubr
            return
          </CharString>
          <CharString index="76">
            -2 -4 3 return
          </CharString>
          <CharString index="77">
            -35 callsubr
            hintmask 11001011
            -73 callsubr
            hintmask 11100111
            -50 callgsubr
          </CharString>
          <CharString index="78">
            -17 callsubr
            343 -20 return
          </CharString>
          <CharString index="79">
            -6 callsubr
            70 callsubr
            return
          </CharString>
          <CharString index="80">
            59 callsubr
            8 -4 27 -3 20 -4 15 -12 rlinecurve
            return
          </CharString>
          <CharString index="81">
            19 64 1 callgsubr
            return
          </CharString>
          <CharString index="82">
            5 11 vhcurveto
            -6 19 -35 -5 rlineto
            -4 return
          </CharString>
          <CharString index="83">
            rmoveto
            -41 hlineto
            -6 -44 rlineto
            -38 26 35 -24 56 hhcurveto
            85 53 62 56 38 -18 36 -47 11 hvcurveto
            return
          </CharString>
          <CharString index="84">
            44 callgsubr
            hintmask 10100000
            26 callgsubr
            return
          </CharString>
          <CharString index="85">
            2 -4 rlineto
            return
          </CharString>
          <CharString index="86">
            hlineto
            159 94 -104 -144 -139 -88 -111 -160 hvcurveto
            return
          </CharString>
          <CharString index="87">
            hvcurveto
            2 14 callgsubr
            return
          </CharString>
          <CharString index="88">
            126 547 rmoveto
            2 -33 0 -94 -26 vvcurveto
            -163 vlineto
            15 callsubr
            return
          </CharString>
          <CharString index="89">
            -19 -74 -91 callsubr
            rlineto
            return
          </CharString>
          <CharString index="90">
            106 33 callgsubr
            255 73 return
          </CharString>
          <CharString index="91">
            rmoveto
            64 -177 rlineto
            -131 hlineto
            return
          </CharString>
          <CharString index="92">
            216 113 164 176 return
          </CharString>
          <CharString index="93">
            11 callgsubr
            73 hlineto
            return
          </CharString>
          <CharString index="94">
            28 -2 11 58 vvcurveto
            return
          </CharString>
          <CharString index="95">
            -56 callsubr
            219 51 return
          </CharString>
          <CharString index="96">
            38 callgsubr
            -21 return
          </CharString>
          <CharString index="97">
            -53 callgsubr
            -122 79 46 callsubr
            return
          </CharString>
          <CharString index="98">
            -4 4 rlineto
            return
          </CharString>
          <CharString index="99">
            rmoveto
            -34 -11 4 35 -4 hvcurveto
            -3 23 0 41 80 vvcurveto
            return
          </CharString>
          <CharString index="100">
            1 -4 rlineto
            return
          </CharString>
          <CharString index="101">
            vlineto
            96 0 19 return
          </CharString>
          <CharString index="102">
            68 69 29 21 29 hvcurveto
            15 28 29 callgsubr
            83 90 85 44 81 97 54 callsubr
            return
          </CharString>
          <CharString index="103">
            23 194 -4 11 hhcurveto
            5 10 16 149 rlineto
            -42 hlineto
            -3 -4 rlineto
            -72 -23 -7 -5 -138 hhcurveto
            -31 hlineto
            -4 4 48 96 139 return
          </CharString>
          <CharString index="104">
            30 callgsubr
            -14 0 callgsubr
            -10 12 return
          </CharString>
          <CharString index="105">
            3 -4 rlineto
            49 hlineto
            13 111 -3 9 rlineto
            35 return
          </CharString>
          <CharString index="106">
            29 -16 19 21 vvcurveto
            14 8 46 15 33 vhcurveto
            -2 14 -16 11 rlineto
            return
          </CharString>
          <CharString index="107">
            124 -108 108 return
          </CharString>
          <CharString index="108">
            27 74 -2 22 -37 callgsubr
            -31 -70 -4 -33 hhcurveto
            -97 hlineto
            return
          </CharString>
          <CharString index="109">
            48 callsubr
            -1 -19 return
          </CharString>
          <CharString index="110">
            13 hvcurveto
            4 return
          </CharString>
          <CharString index="111">
            rmoveto
            83 37 83 89 95 44 -75 -34 5 vhcurveto
            -111 vlineto
            -35 -3 -53 -70 -90 hhcurveto
            -86 -38 79 80 hvcurveto
            endchar
          </CharString>
          <CharString index="112">
            35 119 253 121 return
          </CharString>
          <CharString index="113">
            -5 4 rlineto
            return
          </CharString>
          <CharString index="114">
            4 2 20 callsubr
            return
          </CharString>
          <CharString index="115">
            40 callsubr
            328 60 callgsubr
            return
          </CharString>
          <CharString index="116">
            99 -85 24 callgsubr
            return
          </CharString>
          <CharString index="117">
            -20 hhcurveto
            -3 34 callgsubr
            return
          </CharString>
          <CharString index="118">
            19 74 39 callsubr
            return
          </CharString>
          <CharString index="119">
            -2 34 -9 callsubr
            return
          </CharString>
          <CharString index="120">
            -79 callsubr
            endchar
          </CharString>
          <CharString index="121">
            -79 -1 -25 return
          </CharString>
          <CharString index="122">
            -55 callgsubr
            -4 -34 -10 -16 106 callsubr
            -8 -12 -25 -1 -16 hhcurveto
            -5 105 callgsubr
            rlineto
            return
          </CharString>
          <CharString index="123">
            19 87 -3 9 hhcurveto
            5 5 9 110 rlineto
            -29 hlineto
            return
          </CharString>
          <CharString index="124">
            80 4 -56 callsubr
            207 109 hintmask 10110110
            327 -2 rmoveto
            -3 38 -9 callsubr
            return
          </CharString>
          <CharString index="125">
            -4 105 callgsubr
            rlineto
            return
          </CharString>
          <CharString index="126">
            hlineto
            13 59 19 73 21 57 56 callgsubr
            -2 -4 -6 -57 -10 -73 -13 -59 rlinecurve
            return
          </CharString>
          <CharString index="127">
            -19 hvcurveto
            -1 -4 2 -38 rlineto
            hintmask 11000000
            -41 callsubr
            return
          </CharString>
          <CharString index="128">
            -21 -42 10 vhcurveto
            8 -27 0 -40 -30 vvcurveto
            -34 -1 return
          </CharString>
          <CharString index="129" raw="1">
            840a1370 8c9e0b  
          </CharString>
          <CharString index="130">
            -30 -11 69 345 72 return
          </CharString>
          <CharString index="131">
            17 66 callgsubr
            return
          </CharString>
          <CharString index="132">
            hvcurveto
            -9 callgsubr
            return
          </CharString>
          <CharString index="133">
            hstemhm
            128 return
          </CharString>
          <CharString index="134">
            -125 82 callgsubr
            77 280 8 callsubr
            endchar
          </CharString>
          <CharString index="135">
            vhcurveto
            -2 3 callgsubr
            -1 -4 rlineto
            12 return
          </CharString>
          <CharString index="136">
            19 69 -5 -1 -67 callgsubr
            rlineto
            return
          </CharString>
          <CharString index="137">
            1 11 39 1 12 hhcurveto
            64 hlineto
            return
          </CharString>
          <CharString index="138">
            -21 235 -20 hstemhm
            return
          </CharString>
          <CharString index="139">
            rmoveto
            116 hlineto
            return
          </CharString>
          <CharString index="140">
            -31 callsubr
            -38 return
          </CharString>
          <CharString index="141">
            -10 -9 rrcurveto
            return
          </CharString>
          <CharString index="142">
            -60 -101 -158 hvcurveto
            -31 vlineto
            -74 -15 -9 callgsubr
            -48 80 callsubr
            74 return
          </CharString>
          <CharString index="143">
            38 205 -5 -1 21 86 callgsubr
            -6 -6 rlineto
            return
          </CharString>
          <CharString index="144">
            -19 -55 -91 callsubr
            return
          </CharString>
          <CharString index="145">
            -226 25 callgsubr
            return
          </CharString>
          <CharString index="146">
            -5 15 callgsubr
            return
          </CharString>
          <CharString index="147">
            rmoveto
            -15 -82 rlineto
            return
          </CharString>
          <CharString index="148">
            665 rmoveto
            return
          </CharString>
          <CharString index="149">
            10 40 2 10 hhcurveto
            63 hlineto
            return
          </CharString>
          <CharString index="150">
            526 31 callsubr
            return
          </CharString>
          <CharString index="151">
            188 0 40 -28 -21 623 40 return
          </CharString>
          <CharString index="152">
            -59 38 -51 43 -61 -43 -60 -39 -51 return
          </CharString>
          <CharString index="153">
            -121 169 return
          </CharString>
          <CharString index="154">
            -9 rrcurveto
            -10 -11 return
          </CharString>
          <CharString index="155">
            660 rmoveto
            return
          </CharString>
          <CharString index="156">
            130 hstemhm
            return
          </CharString>
          <CharString index="157">
            43 callsubr
            57 108 -108 124 return
          </CharString>
          <CharString index="158">
            113 0 22 3 43 vhcurveto
            1 return
          </CharString>
          <CharString index="159">
            1 19 66 13 callgsubr
            64 hlineto
            return
          </CharString>
          <CharString index="160">
            59 callgsubr
            -4 -3 rlineto
            return
          </CharString>
          <CharString index="161">
            43 81 -12 -62 hvcurveto
            4 -3 rlineto
            return
          </CharString>
          <CharString index="162">
            96 1 19 4 76 vhcurveto
            return
          </CharString>
          <CharString index="163">
            25 -6 -21 111 52 return
          </CharString>
          <CharString index="164">
            81 -21 361 -20 hstem
            return
          </CharString>
          <CharString index="165">
            -11 89 536 40 return
          </CharString>
          <CharString index="166">
            -4 rlineto
            -38 vlineto
            return
          </CharString>
          <CharString index="167">
            76 158 76 return
          </CharString>
          <CharString index="168">
            22 0 -17 return
          </CharString>
          <CharString index="169">
            37 12 11 return
          </CharString>
          <CharString index="170">
            1 callgsubr
            hintmask 10111100
            -28 callgsubr
            return
          </CharString>
          <CharString index="171">
            1 58 233 58 -39 58 233 58 13 -20 hstemhm
            return
          </CharString>
          <CharString index="172">
            vlineto
            58 2 return
          </CharString>
          <CharString index="173">
            116 hlineto
            3 4 6 60 11 72 14 71 rlinecurve
            return
          </CharString>
          <CharString index="174">
            -20 hstem
            181 217 vstem
            return
          </CharString>
          <CharString index="175">
            556 -21 138 -20 hstem
            return
          </CharString>
          <CharString index="176">
            hstemhm
            27 123 return
          </CharString>
          <CharString index="177">
            3 37 vhcurveto
            return
          </CharString>
          <CharString index="178">
            0 6 -111 hvcurveto
            -3 -6 -8 -135 rlineto
            return
          </CharString>
          <CharString index="179">
            -303 -85 -21 418 30 418 -20 hstem
            return
          </CharString>
          <CharString index="180">
            10 35 -2 10 hhcurveto
            return
          </CharString>
          <CharString index="181">
            11 -11 hvcurveto
            return
          </CharString>
          <CharString index="182">
            10 -21 625 40 103 callsubr
            hintmask 11000000
            return
          </CharString>
          <CharString index="183">
            hlineto
            -9 callgsubr
            -33 vlineto
            -19 callgsubr
            21 return
          </CharString>
          <CharString index="184">
            49 129 41 104 47 return
          </CharString>
          <CharString index="185">
            2 -24 1 -6 -50 vvcurveto
            return
          </CharString>
          <CharString index="186">
            -14 2 -13 rrcurveto
            return
          </CharString>
          <CharString index="187">
            vlineto
            4 -5 rlineto
            return
          </CharString>
          <CharString index="188">
            109 111 return
          </CharString>
          <CharString index="189">
            47 118 return
          </CharString>
          <CharString index="190">
            -239 -21 return
          </CharString>
          <CharString index="191">
            -12 hvcurveto
            -10 return
          </CharString>
          <CharString index="192">
            2 -27 1 -17 -56 vvcurveto
            -73 vlineto
            -48 return
          </CharString>
          <CharString index="193">
            3 34 40 3 29 hhcurveto
            160 hlineto
            return
          </CharString>
          <CharString index="194">
            -13 callsubr
            92 65 callsubr
            return
          </CharString>
          <CharString index="195">
            37 vhcurveto
            1 return
          </CharString>
          <CharString index="196">
            vlineto
            -48 -1 return
          </CharString>
          <CharString index="197">
            117 vstem
            return
          </CharString>
          <CharString index="198">
            hvcurveto
            -10 9 return
          </CharString>
          <CharString index="199">
            2 33 81 2 28 hhcurveto
            32 hlineto
            return
          </CharString>
          <CharString index="200">
            1 -4 rcurveline
            116 hlineto
            2 4 return
          </CharString>
          <CharString index="201">
            -97 -4 78 -53 -21 388 73 return
          </CharString>
          <CharString index="202">
            -130 -36 -21 759 -20 hstem
            return
          </CharString>
          <CharString index="203">
            hstemhm
            81 callsubr
            307 97 return
          </CharString>
          <CharString index="204">
            11 callsubr
            endchar
          </CharString>
          <CharString index="205" raw="1">
            8705139f 0b  
          </CharString>
          <CharString index="206">
            -38 rlineto
            hintmask 01111000
            return
          </CharString>
          <CharString index="207">
            -213 58 59 59 return
          </CharString>
          <CharString index="208">
            -20 hhcurveto
            -5 -4 return
          </CharString>
          <CharString index="209">
            265 -20 hstemhm
            return
          </CharString>
          <CharString index="210">
            6 -20 hstemhm
            return
          </CharString>
          <CharString index="211">
            -11 hvcurveto
            -10 return
          </CharString>
          <CharString index="212">
            -3 4 rlineto
            return
          </CharString>
          <CharString index="213">
            -11 -8 rrcurveto
            return
          </CharString>
        <CharString name=".notdef">
          -327 156 176 hstem
          45 176 vstem
          45 20 callgsubr
        </CharString>
        <CharString name="A">
          -29 callsubr
          hstemhm
          hintmask 10110000
          -44 callgsubr
          hintmask 01110000
          -7 callsubr
          hintmask 10110000
          -16 callgsubr
          hintmask 01110000
          29 callsubr
          hintmask 10110000
          6 callsubr
          -35 -11 10 32 17 12 44 24 58 hvcurveto
          20 48 rlineto
          175 hlineto
          21 -48 rlineto
          26 -58 5 -40 -21 vvcurveto
          -38 -18 -4 -35 vhcurveto
          18 callsubr
          hintmask 01110000
          -22 callsubr
          hintmask 10110000
          -14 callsubr
          hintmask 01110000
          -43 callgsubr
          hintmask 10110000
          -48 callgsubr
          endchar
        </CharString>
        <CharString name="AE">
          349 0 40 -40 78 -63 -21 23 -21 23 -21 300 68 -53 68 195 78 103 callsubr
          606 219 hintmask 1000010011000000
          339 48 callsubr
          33 callsubr
          -19 callgsubr
          39 -2 0 -10 -7 vvcurveto
          -20 -15 -21 -20 -34 vhcurveto
          -93 -160 -139 -234 -14 -19 -14 -21 -15 -18 -13 -9 -18 -13 -37 -4 -24 -2 -5 -4 rcurveline
          hintmask 0000110101000000
          -2 -38 rlineto
          hintmask 0010010101000000
          -4 vlineto
          hintmask 1000010101000000
          1 19 62 -39 callgsubr
          69 hlineto
          hintmask 0010010101000000
          19 85 39 callsubr
          hintmask 0000110101000000
          3 14 callgsubr
          rlineto
          hintmask 1000010101000000
          6 callsubr
          -29 1 -29 1 30 vvcurveto
          26 8 16 115 184 vhcurveto
          169 -105 hlineto
          -25 -1 -42 -2 -21 vhcurveto
          -2 -25 -11 -21 -11 -9 rrcurveto
          -7 -10 -15 -3 -28 hhcurveto
          -5 -4 -3 -35 rlineto
          hintmask 0000110101000000
          2 -3 rlineto
          hintmask 1000010101000000
          34 45 2 33 hhcurveto
          202 hlineto
          hintmask 0001010101000000
          -69 callgsubr
          hintmask 0100001101000000
          -75 callsubr
          hintmask 1000010011000000
          -54 -78 4 2 -20 hvcurveto
          156 -294 rmoveto
          -134 hlineto
          hintmask 1000010101000000
          132 210 rlineto
          4 hlineto
          endchar
        </CharString>
        <CharString name="Aacute">
          -29 callsubr
          205 -20 hstemhm
          hintmask 10111000
          -44 callgsubr
          hintmask 01111000
          1 -4 79 callgsubr
          -16 callgsubr
          hintmask 01111000
          29 callsubr
          hintmask 10111000
          6 callsubr
          -35 -11 10 32 17 12 44 24 58 hvcurveto
          20 48 rlineto
          175 hlineto
          21 -48 rlineto
          26 -58 5 -40 -21 vvcurveto
          -38 -18 -4 -35 vhcurveto
          -4 -4 -3 99 callsubr
          2 -4 79 callgsubr
          -14 callsubr
          hintmask 01111000
          -43 callgsubr
          hintmask 10111000
          -48 callgsubr
          -16 367 -99 callgsubr
        </CharString>
        <CharString name="Acircumflex">
          -29 callsubr
          205 -20 hstemhm
          hintmask 10111000
          -44 callgsubr
          hintmask 01111000
          1 -4 79 callgsubr
          -16 callgsubr
          hintmask 01111000
          29 callsubr
          hintmask 10111000
          6 callsubr
          -35 -11 10 32 17 12 44 24 58 hvcurveto
          20 48 rlineto
          175 hlineto
          21 -48 rlineto
          26 -58 5 -40 -21 vvcurveto
          -38 -18 -4 -35 vhcurveto
          -4 -4 -3 99 callsubr
          2 -4 79 callgsubr
          -14 callsubr
          hintmask 01111000
          -43 callgsubr
          hintmask 10111000
          -48 callgsubr
          65 528 -95 callgsubr
        </CharString>
        <CharString name="Adieresis">
          -29 callsubr
          74 49 callsubr
          192 12 callgsubr
          hintmask 10111110
          -44 callgsubr
          hintmask 01111110
          -7 callsubr
          hintmask 10111110
          -16 callgsubr
          hintmask 01111110
          29 callsubr
          hintmask 10111110
          6 callsubr
          -35 -11 10 32 17 12 44 24 58 hvcurveto
          20 48 rlineto
          175 hlineto
          21 -48 rlineto
          26 -58 5 -40 -21 vvcurveto
          -38 -18 -4 -35 vhcurveto
          18 callsubr
          hintmask 01111110
          -22 callsubr
          hintmask 10111110
          -14 callsubr
          hintmask 01111110
          -43 callgsubr
          hintmask 10111110
          -48 callgsubr
          -78 461 rmoveto
          -35 29 -29 35 33 33 29 35 -101 callgsubr
        </CharString>
        <CharString name="Agrave">
          -29 callsubr
          205 -20 hstemhm
          hintmask 10111000
          -44 callgsubr
          hintmask 01111000
          1 -4 79 callgsubr
          -16 callgsubr
          hintmask 01111000
          29 callsubr
          hintmask 10111000
          6 callsubr
          -35 -11 10 32 17 12 44 24 58 hvcurveto
          20 48 rlineto
          175 hlineto
          21 -48 rlineto
          26 -58 5 -40 -21 vvcurveto
          -38 -18 -4 -35 vhcurveto
          -4 -4 -3 99 callsubr
          2 -4 79 callgsubr
          -14 callsubr
          hintmask 01111000
          -43 callgsubr
          hintmask 10111000
          -48 callgsubr
          156 370 -94 callsubr
        </CharString>
        <CharString name="Aring">
          -17 callsubr
          429 44 hstemhm
          304 69 hintmask 10111000
          339 795 rmoveto
          -58 -34 -41 -42 -31 19 -33 38 -13 hvcurveto
          -76 callgsubr
          hintmask 01111000
          1 -4 79 callgsubr
          -16 callgsubr
          hintmask 01111000
          29 callsubr
          hintmask 10111000
          6 callsubr
          -35 -11 10 32 17 12 44 24 58 hvcurveto
          20 48 rlineto
          175 hlineto
          21 -48 rlineto
          26 -58 5 -40 -21 vvcurveto
          -38 -18 -4 -35 vhcurveto
          -4 -4 -3 99 callsubr
          2 -4 79 callgsubr
          -14 callsubr
          hintmask 01111000
          -43 callgsubr
          hintmask 10111000
          -58 callgsubr
          -164 433 rcurveline
          24 15 13 25 26 vvcurveto
          42 -34 43 -58 vhcurveto
          -2 -296 -16 callsubr
          70 352 -12 callgsubr
        </CharString>
        <CharString name="Atilde">
          -29 callsubr
          79 9 callsubr
          hintmask 10111001
          -44 callgsubr
          hintmask 01111001
          -7 callsubr
          hintmask 10111001
          -16 callgsubr
          hintmask 01111001
          29 callsubr
          hintmask 10111001
          6 callsubr
          -35 -11 10 32 17 12 44 24 58 hvcurveto
          20 48 rlineto
          175 hlineto
          21 -48 rlineto
          26 -58 5 -40 -21 vvcurveto
          -38 -18 -4 -35 vhcurveto
          18 callsubr
          hintmask 01111001
          -22 callsubr
          hintmask 10111001
          -14 callsubr
          hintmask 01111001
          -43 callgsubr
          hintmask 10110101
          -48 callgsubr
          225 479 -35 callsubr
          hintmask 10110010
          -73 callsubr
          hintmask 10111001
          -50 callgsubr
        </CharString>
        <CharString name="B">
          22 32 callgsubr
          308 67 207 80 4 -56 callsubr
          170 102 -48 48 -48 109 hintmask 1011010010000000
          327 hmoveto
          143 102 56 132 98 -63 56 -109 17 hvcurveto
          hintmask 1011010100000000
          56 23 55 42 80 vvcurveto
          91 -58 61 -144 vhcurveto
          -18 -52 -2 -29 hhcurveto
          -76 hlineto
          hintmask 1010111000000000
          -28 -45 -64 callsubr
          hintmask 0111011000000000
          33 callsubr
          -41 callsubr
          33 8 -41 callgsubr
          10 -8 13 -13 2 -36 rrcurveto
          2 -33 0 -37 -26 vvcurveto
          -210 vlineto
          -79 -1 -35 19 callgsubr
          -4 -34 -10 -16 106 callsubr
          -8 -12 -25 -1 -16 hhcurveto
          -5 -64 callgsubr
          hintmask 1011010100000000
          -74 callsubr
          140 302 rmoveto
          95 74 -41 -75 -88 -102 -20 -63 hvcurveto
          -21 hlineto
          -20 -13 3 36 -2 hvcurveto
          -2 21 -1 107 57 vvcurveto
          17 67 rmoveto
          -17 0 10 31 hvcurveto
          62 vlineto
          23 1 22 4 59 vhcurveto
          50 hlineto
          hintmask 1011011000000000
          73 42 -28 -51 -48 -21 -36 -29 -19 hvcurveto
          -22 -31 -20 -3 -43 hhcurveto
          endchar
        </CharString>
        <CharString name="C">
          57 -11 82 515 79 -59 callgsubr
          endchar
        </CharString>
        <CharString name="CR">
          -340 endchar
        </CharString>
        <CharString name="Ccaron">
          57 -11 82 515 79 185 -20 -59 callgsubr
          -163 205 -85 callgsubr
        </CharString>
        <CharString name="Ccedilla">
          58 100 callsubr
          26 82 -60 -21 596 79 hstemhm
          47 120 211 74 hintmask 11011110
          236 -25 callgsubr
          18 29 rlineto
          hintmask 11101110
          4 4 -1 4 hhcurveto
          -59 callsubr
          -30 callgsubr
          -178 105 -127 164 -25 hvcurveto
          -47 -71 -46 callgsubr
        </CharString>
        <CharString name="D">
          160 57 callgsubr
          576 82 2 -56 callsubr
          346 121 hintmask 10010110
          -19 callsubr
          hintmask 01010110
          -22 callsubr
          hintmask 00110110
          -74 callsubr
          93 hlineto
          hintmask 10010110
          1 callsubr
          hintmask 10001110
          -27 callgsubr
          hintmask 10010110
          55 callsubr
          88 -21 callsubr
          endchar
        </CharString>
        <CharString name="Dcaron">
          160 57 callgsubr
          576 82 192 -56 callsubr
          346 121 hintmask 10011110
          -19 callsubr
          hintmask 01011110
          -22 callsubr
          hintmask 00111110
          -74 callsubr
          93 hlineto
          hintmask 10011110
          1 callsubr
          -27 callgsubr
          55 callsubr
          88 -21 callsubr
          23 634 -85 callgsubr
        </CharString>
        <CharString name="Dcroat">
          172 57 callgsubr
          288 82 206 82 2 -20 hstemhm
          130 111 356 121 hintmask 10011011
          46 370 40 callsubr
          99 -57 hlineto
          15 callsubr
          hintmask 01011011
          -22 callsubr
          hintmask 00111011
          -74 callsubr
          93 hlineto
          hintmask 10011011
          29 80 -2 24 -37 callgsubr
          -33 -76 -4 -35 hhcurveto
          -97 hlineto
          hintmask 10010111
          -29 -55 -91 callsubr
          -41 callsubr
          33 8 -41 callgsubr
          12 -8 10 -16 3 -33 rrcurveto
          2 -33 0 -94 -26 vvcurveto
          -24 vlineto
          163 -292 -8 callsubr
          27 118 vlineto
          74 callgsubr
          -134 15 hlineto
          hintmask 10011011
          55 callsubr
          98 -21 callsubr
          endchar
        </CharString>
        <CharString name="E">
          -46 callsubr
          6 -12 callsubr
          hintmask 10011011
          164 654 rmoveto
          hintmask 01010111
          -29 -100 callsubr
          -163 vlineto
          -79 -1 -25 -1 -20 -47 callgsubr
          -20 -74 callgsubr
          hintmask 10011011
          -11 callgsubr
          hintmask 00111011
          -69 callgsubr
          hintmask 10011011
          -106 callgsubr
          endchar
        </CharString>
        <CharString name="Eacute">
          -46 callsubr
          196 -107 callgsubr
          -136 35 -99 callgsubr
        </CharString>
        <CharString name="Ecaron">
          -46 callsubr
          196 -107 callgsubr
          -43 58 -85 callgsubr
        </CharString>
        <CharString name="Ecircumflex">
          -46 callsubr
          195 -107 callgsubr
          -55 195 -95 callgsubr
        </CharString>
        <CharString name="Edieresis">
          -46 callsubr
          66 130 26 callsubr
          111 -89 130 30 119 29 51 hintmask 0101111011000000
          -96 callsubr
          hintmask 1001111011000000
          -11 callgsubr
          hintmask 0011111011000000
          -69 callgsubr
          hintmask 1001111011000000
          -106 callgsubr
          hintmask 1001110111000000
          -178 130 rmoveto
          -35 29 -29 35 33 33 29 35 -101 callgsubr
        </CharString>
        <CharString name="Egrave">
          -46 callsubr
          196 -107 callgsubr
          43 38 -94 callsubr
        </CharString>
        <CharString name="Eth">
          172 57 callgsubr
          288 82 206 82 2 -20 hstemhm
          130 111 356 121 hintmask 10011011
          46 370 40 callsubr
          99 -57 hlineto
          15 callsubr
          hintmask 01011011
          -22 callsubr
          hintmask 00111011
          -74 callsubr
          93 hlineto
          hintmask 10011011
          29 80 -2 24 -37 callgsubr
          -33 -76 -4 -35 hhcurveto
          -97 hlineto
          hintmask 10010111
          -29 -55 -91 callsubr
          -41 callsubr
          33 8 -41 callgsubr
          12 -8 10 -16 3 -33 rrcurveto
          2 -33 0 -94 -26 vvcurveto
          -24 vlineto
          163 -292 -8 callsubr
          27 118 vlineto
          74 callgsubr
          -134 15 hlineto
          hintmask 10011011
          55 callsubr
          98 -21 callsubr
          endchar
        </CharString>
        <CharString name="Euro">
          57 -11 82 135 82 72 82 144 79 hstem
          61 442 40 callsubr
          81 hlineto
          -1 -12 0 -12 -12 vvcurveto
          -12 0 -13 1 -11 vhcurveto
          -72 hlineto
          -15 -82 rlineto
          100 hlineto
          -134 36 99 -83 133 hhcurveto
          60 55 19 43 57 hvcurveto
          24 44 -12 22 rlineto
          -36 -54 -67 -10 -45 hhcurveto
          -74 -61 46 89 -28 hvcurveto
          215 60 callgsubr
          -246 hlineto
          -1 12 -1 14 14 vvcurveto
          32 238 vlineto
          74 callgsubr
          -245 hlineto
          8 39 15 34 24 27 rrcurveto
          28 25 39 16 40 hhcurveto
          53 58 -19 -60 6 hvcurveto
          -2 callsubr
          -59 -71 7 -43 hhcurveto
          -145 -93 -93 -130 -34 hvcurveto
          endchar
        </CharString>
        <CharString name="F">
          -60 25 callgsubr
          313 68 195 78 6 -12 callsubr
          hintmask 10110110
          126 547 rmoveto
          1 -31 1 -29 -93 vvcurveto
          -163 vlineto
          -79 -1 -25 -1 -20 -47 callgsubr
          -20 -74 callgsubr
          hintmask 01110110
          -74 callsubr
          59 hlineto
          hintmask 10110110
          19 84 -5 -1 -67 callgsubr
          6 callsubr
          -21 -27 0 10 -12 hvcurveto
          -11 8 -14 11 -2 100 callgsubr
          18 95 vvcurveto
          62 vlineto
          65 62 0 -14 12 hvcurveto
          7 -9 3 -13 -17 vvcurveto
          14 callgsubr
          -2 4 2 rlineto
          -2 32 -3 27 32 vvcurveto
          32 3 14 2 34 -34 callgsubr
          -13 -4 -11 -5 -5 vhcurveto
          -16 -16 -61 5 -63 -2 rrcurveto
          49 vlineto
          68 2 12 1 27 vhcurveto
          2 39 rlineto
          56 hlineto
          150 4 -1 -52 4 hvcurveto
          -19 callgsubr
          45 hlineto
          5 129 -6 10 rlineto
          -13 -128 -4 -37 hhcurveto
          -174 hlineto
          hintmask 10101110
          -19 -74 -91 callsubr
          21 callgsubr
          -11 3 -38 rrcurveto
          endchar
        </CharString>
        <CharString name="G">
          109 -11 82 155 46 311 82 hstem
          46 120 vstem
          613 30 rmoveto
          -2 6 -1 29 20 vvcurveto
          15 1 34 2 27 vhcurveto
          42 2 14 23 38 hhcurveto
          5 4 2 44 26 callgsubr
          -1 -19 -50 -4 callgsubr
          -70 hlineto
          -19 -71 -86 callgsubr
          -42 -49 callsubr
          28 -41 callgsubr
          8 -5 14 -18 3 -34 rrcurveto
          2 -12 0 -27 -9 vvcurveto
          -11 0 -6 -8 -4 vhcurveto
          -11 -14 -58 -10 -37 hhcurveto
          -123 -93 95 163 84 14 84 58 45 hvcurveto
          32 41 48 9 63 hhcurveto
          103 43 -32 -45 7 hvcurveto
          4 -3 rlineto
          45 hlineto
          17 109 -2 9 rlineto
          35 -73 -88 9 -51 hhcurveto
          -228 -121 -150 -191 -182 110 -153 233 80 74 16 20 66 hvcurveto
          endchar
        </CharString>
        <CharString name="H">
          181 33 callgsubr
          317 74 229 40 68 callgsubr
          296 111 hintmask 10110110
          734 -2 rmoveto
          -3 38 6 callsubr
          -21 -20 1 9 -12 91 callsubr
          -13 11 -2 37 rrcurveto
          -2 31 0 18 95 vvcurveto
          144 -6 callsubr
          2 37 vhcurveto
          5 37 10 11 10 9 rrcurveto
          9 11 21 1 21 hhcurveto
          44 callgsubr
          hintmask 10101110
          26 callgsubr
          hintmask 10110110
          -66 callsubr
          hintmask 10101110
          -18 callsubr
          hintmask 10110110
          -19 callgsubr
          21 21 -1 -9 92 callgsubr
          -9 12 -11 2 -37 rrcurveto
          2 -31 1 -29 -93 vvcurveto
          -9 -296 10 -28 callsubr
          1 -61 callsubr
          rlineto
          hintmask 10101110
          26 callgsubr
          hintmask 10110110
          -66 callsubr
          hintmask 10101110
          -18 callsubr
          hintmask 10110110
          -49 callsubr
          20 -1 -9 92 callgsubr
          -9 11 -13 3 -35 rrcurveto
          3 -31 0 -29 -93 vvcurveto
          -163 vlineto
          -79 -1 -25 -1 -20 -47 callgsubr
          -20 90 callgsubr
          -5 105 callgsubr
          rlineto
          hintmask 01110110
          -22 callsubr
          hintmask 10110110
          -74 callsubr
          59 hlineto
          hintmask 01110110
          -51 callgsubr
          rlineto
          hintmask 10110110
          -60 callgsubr
          -2 31 -1 18 95 vvcurveto
          60 296 -80 vlineto
          14 callsubr
          -2 -20 vhcurveto
          -6 -37 -6 -11 -12 107 callgsubr
          -13 -20 90 callgsubr
          18 callsubr
          hintmask 01110110
          -22 callsubr
          hintmask 10110110
          -74 callsubr
          59 hlineto
          hintmask 01110110
          97 callsubr
        </CharString>
        <CharString name="I">
          38 callsubr
          660 -56 callsubr
          hintmask 10110000
          325 660 rmoveto
          -66 callsubr
          -19 -74 -91 callsubr
          -49 callsubr
          20 -1 -9 92 callgsubr
          -9 11 -13 3 -35 rrcurveto
          3 -31 0 -29 -93 vvcurveto
          -163 -62 callsubr
          -5 -37 -10 -33 callsubr
          -11 -21 -74 callgsubr
          hintmask 01110000
          -74 callsubr
          59 hlineto
          hintmask 10110000
          -77 callgsubr
          -80 callgsubr
          3 38 rlineto
          endchar
        </CharString>
        <CharString name="IJ">
          91 -135 -21 177 -21 614 40 68 callgsubr
          121 206 -110 110 hintmask 11011100
          325 48 callsubr
          hintmask 11101100
          -66 callsubr
          hintmask 11011100
          -18 callsubr
          hintmask 11101100
          -49 callsubr
          20 -1 -9 92 callgsubr
          -9 11 -13 3 -35 rrcurveto
          3 -31 0 -29 -93 vvcurveto
          -163 -62 callsubr
          -5 -37 -10 -33 callsubr
          -11 -21 -1 -21 hhcurveto
          -5 -4 -3 -38 2 -4 rlineto
          1 19 74 5 19 hhcurveto
          59 hlineto
          -77 callgsubr
          -80 callgsubr
          3 38 rlineto
          hintmask 11011100
          326 4 rmoveto
          hintmask 11101100
          -66 callsubr
          hintmask 11011100
          -18 callsubr
          hintmask 11101010
          -68 callsubr
        </CharString>
        <CharString name="Iacute">
          38 callsubr
          850 -56 callsubr
          hintmask 10110000
          325 660 rmoveto
          -66 callsubr
          -19 -74 -91 callsubr
          -49 callsubr
          20 -1 -9 92 callgsubr
          -9 11 -13 3 -35 rrcurveto
          3 -31 0 -29 -93 vvcurveto
          -163 -62 callsubr
          -5 -37 -10 -33 callsubr
          -11 -21 -74 callgsubr
          hintmask 01110000
          -74 callsubr
          59 hlineto
          hintmask 10110000
          -77 callgsubr
          -80 callgsubr
          3 38 rlineto
          -225 33 -99 callgsubr
        </CharString>
        <CharString name="Icircumflex">
          38 callsubr
          850 -56 callsubr
          hintmask 10110000
          325 660 rmoveto
          -66 callsubr
          -19 -74 -91 callsubr
          -49 callsubr
          20 -1 -9 92 callgsubr
          -9 11 -13 3 -35 rrcurveto
          3 -31 0 -29 -93 vvcurveto
          -163 -62 callsubr
          -5 -37 -10 -33 callsubr
          -11 -21 -74 callgsubr
          hintmask 01110000
          -74 callsubr
          59 hlineto
          hintmask 10110000
          -77 callgsubr
          -80 callgsubr
          3 38 rlineto
          -149 194 -95 callgsubr
        </CharString>
        <CharString name="Idieresis">
          38 callsubr
          721 49 callsubr
          41 126 -39 111 -42 130 hintmask 10101000
          325 660 rmoveto
          -66 callsubr
          -19 -74 -91 callsubr
          -49 callsubr
          20 -1 -9 92 callgsubr
          -9 11 -13 3 -35 rrcurveto
          3 -31 0 -29 -93 vvcurveto
          -163 -62 callsubr
          -5 -37 -10 -33 callsubr
          -11 -21 -74 callgsubr
          hintmask 01110100
          -74 callsubr
          59 hlineto
          hintmask 10110100
          -77 callgsubr
          hintmask 10101000
          -80 callgsubr
          rlineto
          hintmask 10110100
          3 38 rlineto
          -290 129 rmoveto
          -35 29 -29 35 33 33 29 35 -101 callgsubr
        </CharString>
        <CharString name="Igrave">
          38 callsubr
          849 -56 callsubr
          hintmask 10110000
          325 660 rmoveto
          -66 callsubr
          -19 -74 -91 callsubr
          -49 callsubr
          20 -1 -9 92 callgsubr
          -9 11 -13 3 -35 rrcurveto
          3 -31 0 -29 -93 vvcurveto
          -163 -62 callsubr
          -5 -37 -10 -33 callsubr
          -11 -21 -74 callgsubr
          hintmask 01110000
          -74 callsubr
          59 hlineto
          hintmask 10110000
          -77 callgsubr
          -80 callgsubr
          3 38 rlineto
          -52 35 -94 callsubr
        </CharString>
        <CharString name="J">
          -247 -135 -21 816 -20 hstem
          22 206 -110 110 vstem
          315 660 rmoveto
          -66 callsubr
          -19 -74 -91 callsubr
          -68 callsubr
        </CharString>
        <CharString name="K">
          103 11 66 callgsubr
          27 -21 661 -56 callsubr
          86 124 hintmask 01011100
          580 592 rmoveto
          20 12 34 8 18 3 -42 callgsubr
          -5 -37 -12 -1 -31 hhcurveto
          -89 hlineto
          -31 -30 1 5 -27 hvcurveto
          -5 59 callsubr
          -41 callsubr
          27 -6 27 -2 -30 vvcurveto
          -16 -60 -76 -52 -47 vhcurveto
          -35 -32 -37 -30 -26 -13 rrcurveto
          48 vlineto
          78 0 27 3 31 vhcurveto
          1 -61 callsubr
          26 callgsubr
          -66 callsubr
          -19 -100 callsubr
          -163 vlineto
          -79 -1 -25 -1 -20 -47 callgsubr
          -20 -74 callgsubr
          hintmask 00111100
          -74 callsubr
          59 hlineto
          hintmask 01011100
          -51 callgsubr
          -9 callsubr
          -21 -21 0 10 84 callsubr
          8 -12 11 -2 38 rrcurveto
          -2 35 -1 -2 111 vvcurveto
          8 vlineto
          15 15 16 14 16 14 34 -52 65 -107 17 -24 rrcurveto
          hintmask 10011100
          -97 66 42 -32 70 hhcurveto
          hintmask 01011100
          27 58 4 39 hhcurveto
          2 4 -2 38 -6 4 -84 13 -47 31 -54 61 rlinecurve
          -62 69 -43 78 -51 74 68 72 rcurveline
          58 62 72 77 25 15 rrcurveto
          endchar
        </CharString>
        <CharString name="L">
          -64 32 callgsubr
          666 -56 callsubr
          hintmask 01110000
          125 547 rmoveto
          2 -20 1 -60 -73 vvcurveto
          -163 vlineto
          -19 0 -78 -3 -26 vhcurveto
          -3 -26 -11 -22 -11 -9 rrcurveto
          -8 -10 -17 -3 -25 hhcurveto
          -5 -64 callgsubr
          hintmask 10110000
          2 21 73 4 18 hhcurveto
          212 hlineto
          28 77 -2 -2 22 hvcurveto
          8 10 18 137 rlineto
          -46 hlineto
          -3 -4 rlineto
          -56 -14 -9 -5 -88 hhcurveto
          -93 hlineto
          -16 -6 6 14 -1 hvcurveto
          -4 45 0 13 105 vvcurveto
          134 vlineto
          102 0 24 2 26 vhcurveto
          2 27 7 20 15 10 rrcurveto
          6 9 13 4 33 hhcurveto
          4 4 3 38 26 callgsubr
          -3 -27 -62 -3 -23 hhcurveto
          -59 hlineto
          -23 -65 3 3 -24 hvcurveto
          33 callsubr
          -41 callsubr
          28 15 -3 -6 10 hvcurveto
          15 -10 7 -25 2 -23 rrcurveto
          endchar
        </CharString>
        <CharString name="M">
          352 33 callgsubr
          666 -20 hstemhm
          125 100 -86 86 -86 98 hintmask 10101000
          922 -2 rmoveto
          -3 38 6 callsubr
          -21 -21 0 10 -12 hvcurveto
          -11 8 -12 11 -5 38 -5 31 -1 18 -8 95 -12 144 rcurveline
          -8 96 0 19 37 vvcurveto
          36 15 13 10 8 vhcurveto
          9 12 21 1 20 50 callgsubr
          -86 hlineto
          -11 -12 2 2 -11 hvcurveto
          -5 -4 -15 -112 -148 -368 -11 -18 rlinecurve
          -12 36 -16 42 -14 36 -63 162 rcurveline
          -33 85 -32 100 -4 38 -5 3 rcurveline
          -2 -13 -18 -2 -9 hhcurveto
          -77 hlineto
          -19 -74 -91 callsubr
          -49 callsubr
          20 -41 callgsubr
          11 -8 14 -11 -38 vvcurveto
          -31 -1 -29 -7 -93 vhcurveto
          hintmask 10110000
          -14 -183 -5 -67 -4 -21 -3 -16 rlinecurve
          -6 -37 -12 -11 -11 107 callgsubr
          -13 -20 -1 -20 hhcurveto
          -6 105 callgsubr
          rlineto
          hintmask 01110000
          -22 callsubr
          hintmask 10110000
          1 19 73 -7 callgsubr
          hintmask 01110000
          19 58 -5 -1 -67 callgsubr
          rlineto
          hintmask 10110000
          -9 callsubr
          -21 -14 0 10 -10 hvcurveto
          -10 8 -11 11 38 vvcurveto
          30 0 22 6 87 vhcurveto
          hintmask 10100100
          12 164 rlineto
          2 32 4 15 32 vvcurveto
          175 -476 rlineto
          82 hlineto
          48 130 113 279 25 70 5 -26 0 -20 2 -31 22 -327 rcurveline
          -39 -23 -9 -39 vhcurveto
          -11 hlineto
          18 callsubr
          hintmask 01110000
          3 -4 rlineto
          hintmask 10110000
          -74 callsubr
          59 hlineto
          hintmask 01110000
          97 callsubr
        </CharString>
        <CharString name="M.salt">
          290 -6 46 -19 -21 660 -20 26 callsubr
          91 425 110 hintmask 10111000
          843 -2 rmoveto
          2 callgsubr
          -9 8 -13 12 -3 37 rrcurveto
          -2 31 -1 18 95 vvcurveto
          144 -28 callsubr
          5 37 10 11 10 9 rrcurveto
          9 11 21 1 21 50 callgsubr
          -76 hlineto
          -11 -12 1 3 -11 hvcurveto
          -5 -4 -7 -54 -25 -58 -31 -90 rlinecurve
          -64 -185 -30 -58 -19 -42 -14 37 -8 14 -15 49 -68 185 rcurveline
          -29 79 -37 90 -3 34 -5 3 rcurveline
          -2 -12 -18 -2 -10 hhcurveto
          -65 hlineto
          -19 -74 -91 callsubr
          -49 callsubr
          21 0 -10 11 hvcurveto
          9 -7 14 -13 2 -37 rrcurveto
          2 -31 0 -29 -93 vvcurveto
          -163 -62 callsubr
          -5 -37 -10 -33 callsubr
          -11 -21 -74 callgsubr
          hintmask 01111000
          -74 callsubr
          49 hlineto
          hintmask 10111000
          19 57 -5 -1 -67 callgsubr
          6 callsubr
          -20 -14 1 9 61 callgsubr
          -12 12 -3 37 rrcurveto
          -2 31 -1 18 95 vvcurveto
          164 vlineto
          52 0 21 2 19 vhcurveto
          165 -451 8 -13 14 -10 rlineto
          17 hlineto
          23 8 9 12 27 60 34 73 32 82 rlinecurve
          56 142 26 64 13 35 rrcurveto
          -17 -1 -26 -52 vvcurveto
          -183 vlineto
          14 callsubr
          -2 -20 vhcurveto
          -6 -37 -6 -11 -12 107 callgsubr
          -13 -20 90 callgsubr
          -4 -64 callgsubr
          hintmask 01111000
          -74 callsubr
          59 hlineto
          hintmask 10111000
          97 callsubr
        </CharString>
        <CharString name="N">
          44 callsubr
          103 callsubr
          131 91 347 93 hintmask 10011100
          752 48 callsubr
          hintmask 10101100
          52 callgsubr
          hintmask 10011100
          37 callsubr
          rlineto
          hintmask 10101100
          -19 callgsubr
          21 21 -41 callgsubr
          19 -15 8 -20 2 -22 rrcurveto
          2 -31 1 -29 -93 vvcurveto
          -136 vlineto
          -34 -1 -34 -34 vvcurveto
          -30 41 -53 75 -96 159 -53 87 -60 100 -9 37 -5 3 rcurveline
          -2 -12 -19 -2 -10 hhcurveto
          -85 hlineto
          hintmask 10011100
          -19 -58 -91 callsubr
          rlineto
          hintmask 10101100
          -90 callgsubr
          hintmask 01101100
          -56 callgsubr
          endchar
        </CharString>
        <CharString name="NULL">
          -593 endchar
        </CharString>
        <CharString name="Nacute">
          44 callsubr
          -40 236 hstemhm
          131 91 347 93 hintmask 10101100
          -88 callgsubr
          hintmask 01011100
          -56 callgsubr
          -402 33 -99 callgsubr
        </CharString>
        <CharString name="Ntilde">
          44 callsubr
          74 9 callsubr
          131 91 347 93 hintmask 1011001110000000
          -88 callgsubr
          hintmask 0110101110000000
          -56 callgsubr
          -207 149 -32 callgsubr
        </CharString>
        <CharString name="O">
          31 callgsubr
          -93 callsubr
          endchar
        </CharString>
        <CharString name="OE">
          369 -2 80 -61 66 callgsubr
          313 68 195 82 hstemhm
          47 121 345 113 219 51 hintmask 00111111
          743 hmoveto
          hintmask 01011111
          -69 callgsubr
          hintmask 10011111
          -75 callsubr
          -35 -76 4 -33 hhcurveto
          -202 -118 -150 -180 -175 112 -155 214 hvcurveto
          hintmask 00111111
          24 80 2 29 hhcurveto
          hintmask 10011111
          -100 78 rmoveto
          -154 -84 111 139 144 90 104 153 hvcurveto
          44 hlineto
          37 20 -23 -35 1 hvcurveto
          1 -36 0 -48 -49 vvcurveto
          -124 vlineto
          -80 0 -41 -3 -23 vhcurveto
          -35 -4 -11 -4 -34 hhcurveto
          endchar
        </CharString>
        <CharString name="Oacute">
          31 callgsubr
          185 -20 -93 callsubr
          -54 617 -99 callgsubr
        </CharString>
        <CharString name="Ocircumflex">
          -61 callgsubr
          2 777 -95 callgsubr
        </CharString>
        <CharString name="Odieresis">
          31 callgsubr
          56 85 callgsubr
          82 callsubr
          58 12 callgsubr
          61 -98 callgsubr
          -145 713 rmoveto
          -35 29 -29 35 33 33 29 35 -101 callgsubr
        </CharString>
        <CharString name="Ograve">
          -61 callgsubr
          59 619 -94 callsubr
        </CharString>
        <CharString name="Oslash">
          145 -29 -21 39 83 510 83 37 -20 hstem
          82 callsubr
          409 90 callsubr
          -57 callsubr
          -80 21 -75 42 -59 hvcurveto
          -27 -27 -27 -26 -23 -21 -1 -4 rcurveline
          82 -80 4 2 16 23 23 30 27 33 rlinecurve
          -31 47 59 -18 72 hhcurveto
          -15 callsubr
          81 -24 77 -46 59 hvcurveto
          30 32 31 32 30 27 1 4 rcurveline
          -91 61 -4 -3 -17 -26 -24 -30 -25 -31 rlinecurve
          33 -49 -62 20 -72 hhcurveto
          -178 -472 rmoveto
          -17 38 -9 45 53 vvcurveto
          145 69 108 129 50 43 -17 -28 34 vhcurveto
          -97 -116 -102 -119 -100 -109 rrcurveto
          177 -121 rmoveto
          -47 -41 15 27 -33 hvcurveto
          94 115 101 116 104 117 rrcurveto
          18 -39 10 -45 -50 vvcurveto
          -140 -75 -116 -131 vhcurveto
          endchar
        </CharString>
        <CharString name="Otilde">
          31 callgsubr
          61 9 callsubr
          82 callsubr
          409 117 hintmask 11010111
          -102 callsubr
          156 731 -30 callsubr
        </CharString>
        <CharString name="P">
          -12 33 callgsubr
          258 74 250 17 callsubr
          -34 -8 0 10 -12 hvcurveto
          -8 7 -13 12 -3 38 rrcurveto
          -2 22 -1 69 54 vvcurveto
          56 hlineto
          118 142 43 179 107 -67 75 -178 hvcurveto
          -20 -51 -2 -29 hhcurveto
          -76 hlineto
          hintmask 10101110
          -28 -45 -64 callsubr
          hintmask 10110110
          33 callsubr
          -41 callsubr
          33 8 -41 callgsubr
          11 -8 12 -14 2 -35 rrcurveto
          2 -33 0 -37 -26 vvcurveto
          -220 vlineto
          15 callsubr
          hintmask 01110110
          -22 callsubr
          hintmask 10110110
          -74 callsubr
          59 hlineto
          hintmask 01110110
          11 callsubr
          -48 332 rmoveto
          -34 -4 3 34 hvcurveto
          109 vlineto
          23 1 22 4 59 vhcurveto
          47 hlineto
          95 60 -36 -71 -89 -45 -54 -111 hvcurveto
          endchar
        </CharString>
        <CharString name="Q">
          -166 83 16 57 -1 83 510 83 hstemhm
          82 callsubr
          409 117 hintmask 10111100
          -57 callsubr
          -178 101 -153 198 -2 hvcurveto
          -57 -4 -53 -30 -29 -20 -1 -3 rcurveline
          11 -39 3 -1 rlineto
          hintmask 11011100
          20 23 54 21 52 123 100 -99 90 hhcurveto
          54 45 30 39 31 hvcurveto
          1 4 -14 28 -3 2 rlineto
          -17 -29 -28 -3 -18 hhcurveto
          -105 -65 71 2 -135 hvcurveto
          192 11 103 159 170 vvcurveto
          179 -117 156 -205 vhcurveto
          hintmask 10111100
          40 callgsubr
          -119 -84 99 158 -77 callsubr
          endchar
        </CharString>
        <CharString name="Q.salt">
          153 -181 95 -27 27 -27 76 -76 185 510 83 hstemhm
          82 callsubr
          419 117 hintmask 01001110
          374 41 callsubr
          -206 -121 -153 -190 -158 83 -138 164 -30 hvcurveto
          1 -3 -52 -34 -43 -9 -36 -23 -24 -20 rlinecurve
          -1 -3 5 -47 4 -1 rlineto
          20 25 58 11 34 hhcurveto
          hintmask 10001110
          148 94 -68 97 hhcurveto
          54 32 27 43 33 hvcurveto
          1 5 -4 40 -4 2 rlineto
          -20 -30 -30 -2 -19 hhcurveto
          hintmask 00101110
          -100 -84 43 6 -123 hvcurveto
          -1 3 40 21 60 1 51 17 rlinecurve
          144 48 77 133 143 vvcurveto
          180 -119 156 -208 vhcurveto
          hintmask 00011110
          40 callgsubr
          -122 -86 98 159 145 71 108 132 134 82 -110 -144 -140 -77 -116 -134 hvcurveto
          endchar
        </CharString>
        <CharString name="R">
          71 10 -21 32 -21 263 74 239 17 callsubr
          -35 -11 2 7 -9 hvcurveto
          -12 8 -7 18 -3 32 rrcurveto
          -3 29 -1 36 91 vvcurveto
          65 hlineto
          19 -34 42 -67 29 -43 rrcurveto
          -95 63 49 -35 71 hhcurveto
          17 39 2 3 51 hvcurveto
          2 4 -2 38 -6 4 -68 6 -40 24 -62 71 rlinecurve
          -23 25 -30 42 -45 67 rrcurveto
          95 50 50 71 83 vvcurveto
          116 -83 61 -158 vhcurveto
          -29 -44 -2 -31 hhcurveto
          -76 hlineto
          hintmask 10101110
          -20 -38 2 4 -34 hvcurveto
          hintmask 01110110
          33 callsubr
          -41 callsubr
          31 13 -2 -7 10 hvcurveto
          12 -9 5 -13 5 -36 rrcurveto
          3 -26 1 -24 -46 vvcurveto
          -220 89 callsubr
          -53 -1 -23 vhcurveto
          -3 -28 -9 -21 -14 -9 rrcurveto
          -6 -9 -18 -3 -25 hhcurveto
          -5 -64 callgsubr
          3 20 61 3 31 hhcurveto
          59 hlineto
          29 61 -3 -3 22 hvcurveto
          -62 343 rmoveto
          -18 -6 9 28 hvcurveto
          98 vlineto
          26 1 25 4 53 vhcurveto
          47 hlineto
          107 48 -33 -74 -82 -59 -50 -97 hvcurveto
          endchar
        </CharString>
        <CharString name="S">
          -33 -11 70 532 74 -71 callgsubr
          endchar
        </CharString>
        <CharString name="Scaron">
          -33 -11 70 532 74 185 -20 -71 callgsubr
          113 209 -85 callgsubr
        </CharString>
        <CharString name="T">
          -6 25 callgsubr
          576 78 11 -20 hstemhm
          239 110 hintmask 10101000
          452 -2 rmoveto
          -3 38 6 callsubr
          -21 -32 0 10 -11 hvcurveto
          -11 8 -14 11 -3 100 callgsubr
          18 95 vvcurveto
          164 vlineto
          75 1 54 1 32 vhcurveto
          11 hlineto
          101 26 0 -11 8 hvcurveto
          15 -6 9 -16 3 -20 4 -4 rcurveline
          44 hlineto
          -8 134 -4 9 rlineto
          hintmask 10011000
          -6 3 rlineto
          hintmask 10101000
          -9 -21 -142 -2 -35 hhcurveto
          -126 hlineto
          hintmask 10011000
          -35 -141 2 9 -22 hvcurveto
          -6 -3 -4 -9 -7 -134 rlineto
          43 hlineto
          4 4 3 20 10 16 14 6 rlinecurve
          hintmask 10101000
          7 8 26 4 102 hhcurveto
          11 hlineto
          1 -28 2 -61 -73 vvcurveto
          -183 vlineto
          14 callsubr
          -2 -20 vhcurveto
          -4 -37 -13 -11 34 callsubr
          -10 -12 -33 0 -20 hhcurveto
          -5 -64 callgsubr
          hintmask 01101000
          1 19 69 -39 callgsubr
          97 hlineto
          hintmask 10101000
          18 72 -5 -1 18 hvcurveto
          endchar
        </CharString>
        <CharString name="Thorn">
          -6 0 212 -197 -21 144 74 250 78 -78 192 68 callgsubr
          208 109 hintmask 10010111
          239 570 rmoveto
          14 7 10 19 11 vhcurveto
          7 13 21 2 21 hhcurveto
          4 4 3 38 26 callgsubr
          hintmask 10001011
          -66 callsubr
          hintmask 01110111
          -19 -74 -91 callsubr
          -49 callsubr
          20 -3 -6 11 hvcurveto
          11 -6 13 -9 2 -23 rrcurveto
          2 -31 0 -29 -93 vvcurveto
          -203 vlineto
          -66 -1 -21 -1 -17 vhcurveto
          -3 -37 -12 -11 -10 9 callgsubr
          -3 -38 2 -4 rlineto
          hintmask 10010111
          -74 callsubr
          59 hlineto
          hintmask 01110111
          -51 callgsubr
          -9 callsubr
          -21 -24 1 9 -12 hvcurveto
          -12 9 -12 17 28 vvcurveto
          34 37 vlineto
          127 153 40 167 116 -72 79 -193 hvcurveto
          -52 hlineto
          73 -78 rmoveto
          83 52 -41 -81 -80 -39 -48 -97 hvcurveto
          -72 250 hlineto
          endchar
        </CharString>
        <CharString name="U">
          138 58 callsubr
          6 -20 96 callsubr
          hintmask 10111000
          710 48 callsubr
          hintmask 11011000
          -1 -19 -69 -4 callgsubr
          -62 hlineto
          hintmask 10111000
          -19 -63 -91 callsubr
          rlineto
          hintmask 11011000
          -93 callgsubr
          rlineto
          hintmask 10111000
          26 callgsubr
          hintmask 11011000
          -66 callsubr
          hintmask 10111000
          -18 callsubr
          hintmask 11011000
          -95 callsubr
          endchar
        </CharString>
        <CharString name="Uacute">
          139 58 callsubr
          -40 234 96 callsubr
          hintmask 11011000
          -106 callsubr
          -416 31 -76 callsubr
          hintmask 10111000
          -85 callsubr
        </CharString>
        <CharString name="Ucircumflex">
          138 58 callsubr
          197 -20 hstem
          81 callsubr
          307 97 vstem
          -106 callsubr
          -346 195 -95 callgsubr
        </CharString>
        <CharString name="Udieresis">
          138 58 callsubr
          64 85 callgsubr
          81 callsubr
          8 12 callgsubr
          9 97 vstem
          -106 callsubr
          -484 126 rmoveto
          -35 29 -29 35 33 33 29 35 -101 callgsubr
        </CharString>
        <CharString name="Ugrave">
          139 58 callsubr
          196 -20 hstem
          81 callsubr
          307 97 vstem
          -106 callsubr
          -262 36 -94 callsubr
        </CharString>
        <CharString name="V">
          131 75 callsubr
          308 -11 rmoveto
          112 11 10 30 47 117 37 93 rlinecurve
          110 282 5 5 9 -39 callsubr
          -24 -55 -30 -83 -63 callsubr
          endchar
        </CharString>
        <CharString name="W">
          538 75 callsubr
          730 -11 rmoveto
          112 11 9 30 42 117 33 93 rlinecurve
          101 282 5 5 8 -39 callsubr
          -19 -56 -29 -82 hvcurveto
          -57 -164 -20 -56 -17 -49 -9 -30 rlinecurve
          -16 32 -15 49 -19 54 -57 164 rcurveline
          -29 83 -15 -24 callgsubr
          -65 -4 callgsubr
          -74 hlineto
          hintmask 10100000
          -19 -71 7 callsubr
          70 19 -21 -53 -33 -11 -46 -22 -58 -63 callsubr
          12 hlineto
          112 11 10 30 50 115 34 95 rlinecurve
          60 165 147 -416 rlineto
          endchar
        </CharString>
        <CharString name="W.calt">
          391 6 -21 631 39 7 -20 hstemhm
          hintmask 11000000
          620 -11 rmoveto
          12 -4 69 15 57 141 85 276 55 131 rlinecurve
          12 27 14 21 14 10 rrcurveto
          8 15 19 1 18 hhcurveto
          4 4 3 38 26 callgsubr
          -1 -19 -60 101 callgsubr
          -18 -71 5 1 -18 hvcurveto
          33 callsubr
          -41 callsubr
          38 23 -4 -38 -41 -43 -162 -80 -256 hvcurveto
          -133 539 rlineto
          -64 hlineto
          -10 -14 -46 -176 -41 -165 -39 -184 rlinecurve
          -57 163 -79 258 39 vvcurveto
          38 22 4 39 vhcurveto
          -23 callsubr
          -1 -19 -75 -4 callgsubr
          -74 hlineto
          -19 -61 5 1 20 callsubr
          34 34 0 -67 28 hvcurveto
          9 -20 13 -33 26 -71 159 -436 rcurveline
          12 -4 80 16 34 168 36 163 35 154 rlinecurve
          6 2 rlineto
          endchar
        </CharString>
        <CharString name="X">
          117 14 -21 28 -21 660 -20 hstemhm
          222 177 -177 249 hintmask 01110000
          556 528 rmoveto
          42 55 28 22 59 9 -42 callgsubr
          -5 -37 -22 -1 -32 hhcurveto
          -98 hlineto
          -32 -20 0 6 -40 hvcurveto
          -5 59 callsubr
          -41 callsubr
          hintmask 01101000
          29 -7 38 0 -33 vvcurveto
          -10 -8 -12 -3 -6 vhcurveto
          -11 -23 -35 -57 -48 -59 -38 57 -22 26 -43 71 rrcurveto
          6 -9 11 7 vvcurveto
          5 0 7 11 5 vhcurveto
          12 8 21 3 26 1 5 4 rcurveline
          38 vlineto
          6 callsubr
          -4 -37 -44 -2 -30 hhcurveto
          -93 hlineto
          -28 -30 1 5 -30 hvcurveto
          -6 -27 callsubr
          10 -8 13 -16 10 -14 63 -90 58 -76 43 -61 5 -6 rcurveline
          -67 -87 -68 -84 -31 -39 -45 -54 -18 -11 -60 -9 -8 -7 rcurveline
          -33 vlineto
          5 -6 rlineto
          5 37 30 1 31 hhcurveto
          87 hlineto
          31 37 0 -6 38 hvcurveto
          6 6 rlineto
          34 vlineto
          -6 6 rlineto
          -67 8 -8 9 23 vvcurveto
          7 2 6 2 5 vhcurveto
          14 26 56 73 53 64 rrcurveto
          55 -68 67 -91 -24 vvcurveto
          -23 -31 -13 -30 -2 vhcurveto
          -5 -6 rlineto
          -35 vlineto
          hintmask 10110000
          5 -6 rlineto
          4 36 47 4 30 hhcurveto
          90 hlineto
          24 35 -4 -4 26 hvcurveto
          6 6 rlineto
          34 vlineto
          -9 7 -61 11 -9 19 -24 27 rlinecurve
          -12 13 -81 100 -94 129 -3 3 rcurveline
          37 47 27 32 81 107 rrcurveto
          endchar
        </CharString>
        <CharString name="Y">
          60 25 callgsubr
          661 -92 callsubr
          endchar
        </CharString>
        <CharString name="Yacute">
          60 25 callgsubr
          847 -92 callsubr
          -175 692 -99 callgsubr
        </CharString>
        <CharString name="Ydieresis">
          60 25 callgsubr
          719 49 callsubr
          188 130 -46 110 -34 130 hintmask 10101000
          -104 callgsubr
          hintmask 01110100
          93 callgsubr
          hintmask 10110100
          11 callsubr
          -281 789 rmoveto
          -35 29 -29 35 33 33 29 35 -101 callgsubr
        </CharString>
        <CharString name="Z">
          42 32 callgsubr
          582 86 hstemhm
          hintmask 01100000
          -10 callgsubr
          hintmask 10100000
          86 callsubr
          hintmask 01100000
          36 callsubr
          hintmask 10100000
          -29 callgsubr
          endchar
        </CharString>
        <CharString name="Zcaron">
          42 32 callgsubr
          582 86 188 -20 hstemhm
          hintmask 01110000
          -10 callgsubr
          hintmask 10110000
          86 callsubr
          hintmask 01110000
          36 callsubr
          hintmask 10110000
          -29 callgsubr
          300 186 -85 callgsubr
        </CharString>
        <CharString name="a">
          -44 callsubr
          10 callgsubr
          hintmask 01011100
          -107 callsubr
          hintmask 10101100
          -98 callsubr
          endchar
        </CharString>
        <CharString name="aacute">
          -102 callgsubr
          -120 404 -99 callgsubr
        </CharString>
        <CharString name="acircumflex">
          -102 callgsubr
          -74 565 -95 callgsubr
        </CharString>
        <CharString name="acute">
          87 callgsubr
          28 519 -99 callgsubr
        </CharString>
        <CharString name="adieresis">
          -44 callsubr
          74 130 69 callsubr
          -45 12 callgsubr
          -70 112 hintmask 0101110010000000
          -107 callsubr
          hintmask 1010110100000000
          -98 callsubr
          hintmask 1010101100000000
          -207 498 rmoveto
          -35 29 -29 35 33 33 29 35 -101 callgsubr
        </CharString>
        <CharString name="ae">
          190 6 callgsubr
          hstem
          26 123 0 175 0 100 vstem
          242 475 rmoveto
          -73 -75 -27 -15 -16 hvcurveto
          -101 callsubr
          -70 59 -62 95 49 101 22 69 44 vhcurveto
          -60 33 68 -31 75 -40 callsubr
          -62 -60 -23 -47 -38 hvcurveto
          49 -22 -58 21 -63 hhcurveto
          69 -350 rmoveto
          -23 -16 -51 -34 -60 callsubr
          -75 -1 -13 -6 -9 -4 -7 rlinecurve
          249 275 13 callsubr
        </CharString>
        <CharString name="agrave">
          -102 callgsubr
          -5 407 -94 callsubr
        </CharString>
        <CharString name="ampersand">
          149 -10 56 -56 84 -59 -21 337 89 162 81 hstemhm
          49 112 -43 98 253 81 hintmask 10011011
          469 233 rmoveto
          -15 -3 -15 -7 -15 vhcurveto
          -154 167 -51 59 -18 41 rrcurveto
          -10 22 -10 24 25 vvcurveto
          28 26 28 38 44 20 -25 -70 6 vhcurveto
          -19 callgsubr
          53 hlineto
          12 71 -3 10 rlineto
          73 -13 -70 26 -59 hhcurveto
          -89 -67 -56 -94 -50 20 -37 42 -56 hvcurveto
          hintmask 10011101
          -83 -33 -48 -85 -80 vvcurveto
          -119 111 -63 117 71 69 23 41 50 vhcurveto
          -34 35 39 -30 40 hhcurveto
          hintmask 00111101
          15 63 4 27 hhcurveto
          3 4 -3 43 rlineto
          hintmask 10011101
          -5 5 -66 4 -41 30 -46 52 rlinecurve
          13 36 9 40 44 vvcurveto
          26 -10 34 -9 24 vhcurveto
          -2 31 33 -3 13 hhcurveto
          66 24 68 9 hvcurveto
          -13 23 rlineto
          -10 -17 -24 -1 -25 -52 -65 8 -25 hhcurveto
          -63 -32 -68 -23 hvcurveto
          14 -22 10 13 8 9 25 2 rlinecurve
          19 -27 11 -43 -36 vvcurveto
          -65 -112 rmoveto
          hintmask 01011101
          -30 -31 -43 -17 -41 hhcurveto
          -62 -66 39 69 60 29 43 49 16 hvcurveto
          57 -66 55 -56 53 -58 rrcurveto
          endchar
        </CharString>
        <CharString name="aring">
          -44 callsubr
          53 44 77 44 69 callsubr
          22 57 69 58 -31 112 hintmask 0101111101000000
          -107 callsubr
          hintmask 1010111110000000
          -98 callsubr
          -48 578 -21 callgsubr
        </CharString>
        <CharString name="asciicircum">
          -245 68 callsubr
          170 673 -95 callgsubr
        </CharString>
        <CharString name="asciitilde">
          -104 201 -21 25 80 26 -20 hstem
          429 293 rmoveto
          -22 18 rlineto
          -24 -17 -26 -2 -22 -58 -87 9 -34 hhcurveto
          -63 -38 -71 -26 hvcurveto
          23 -17 rlineto
          17 13 9 8 33 42 121 -9 28 hhcurveto
          70 28 86 11 hvcurveto
          endchar
        </CharString>
        <CharString name="asterisk">
          -143 390 -21 22 -21 334 -20 hstemhm
          hintmask 10100000
          391 500 rmoveto
          -54 11 -18 12 -48 15 42 16 26 8 44 12 rrcurveto
          1 3 8 1 3 vhcurveto
          -22 28 -10 17 -13 24 rrcurveto
          -3 -2 1 1 -6 hvcurveto
          -25 -28 -19 -17 -39 -33 6 45 8 31 10 38 -2 4 -1 5 -2 2 rrcurveto
          -2 -15 -11 0 -17 hhcurveto
          -20 -7 0 2 -18 hvcurveto
          -5 -10 14 -44 3 -25 8 -47 rlinecurve
          -56 51 -11 10 -11 13 -13 1 rcurveline
          -13 -28 -14 -15 -22 -26 8 -12 rcurveline
          47 -11 4 -3 56 -20 -38 -14 -33 -11 -43 -11 rrcurveto
          -3 -3 -7 -2 vvcurveto
          23 -27 9 -17 14 -28 rrcurveto
          3 4 -1 3 hhcurveto
          25 28 15 13 45 39 -10 -58 -4 -28 -12 -37 5 -5 rcurveline
          hintmask 01100000
          1 20 10 0 16 hhcurveto
          hintmask 10100000
          18 5 0 -1 21 hvcurveto
          7 5 -9 29 -7 22 -9 69 rlinecurve
          41 -32 23 -20 28 -28 rrcurveto
          2 3 2 3 hhcurveto
          11 31 11 16 22 29 rrcurveto
          endchar
        </CharString>
        <CharString name="at">
          128 -101 72 103 72 184 59 88 71 hstem
          52 97 72 73 287 95 vstem
          392 229 rmoveto
          -37 -9 -22 -46 -34 hhcurveto
          -14 -19 23 31 54 38 76 60 11 10 -2 -4 4 hvcurveto
          170 -312 rmoveto
          -10 19 rlineto
          -20 -30 -82 -40 -110 hhcurveto
          -108 -98 62 147 142 88 155 166 126 52 -94 -86 -76 -34 -76 -46 -22 -7 14 14 7 1 14 3 14 hvcurveto
          34 148 rlineto
          23 -22 -44 10 -32 hhcurveto
          -90 -101 -77 -119 -79 44 -41 40 34 38 29 45 22 hvcurveto
          -42 25 -31 48 122 82 109 118 119 -84 128 -188 -245 -107 -216 -152 -171 134 -110 159 109 93 53 25 26 vhcurveto
          endchar
        </CharString>
        <CharString name="atilde">
          -44 callsubr
          80 99 -85 85 -85 99 12 -20 10 callgsubr
          hintmask 0101100111000000
          -107 callsubr
          hintmask 1010010111000000
          -98 callsubr
          83 517 -35 callsubr
          hintmask 1010001011000000
          -73 callsubr
          hintmask 1010100111000000
          -50 callgsubr
        </CharString>
        <CharString name="b">
          28 72 callgsubr
          94 104 269 117 hintmask 10111100
          201 82 rmoveto
          -67 41 60 -26 63 hhcurveto
          94 125 68 181 122 -68 115 -152 -70 -58 -39 -56 -38 hvcurveto
          -3 2 rlineto
          1 16 2 21 57 113 1 12 43 vvcurveto
          16 3 71 callgsubr
          -44 41 callgsubr
          -50 76 callsubr
          20 -2 -14 17 hvcurveto
          5 -4 11 -14 1 -14 rrcurveto
          2 -44 2 -24 -110 vvcurveto
          -230 vlineto
          -87 -2 -13 -23 vvcurveto
          -13 vlineto
          -27 -6 -13 -10 -9 vhcurveto
          -10 -10 -21 -1 -19 hhcurveto
          -3 -4 rlineto
          hintmask 01111100
          -2 -34 -7 callsubr
          1 26 84 3 26 hhcurveto
          46 hlineto
          6 17 rlineto
          -5 15 -7 21 27 vvcurveto
          269 155 rmoveto
          hintmask 10111100
          7 callgsubr
        </CharString>
        <CharString name="backslash">
          95 callsubr
          429 -53 rmoveto
          -44 89 -43 114 -36 99 -66 184 rcurveline
          -24 67 -43 115 -18 83 -3 4 rcurveline
          -118 -4 hlineto
          42 -83 41 -115 25 -67 67 -184 rcurveline
          36 -99 41 -114 21 -89 3 -4 rcurveline
          118 hlineto
          endchar
        </CharString>
        <CharString name="bar">
          -324 -93 -21 882 -20 hstem
          87 95 vstem
          76 -114 37 callgsubr
          115 98 vvcurveto
          308 vlineto
          66 0 116 12 82 28 callsubr
          -82 0 -116 -66 vvcurveto
          -308 vlineto
          -98 -2 -115 -10 -89 vhcurveto
          endchar
        </CharString>
        <CharString name="braceleft">
          72 callsubr
          97 101 -101 155 vstem
          251 760 rmoveto
          -133 -21 -58 -84 hvcurveto
          -28 2 -77 -40 vvcurveto
          -47 0 -81 -72 -3 vhcurveto
          -30 vlineto
          71 -3 1 -76 -49 -38 -2 -81 -29 vvcurveto
          -84 21 -58 133 vhcurveto
          2 31 rlineto
          -50 6 -5 39 47 25 2 83 35 vvcurveto
          83 -29 67 -105 17 vhcurveto
          105 17 29 67 83 35 -2 83 25 vvcurveto
          47 5 39 50 6 vhcurveto
          endchar
        </CharString>
        <CharString name="braceright">
          72 callsubr
          38 155 -101 101 vstem
          37 729 rmoveto
          50 -6 5 -39 -47 -25 -2 -83 -35 vvcurveto
          -83 29 -67 105 -17 vhcurveto
          -105 -17 -29 -67 -83 -35 2 -83 -25 vvcurveto
          -47 -5 -39 -50 -6 vhcurveto
          2 -31 rlineto
          133 21 58 84 hvcurveto
          29 -2 81 38 vvcurveto
          49 1 76 71 3 vhcurveto
          30 vlineto
          -72 3 0 81 47 40 2 77 28 vvcurveto
          84 -21 58 -133 vhcurveto
          endchar
        </CharString>
        <CharString name="bracketleft">
          -286 -80 -21 856 -20 hstem
          88 103 vstem
          277 755 rmoveto
          -1 -23 -77 -5 -23 hhcurveto
          -76 hlineto
          -2 -4 rlineto
          12 -82 0 -116 -66 vvcurveto
          -270 vlineto
          -98 -1 -115 -11 -89 vhcurveto
          -22 callsubr
          76 hlineto
          23 77 -5 -1 23 hvcurveto
          1 4 -2 38 6 callsubr
          -15 -28 0 10 -9 hvcurveto
          -11 8 -11 11 -3 100 callgsubr
          113 95 vvcurveto
          211 vlineto
          96 0 47 70 callsubr
          3 37 10 11 12 9 rrcurveto
          9 9 28 1 15 hhcurveto
          5 4 2 38 rlineto
          endchar
        </CharString>
        <CharString name="bracketright">
          -285 -80 -21 856 -20 hstem
          117 103 vstem
          30 751 rmoveto
          2 -38 -41 callsubr
          15 28 -1 -9 9 hvcurveto
          12 -9 10 -11 3 -37 rrcurveto
          3 -37 0 -47 -96 vvcurveto
          -211 vlineto
          -95 -1 -113 -2 -31 vhcurveto
          -3 -38 -11 -11 106 callsubr
          -10 -9 -28 0 -15 18 callgsubr
          -7 callsubr
          1 23 77 5 23 hhcurveto
          76 hlineto
          84 callgsubr
          -11 89 -1 115 98 vvcurveto
          270 vlineto
          66 0 116 12 82 vhcurveto
          26 callgsubr
          -76 hlineto
          -23 -77 5 1 -23 hvcurveto
          endchar
        </CharString>
        <CharString name="brokenbar">
          -320 -93 -21 882 -20 hstem
          89 95 vstem
          78 380 37 callgsubr
          30 69 vvcurveto
          33 vlineto
          37 0 40 12 82 28 callsubr
          -82 0 -40 -37 vvcurveto
          -33 vlineto
          -69 -2 -30 -10 -89 vhcurveto
          1 -498 37 callgsubr
          30 69 vvcurveto
          32 vlineto
          37 0 40 12 83 28 callsubr
          -83 0 -40 -37 vvcurveto
          -32 vlineto
          -69 -2 -30 -10 -89 vhcurveto
          endchar
        </CharString>
        <CharString name="bullet">
          -235 156 176 hstem
          91 176 vstem
          91 20 callgsubr
        </CharString>
        <CharString name="c">
          -97 -11 97 callgsubr
          vstem
          448 323 rmoveto
          35 callgsubr
          -144 114 -97 131 -5 callsubr
          endchar
        </CharString>
        <CharString name="caron">
          -317 68 callsubr
          142 535 -85 callgsubr
        </CharString>
        <CharString name="ccedilla">
          -97 100 callsubr
          26 97 callgsubr
          132 74 vstem
          138 -25 callgsubr
          18 28 rlineto
          11 hlineto
          -5 callsubr
          31 hlineto
          35 callgsubr
          -121 81 -88 103 -25 hvcurveto
          -48 -73 -46 callgsubr
        </CharString>
        <CharString name="cedilla">
          -391 100 callsubr
          37 -20 hstem
          143 74 vstem
          1 -25 callgsubr
          25 39 rlineto
          -54 hlineto
          -51 -77 -46 callgsubr
        </CharString>
        <CharString name="cent">
          -78 -139 200 302 214 hstem
          41 113 85 98 vstem
          451 286 rmoveto
          11 107 -3 9 -23 13 -49 14 -50 6 rlinecurve
          2 48 3 49 6 41 56 callgsubr
          -1 -4 5 -41 4 -50 1 -49 rlinecurve
          -112 -18 -86 -78 -137 vvcurveto
          -111 88 -79 110 -17 vhcurveto
          -2 -45 -3 -44 -5 -39 93 callsubr
          -6 40 -3 44 -2 45 rlinecurve
          49 9 44 20 22 16 15 28 rcurveline
          29 callgsubr
          68 75 83 44 76 94 54 callsubr
          endchar
        </CharString>
        <CharString name="circumflex">
          -359 68 callsubr
          113 673 -95 callgsubr
        </CharString>
        <CharString name="colon">
          -338 -11 130 206 55 callgsubr
          389 -37 callsubr
          -336 vmoveto
          -104 callsubr
        </CharString>
        <CharString name="comma">
          -45 callsubr
        </CharString>
        <CharString name="copyright">
          124 52 59 73 66 210 66 69 59 hstem
          55 65 68 83 326 65 vstem
          419 418 rmoveto
          6 -5 rlineto
          47 hlineto
          8 80 -1 7 rlineto
          15 -40 -50 11 -26 hhcurveto
          -115 -60 -78 -95 -100 69 -69 104 36 36 12 19 33 hvcurveto
          7 33 -9 30 rlineto
          -27 -36 -33 -1 -27 hhcurveto
          -52 -45 37 68 35 9 26 12 16 hvcurveto
          18 12 31 10 18 hhcurveto
          31 31 -7 -35 4 hvcurveto
          -61 236 -52 callsubr
        </CharString>
        <CharString name="currency">
          3 6 -21 31 79 268 78 32 -20 hstem
          85 80 266 80 vstem
          53 40 rmoveto
          54 -55 73 71 rlineto
          -28 42 36 -12 41 hhcurveto
          42 39 14 26 36 hvcurveto
          74 -71 56 55 -73 72 rlineto
          27 38 11 36 42 vvcurveto
          43 -12 36 -27 39 vhcurveto
          71 73 -55 54 -73 -71 rlineto
          27 -37 -37 12 -44 hhcurveto
          -43 -36 -12 -27 -40 hvcurveto
          -73 71 -55 -55 75 -72 rlineto
          -29 -39 -11 -36 -41 vvcurveto
          -44 12 -39 27 -35 vhcurveto
          174 251 rmoveto
          75 58 -60 -74 -75 -58 -59 -74 -75 -59 59 75 76 60 58 73 hvcurveto
          endchar
        </CharString>
        <CharString name="d">
          30 72 callgsubr
          37 116 270 105 hintmask 01111100
          420 -3 rmoveto
          2 32 37 1 36 hhcurveto
          24 29 -2 -2 22 54 callgsubr
          -16 -21 1 10 -11 hvcurveto
          -9 7 -4 8 -3 24 rrcurveto
          -2 47 -2 10 113 vvcurveto
          218 vlineto
          107 2 20 41 vvcurveto
          16 2 71 callgsubr
          -37 41 callgsubr
          -57 hlineto
          -9 callgsubr
          -33 vlineto
          -19 callgsubr
          24 16 -2 -15 19 hvcurveto
          4 -4 11 -14 1 -13 rrcurveto
          3 -33 0 -17 -84 vvcurveto
          -39 0 -41 2 -39 vhcurveto
          -2 -4 rlineto
          64 -37 -65 26 -59 hhcurveto
          -98 -127 -68 -180 hvcurveto
          hintmask 10111100
          -123 70 -115 146 66 67 32 61 35 vhcurveto
          -7 callsubr
          -2 -20 -7 -32 -9 vvcurveto
          -260 211 4 callsubr
        </CharString>
        <CharString name="dagger">
          -119 130 -21 305 84 194 -20 hstemhm
          40 245 -96 96 -96 245 hintmask 11110000
          174 109 rmoveto
          126 hlineto
          84 callgsubr
          -11 83 -6 107 92 vvcurveto
          19 14 vlineto
          36 18 -2 -10 77 hvcurveto
          hintmask 11100100
          4 2 rlineto
          104 76 callgsubr
          hintmask 11101000
          -14 hlineto
          1 61 7 64 callgsubr
          8 -74 1 -59 rlinecurve
          -15 hlineto
          -35 -18 0 12 -78 hvcurveto
          hintmask 11110000
          -3 -2 rlineto
          -104 77 callgsubr
          hintmask 11101000
          15 -19 hlineto
          -92 -7 -107 -10 -83 vhcurveto
          endchar
        </CharString>
        <CharString name="daggerdbl">
          -87 -50 -21 194 78 218 79 194 -20 hstemhm
          56 250 -106 106 -106 250 hintmask 11110010
          190 -71 rmoveto
          126 hlineto
          2 4 -8 56 -6 68 -1 66 rlinecurve
          12 hlineto
          36 18 0 -13 77 hvcurveto
          4 2 rlineto
          100 vlineto
          -4 2 rlineto
          -12 -77 -18 -1 -36 hhcurveto
          hintmask 11111000
          -9 218 9 hlineto
          36 18 0 -12 77 hvcurveto
          hintmask 11110010
          4 2 rlineto
          99 76 callgsubr
          -12 hlineto
          1 61 5 64 callgsubr
          6 -74 1 -59 rlinecurve
          -13 hlineto
          -35 -18 0 12 -78 hvcurveto
          hintmask 11111000
          -3 -2 rlineto
          -99 77 callgsubr
          hintmask 11110100
          10 -218 -10 hlineto
          -35 -18 0 13 -78 hvcurveto
          hintmask 11111000
          -3 -2 rlineto
          -100 vlineto
          3 -2 rlineto
          12 78 18 1 35 hhcurveto
          12 hlineto
          -1 -66 -6 -68 -7 -56 rrcurveto
          endchar
        </CharString>
        <CharString name="degree">
          -224 400 60 136 63 hstem
          48 72 128 74 vstem
          184 659 rmoveto
          -88 -48 -59 -71 -67 40 -62 96 94 44 59 67 72 -47 61 -91 hvcurveto
          -199 vmoveto
          -42 -22 32 38 35 19 31 44 44 21 -33 -37 -37 -21 -29 -43 hvcurveto
          endchar
        </CharString>
        <CharString name="dieresis">
          -373 546 85 callgsubr
          -35 12 callgsubr
          vstem
          -35 610 rmoveto
          -35 29 -29 35 33 33 29 35 -101 callgsubr
        </CharString>
        <CharString name="divide">
          -66 -11 130 63 82 61 85 callgsubr
          209 130 vstem
          69 264 40 callsubr
          405 60 callgsubr
          -266 125 -37 callsubr
          -336 vmoveto
          -104 callsubr
        </CharString>
        <CharString name="dollar">
          -58 -114 189 504 189 hstem
          60 113 47 102 58 90 callsubr
          173 509 rmoveto
          45 32 25 79 37 55 -9 -56 6 vhcurveto
          5 -5 rlineto
          48 hlineto
          14 99 -4 11 -36 16 -36 13 -51 5 rlinecurve
          1 39 3 38 5 34 56 callgsubr
          -1 -4 5 -33 3 -39 2 -38 rlinecurve
          -93 -10 -69 -47 -102 vvcurveto
          -115 74 -47 106 -39 vhcurveto
          71 -25 69 -25 -81 vvcurveto
          -51 -37 -37 -90 -89 -43 34 74 -7 vhcurveto
          -5 6 rlineto
          -45 hlineto
          -17 -127 4 -13 52 -23 49 -17 68 -7 rlinecurve
          -2 -39 -2 -38 -4 -35 93 callsubr
          -5 36 -3 38 -2 39 rlinecurve
          85 13 91 51 109 vvcurveto
          126 -89 58 -90 32 vhcurveto
          -101 35 -44 27 55 vvcurveto
          endchar
        </CharString>
        <CharString name="dotlessi">
          39 callgsubr
          464 -97 callgsubr
          endchar
        </CharString>
        <CharString name="dotlessj">
          -315 83 callsubr
          724 -20 hstem
          91 109 vstem
          17 418 -87 callgsubr
          endchar
        </CharString>
        <CharString name="e">
          -86 6 callgsubr
          -99 callsubr
          endchar
        </CharString>
        <CharString name="eacute">
          -72 callgsubr
          -61 119 -99 callgsubr
        </CharString>
        <CharString name="ecircumflex">
          -86 6 callgsubr
          204 -20 -99 callsubr
          -14 279 -95 callgsubr
        </CharString>
        <CharString name="edieresis">
          -86 6 callgsubr
          74 49 callsubr
          36 112 -33 12 callgsubr
          hintmask 11111010
          -103 callgsubr
          hintmask 11110110
          -155 213 rmoveto
          -35 29 -29 35 33 33 29 35 -101 callgsubr
        </CharString>
        <CharString name="egrave">
          -72 callgsubr
          64 122 -94 callsubr
        </CharString>
        <CharString name="eight">
          -22 -11 84 247 79 185 81 hstemhm
          55 116 -82 116 162 116 -82 82 -82 116 hintmask 11101100
          283 41 callsubr
          -115 -79 -59 -105 -79 36 -38 41 -15 hvcurveto
          -4 vlineto
          hintmask 11110001
          -75 -28 -36 -70 -81 vvcurveto
          -97 56 -100 174 175 57 101 96 73 -35 80 -86 26 vhcurveto
          10 4 rlineto
          hintmask 11110010
          38 15 39 37 79 vvcurveto
          108 -87 57 -113 vhcurveto
          1 -345 rmoveto
          85 32 -77 -64 -71 -56 -35 -57 -58 -59 36 72 60 28 79 85 hvcurveto
          hintmask 11101100
          83 184 rmoveto
          -58 -34 -47 -47 -49 -32 37 70 52 40 26 40 41 41 -27 -53 vhcurveto
          endchar
        </CharString>
        <CharString name="ellipsis">
          85 -11 85 callgsubr
          57 130 87 130 87 130 cntrmask 01110000
          57 53 -37 callsubr
          217 hmoveto
          -105 callgsubr
          217 hmoveto
          -104 callsubr
        </CharString>
        <CharString name="emdash">
          189 82 callgsubr
          78 280 rmoveto
          -16 -82 rlineto
          643 hlineto
          15 82 rlineto
          endchar
        </CharString>
        <CharString name="endash">
          -49 82 callgsubr
          78 51 callgsubr
        </CharString>
        <CharString name="equal">
          -107 122 82 70 82 hstem
          86 356 8 callsubr
          -329 -152 8 callsubr
          endchar
        </CharString>
        <CharString name="eth">
          -33 -11 82 318 86 265 -20 hstem
          36 120 229 127 vstem
          394 436 rmoveto
          28 -32 -46 11 -41 hhcurveto
          -154 -85 -112 -131 -122 72 46 callsubr
          173 62 142 160 122 -29 117 -61 87 hvcurveto
          91 42 -31 54 -100 -40 -32 34 -28 23 -43 10 rlinecurve
          -31 -39 17 -7 26 -18 19 -32 rlinecurve
          -111 -46 31 -54 111 44 27 -41 16 -52 10 -59 rlinecurve
          -122 -365 rmoveto
          -77 -39 86 78 76 31 78 80 74 44 -60 -103 -75 -34 -80 -79 hvcurveto
          endchar
        </CharString>
        <CharString name="exclam">
          -325 -11 130 567 -20 hstemhm
          65 108 -86 86 -86 108 hintmask 11100000
          191 686 rmoveto
          -122 -36 -4 -9 rlineto
          hintmask 11010000
          3 -41 10 -62 9 -395 6 -4 rcurveline
          75 26 5 7 rlineto
          hintmask 11001000
          11 417 11 22 43 6 1 11 12 vvcurveto
          -130 -630 rmoveto
          -104 callsubr
        </CharString>
        <CharString name="exclamdown">
          -348 -201 -21 567 49 callsubr
          56 108 -86 86 -86 108 hintmask 11001000
          187 -219 rmoveto
          12 -1 11 6 vvcurveto
          hintmask 11010000
          43 -11 22 -11 417 vhcurveto
          -5 7 -75 26 -6 -4 rlineto
          hintmask 11100000
          -9 -395 -10 -62 -3 -41 4 -9 rcurveline
          122 -36 rlineto
          -125 633 rmoveto
          -33 29 -33 35 33 33 33 33 35 -33 29 -33 -35 -29 -29 -35 vhcurveto
          endchar
        </CharString>
        <CharString name="f">
          -258 24 callsubr
          400 70 201 74 hstemhm
          102 106 0 144 hintmask 10111000
          320 405 rmoveto
          64 vlineto
          -5 4 -107 -6 rlineto
          106 vlineto
          49 0 49 67 vhcurveto
          hintmask 10110100
          38 36 -24 -39 3 hvcurveto
          36 hlineto
          12 87 -5 10 rlineto
          28 -39 -36 12 -31 hhcurveto
          hintmask 01111000
          -122 -65 -86 -135 hvcurveto
          -57 vlineto
          -54 -15 -9 callgsubr
          -43 80 callsubr
          54 -166 hlineto
          -146 -4 -21 -17 -16 vhcurveto
          -11 -12 -20 -2 10 callsubr
          79 callgsubr
          -7 callsubr
          hintmask 01111000
          52 callsubr
          hintmask 10111000
          16 60 -3 -1 16 hvcurveto
          hintmask 01111000
          -28 callgsubr
          -12 -24 0 11 -10 hvcurveto
          -11 9 -9 20 -2 20 rrcurveto
          -3 33 -1 26 101 vvcurveto
          142 107 vlineto
          endchar
        </CharString>
        <CharString name="f_i">
          51 0 38 -21 -21 387 72 211 79 hstemhm
          109 106 229 106 hintmask 10111100
          628 -34 callsubr
          0 callgsubr
          -3 12 -2 28 rrcurveto
          -2 87 callsubr
          13 22 vvcurveto
          16 2 48 5 11 vhcurveto
          -6 9 rlineto
          -7 -76 -104 -2 -158 hhcurveto
          80 vlineto
          68 19 63 90 80 30 -26 -43 11 vhcurveto
          46 hlineto
          12 97 -5 10 rlineto
          24 -40 -62 17 -67 hhcurveto
          -160 35 callsubr
          -159 hlineto
          -140 0 -21 -18 -14 vhcurveto
          -47 callsubr
          rlineto
          hintmask 01111100
          -7 callsubr
          hintmask 10111100
          52 callsubr
          hintmask 01111100
          19 72 63 callsubr
          -15 -42 0 11 -14 hvcurveto
          -12 9 0 20 -3 20 rrcurveto
          -3 31 -1 25 94 vvcurveto
          135 180 vlineto
          40 4 -18 -9 2 hvcurveto
          85 callsubr
          -1 -15 -2 -22 49 callgsubr
          -2 -13 -10 47 callsubr
          -23 95 callgsubr
          hintmask 01111100
          -7 callsubr
          hintmask 10111100
          -42 callsubr
          hintmask 01111100
          20 62 -3 -1 20 hvcurveto
          endchar
        </CharString>
        <CharString name="f_l">
          54 0 38 -21 -21 387 75 208 66 -66 79 hstemhm
          109 106 230 106 hintmask 10110110
          445 254 rmoveto
          -92 0 -30 -3 -34 vhcurveto
          -2 -27 -4 -13 -9 47 callsubr
          -23 95 callgsubr
          hintmask 01110110
          -7 callsubr
          hintmask 10110110
          -42 callsubr
          hintmask 01110110
          20 62 63 callgsubr
          -20 -21 2 9 -11 hvcurveto
          -11 8 0 12 -3 29 rrcurveto
          -4 47 -1 20 113 vvcurveto
          188 vlineto
          51 callsubr
          16 1 50 5 11 -6 19 rcurveline
          -8 -54 -12 0 -11 hhcurveto
          hintmask 10101110
          -42 -44 13 -54 hhcurveto
          -169 35 callsubr
          -129 hlineto
          -164 0 -25 -18 -16 vhcurveto
          -47 callsubr
          rlineto
          hintmask 01110110
          -7 callsubr
          hintmask 10110110
          52 callsubr
          hintmask 01110110
          20 70 63 callgsubr
          -16 -41 1 10 -14 hvcurveto
          -11 8 -2 21 -2 20 rrcurveto
          -3 37 -1 30 113 vvcurveto
          105 127 vlineto
          5 5 rlineto
          69 vlineto
          -5 4 -127 -6 rlineto
          80 vlineto
          68 10 63 106 72 42 -17 -49 vhcurveto
          endchar
        </CharString>
        <CharString name="five">
          -58 -11 83 236 89 179 86 hstem
          376 113 vstem
          376 201 rmoveto
          -67 -31 -62 -91 -87 -46 41 54 -2 vhcurveto
          105 callsubr
          -56 hlineto
          -11 -91 1 -10 rlineto
          -49 38 58 -32 98 hhcurveto
          144 101 78 142 143 -101 45 -110 -34 -35 -7 -13 -25 hvcurveto
          20 194 rlineto
          4 1 1 5 vhcurveto
          30 hlineto
          139 10 -3 -49 10 hvcurveto
          6 -5 rlineto
          38 hlineto
          6 7 -15 128 -9 8 rlineto
          -7 -97 -77 -1 -38 hhcurveto
          -100 hlineto
          -6 -8 -32 -319 2 -7 37 -45 rlineto
          10 hlineto
          23 38 49 10 48 hhcurveto
          56 61 -20 -87 hvcurveto
          endchar
        </CharString>
        <CharString name="florin">
          66 -260 73 585 72 196 79 hstem
          398 398 rmoveto
          87 hlineto
          6 5 12 63 105 callsubr
          -88 hlineto
          20 91 rlineto
          52 11 14 53 40 hhcurveto
          36 22 -22 -36 hvcurveto
          46 hlineto
          28 97 -4 10 rlineto
          21 -37 -38 9 -33 hhcurveto
          -103 -73 -91 -142 -31 hvcurveto
          -9 -42 rlineto
          -74 hlineto
          -6 -4 -13 -63 4 -5 rlineto
          74 hlineto
          -61 -306 rlineto
          -96 -19 -35 -183 -85 hhcurveto
          -8 -8 1 5 -8 hvcurveto
          -16 hlineto
          -19 -70 rlineto
          -8 14 11 -1 9 hhcurveto
          176 47 133 123 27 hvcurveto
          endchar
        </CharString>
        <CharString name="four">
          -53 24 callsubr
          203 82 380 -20 hstemhm
          291 109 hintmask 01111000
          72 203 rmoveto
          219 hlineto
          -45 -1 -31 -3 -25 vhcurveto
          -27 -12 -13 -12 -9 vhcurveto
          -10 -11 -39 -5 -21 hhcurveto
          -4 -4 -4 -34 79 callgsubr
          -7 callsubr
          hintmask 01111000
          75 callgsubr
          13 callgsubr
          96 hlineto
          hintmask 10111000
          19 63 1 callgsubr
          hintmask 01111000
          2 4 -2 33 -4 5 rlineto
          -20 -31 6 9 -11 hvcurveto
          -11 9 -12 70 callgsubr
          -4 29 0 18 54 vvcurveto
          71 hlineto
          7 5 11 71 -4 6 rlineto
          -85 114 hlineto
          51 callsubr
          14 0 35 3 18 -12 21 rcurveline
          -8 hlineto
          -105 -9 -34 -45 -154 -227 -72 -129 rlinecurve
          7 -40 rlineto
          259 326 rmoveto
          2 -37 1 -64 -43 vvcurveto
          -112 -164 vlineto
          40 87 84 128 37 41 rrcurveto
          endchar
        </CharString>
        <CharString name="fourinferior">
          -227 0 56 callsubr
          203 -20 hstemhm
          198 69 hintmask 10111000
          38 109 -58 callsubr
        </CharString>
        <CharString name="foursuperior">
          -216 301 56 callsubr
          203 -20 hstemhm
          201 69 hintmask 10111000
          41 410 -58 callsubr
        </CharString>
        <CharString name="fraction">
          -13 40 -21 654 -20 hstem
          -1 19 -89 callsubr
          endchar
        </CharString>
        <CharString name="g">
          -103 -248 82 144 215 -69 69 210 52 -52 71 hstemhm
          25 88 -73 104 172 106 -51 96 hintmask 1011010010000000
          137 132 rmoveto
          -32 -8 -34 -21 -35 vvcurveto
          -27 21 -17 32 -12 vhcurveto
          -1 -3 rlineto
          -57 -17 -41 -47 -56 vvcurveto
          -69 69 -68 143 80 63 21 29 35 vhcurveto
          35 30 17 42 39 vvcurveto
          82 -69 43 -88 10 vhcurveto
          -97 10 rlineto
          -33 4 -14 11 13 vvcurveto
          11 11 19 23 9 vhcurveto
          7 15 -1 8 hhcurveto
          hintmask 1101010100000000
          126 66 77 88 36 -13 45 -21 24 hvcurveto
          1 3 75 -8 5 5 7 75 -5 4 -42 -12 -50 -5 -55 -1 rlinecurve
          hintmask 1100101100000000
          12 -25 -36 7 -35 hhcurveto
          -116 -72 -81 -99 -69 29 -62 68 -27 hvcurveto
          95 57 rmoveto
          -58 -30 54 51 49 27 56 55 59 31 -61 -53 -51 -31 -45 -53 hvcurveto
          35 -222 rmoveto
          hintmask 1101010010000000
          50 -6 54 -12 -50 vvcurveto
          -45 -56 -24 -72 -79 -51 28 38 35 29 41 58 2 vhcurveto
          endchar
        </CharString>
        <CharString name="germandbls">
          24 0 38 -38 60 -50 -21 668 79 hstemhm
          32 181 -105 105 99 44 -44 87 -15 101 -8 107 hintmask 1001011010000000
          108 455 rmoveto
          -72 -15 rlineto
          hintmask 1001101010000000
          -9 callgsubr
          -48 80 callsubr
          hintmask 1001011010000000
          72 -129 hlineto
          -164 -1 -26 -17 -15 vhcurveto
          -11 -12 -21 0 -20 hhcurveto
          -3 -4 rlineto
          hintmask 1001101010000000
          -2 -34 -7 callsubr
          1 18 64 3 18 hhcurveto
          67 hlineto
          18 54 -3 -1 18 hvcurveto
          -28 callgsubr
          -32 -33 4 56 -4 hvcurveto
          -2 30 -1 97 53 vvcurveto
          207 vlineto
          81 10 91 99 38 24 -30 -30 vhcurveto
          -86 -72 -40 -97 vvcurveto
          hintmask 0101101001000000
          -132 165 26 -141 vvcurveto
          -41 -26 -26 -30 -46 -19 34 49 vhcurveto
          105 callsubr
          -37 hlineto
          -4 -113 4 -9 rlineto
          hintmask 0011100101000000
          -17 24 43 -19 43 hhcurveto
          63 95 36 116 hvcurveto
          172 -185 6 90 vvcurveto
          hintmask 1001011010000000
          65 86 40 91 vvcurveto
          66 -59 65 -99 -149 -70 -101 -151 vhcurveto
          endchar
        </CharString>
        <CharString name="grave">
          87 callgsubr
          193 522 -94 callsubr
        </CharString>
        <CharString name="greater">
          96 callgsubr
          252 238 rmoveto
          -67 -47 -46 -28 -72 -42 rrcurveto
          -7 vlineto
          15 -61 5 -1 92 67 98 64 95 55 rlinecurve
          5 vlineto
          -95 55 -98 64 -92 67 -5 -1 rcurveline
          -14 -61 rlineto
          -7 vlineto
          72 -41 45 -29 67 -47 rrcurveto
          endchar
        </CharString>
        <CharString name="guillemotleft">
          -62 -32 callsubr
          195 10 -54 callgsubr
          endchar
        </CharString>
        <CharString name="guillemotright">
          -62 57 callsubr
          250 411 -18 callgsubr
          -205 -10 -18 callgsubr
          endchar
        </CharString>
        <CharString name="guilsinglleft">
          -262 -32 callsubr
          endchar
        </CharString>
        <CharString name="guilsinglright">
          -262 57 callsubr
          50 411 rmoveto
          58 45 callsubr
          -57 -59 4 -10 rcurveline
          98 hlineto
          8 4 31 50 34 43 67 83 rlinecurve
          -67 84 -34 43 -31 50 -8 4 rcurveline
          -98 hlineto
          endchar
        </CharString>
        <CharString name="h">
          34 43 callgsubr
          102 callsubr
          92 106 234 110 hintmask 10111100
          426 -3 rmoveto
          2 29 32 1 33 hhcurveto
          hintmask 01111100
          33 35 -2 -2 28 hvcurveto
          hintmask 10111100
          2 -13 callgsubr
          -21 -20 103 callgsubr
          -8 7 -10 16 30 vvcurveto
          121 vlineto
          28 0 51 -4 35 vhcurveto
          95 -12 -81 43 -84 hhcurveto
          -74 -57 -57 -48 -32 hvcurveto
          -3 2 rlineto
          2 20 1 48 55 60 3 45 34 vvcurveto
          18 1 57 5 12 vhcurveto
          -6 19 -35 -5 rlineto
          -4 -26 -38 41 callgsubr
          -56 76 callsubr
          25 -3 -15 80 callgsubr
          10 -13 1 -13 rrcurveto
          3 -41 0 -33 -104 vvcurveto
          -220 vlineto
          -86 -1 -28 -3 -32 49 callgsubr
          -6 -13 -11 65 callgsubr
          hintmask 01111100
          -7 callsubr
          hintmask 10111100
          -42 callsubr
          hintmask 01111100
          19 64 -3 -1 19 hvcurveto
          hintmask 10111100
          -3 callsubr
          -2 28 rrcurveto
          -4 45 0 9 136 vvcurveto
          32 56 68 78 43 39 21 callsubr
          -55 -3 -51 vhcurveto
          hintmask 01111100
          -1 -21 -3 -33 -5 -17 rrcurveto
          endchar
        </CharString>
        <CharString name="hyphen">
          27 callsubr
        </CharString>
        <CharString name="i">
          -287 24 callsubr
          549 49 callsubr
          106 110 hintmask 01110000
          290 -34 callsubr
          0 callgsubr
          -3 70 callgsubr
          -2 25 -2 10 52 vvcurveto
          112 -65 callsubr
          78 callsubr
          -113 vlineto
          -42 -1 -14 -2 -19 -62 callgsubr
          hintmask 10110000
          1 -4 rlineto
          hintmask 01110000
          -42 callsubr
          hintmask 10110000
          -26 callsubr
          hintmask 01110000
          -203 617 rmoveto
          -104 callsubr
        </CharString>
        <CharString name="iacute">
          39 callgsubr
          680 -20 hstemhm
          hintmask 01100000
          -105 callsubr
          hintmask 10100000
          -7 callsubr
          hintmask 01100000
          -42 callsubr
          hintmask 10100000
          -26 callsubr
          hintmask 01100000
          -220 523 -99 callgsubr
        </CharString>
        <CharString name="icircumflex">
          39 callgsubr
          679 -97 callgsubr
          hintmask 01110000
          -139 683 -95 callgsubr
        </CharString>
        <CharString name="idieresis">
          39 callgsubr
          549 49 callsubr
          12 130 -36 106 -40 130 hintmask 01101000
          -105 callsubr
          hintmask 10110100
          -7 callsubr
          hintmask 01110100
          -42 callsubr
          hintmask 10110100
          -26 callsubr
          hintmask 01110100
          -276 617 rmoveto
          -35 29 -29 35 33 33 29 35 -101 callgsubr
        </CharString>
        <CharString name="igrave">
          39 callgsubr
          680 -97 callgsubr
          hintmask 01110000
          -71 526 -94 callsubr
        </CharString>
        <CharString name="ij">
          -62 83 callsubr
          281 -21 549 49 callsubr
          85 131 -110 110 113 125 -109 109 hintmask 11110100
          290 -34 callsubr
          0 callgsubr
          -3 70 callgsubr
          -2 25 -2 10 52 vvcurveto
          112 -65 callsubr
          hintmask 11101100
          78 callsubr
          -113 vlineto
          -42 -1 -14 -2 -19 -68 callgsubr
          -7 callsubr
          -42 callsubr
          -26 callsubr
          hintmask 11110010
          -203 617 -37 callsubr
          186 -195 -87 callgsubr
          hintmask 11110100
          58 161 rmoveto
          -104 callsubr
        </CharString>
        <CharString name="j">
          -316 83 callsubr
          715 94 0 49 callsubr
          75 125 -109 109 hintmask 11001000
          17 418 -87 callgsubr
          hintmask 10110000
          58 161 rmoveto
          -104 callsubr
        </CharString>
        <CharString name="k">
          -51 0 38 -24 -21 747 -20 hstemhm
          92 106 hintmask 10110000
          17 694 rmoveto
          -19 callgsubr
          21 21 -1 -15 3 callsubr
          -5 8 -13 1 -14 rrcurveto
          2 -43 1 -35 -110 vvcurveto
          -220 vlineto
          -80 -1 -26 -2 -30 vhcurveto
          -2 -27 -3 -13 -10 47 callsubr
          -23 42 callgsubr
          -7 callsubr
          -42 callsubr
          20 62 -3 -1 20 hvcurveto
          30 callgsubr
          -21 0 callgsubr
          -4 12 -1 28 rrcurveto
          -2 32 -2 52 45 vvcurveto
          6 6 159 -196 rlineto
          hintmask 01110000
          -23 19 26 -21 29 hhcurveto
          40 41 0 3 33 hvcurveto
          hintmask 10110000
          2 89 callgsubr
          -3 4 -60 4 -28 25 -43 53 rlinecurve
          -130 160 22 20 36 33 46 46 39 23 rlinecurve
          13 8 20 4 10 2 5 5 rcurveline
          34 vlineto
          105 callsubr
          -3 -23 -23 -3 -22 hhcurveto
          -61 hlineto
          -26 -26 3 3 -22 callgsubr
          30 -5 16 -8 -11 vvcurveto
          -7 -3 -6 -8 -8 vhcurveto
          -106 -99 rlineto
          191 vlineto
          113 3 22 43 vvcurveto
          16 2 50 5 11 vhcurveto
          -6 19 -36 -5 rlineto
          -4 -26 -38 41 callgsubr
          -50 hlineto
          -9 callgsubr
          endchar
        </CharString>
        <CharString name="l">
          -295 24 callsubr
          740 -20 hstemhm
          96 106 hintmask 01110000
          280 -34 callsubr
          0 callgsubr
          -3 70 callgsubr
          -2 25 -2 10 52 vvcurveto
          388 -65 callsubr
          78 callsubr
          -389 vlineto
          -42 -1 -14 -2 -19 -62 callgsubr
          hintmask 10110000
          1 -4 rlineto
          hintmask 01110000
          -42 callsubr
          hintmask 10110000
          -26 callsubr
          endchar
        </CharString>
        <CharString name="less">
          96 callgsubr
          161 243 rmoveto
          67 47 45 29 72 41 rrcurveto
          7 vlineto
          -14 61 -5 1 -92 -67 -98 -64 -95 -55 rlinecurve
          -5 vlineto
          95 -55 98 -64 92 -67 5 1 rcurveline
          15 61 rlineto
          7 vlineto
          -72 42 -46 28 -67 47 rrcurveto
          endchar
        </CharString>
        <CharString name="logicalnot">
          31 259 82 hstemhm
          458 93 vstemhm
          71 341 rmoveto
          -82 387 vlineto
          hintmask 11000000
          -142 93 224 vlineto
          endchar
        </CharString>
        <CharString name="m">
          371 43 callgsubr
          hstemhm
          106 106 234 109 216 109 hintmask 10111100
          30 418 rmoveto
          -19 callgsubr
          21 22 -49 callgsubr
          -4 7 23 callgsubr
          1 -17 -56 vvcurveto
          -83 89 callsubr
          -15 -2 -22 49 callgsubr
          -7 -12 -9 47 callsubr
          -19 -2 -21 hhcurveto
          -3 34 callgsubr
          rlineto
          hintmask 01111100
          -7 callsubr
          hintmask 10111100
          -42 callsubr
          hintmask 01111100
          19 65 63 callsubr
          -16 -14 0 9 -11 hvcurveto
          -15 12 -9 11 -3 28 5 callgsubr
          92 vlineto
          34 59 67 88 36 31 -19 -34 12 vhcurveto
          8 -28 0 -47 -27 vvcurveto
          -24 -3 -78 -1 -33 vhcurveto
          -1 -26 -5 -14 34 callsubr
          -11 -11 -21 0 -21 hhcurveto
          -4 34 callgsubr
          rlineto
          hintmask 01111100
          -22 callsubr
          hintmask 10111100
          -42 callsubr
          hintmask 01111100
          19 64 63 callsubr
          -20 -19 1 10 -12 hvcurveto
          -11 10 -6 11 28 vvcurveto
          125 vlineto
          29 0 30 -3 29 vhcurveto
          33 15 48 44 69 hhcurveto
          36 33 -19 -34 10 hvcurveto
          6 -28 2 -47 -27 vvcurveto
          -26 -3 -83 -2 -36 vhcurveto
          hintmask 01111100
          -1 -21 -4 -33 -4 -17 7 -20 rcurveline
          hintmask 10111100
          2 33 37 1 40 hhcurveto
          hintmask 01111100
          27 29 -2 -2 24 hvcurveto
          hintmask 10111100
          2 4 12 callsubr
          -21 -24 1 13 -9 hvcurveto
          -7 10 -9 9 27 vvcurveto
          125 vlineto
          38 0 40 -6 35 vhcurveto
          98 -18 -78 41 -82 hhcurveto
          -86 -48 -57 -49 -30 hvcurveto
          66 -25 -63 40 -73 hhcurveto
          -82 -45 -46 -54 -30 hvcurveto
          -3 2 rlineto
          19 5 36 5 13 vhcurveto
          -6 19 -35 -5 rlineto
          -4 -26 -39 41 callgsubr
          -50 hlineto
          -4 -3 rlineto
          endchar
        </CharString>
        <CharString name="minus">
          -31 82 callgsubr
          87 51 callgsubr
        </CharString>
        <CharString name="mu">
          68 67 callgsubr
          121 108 212 106 hintmask 11011100
          184 -125 rmoveto
          11 38 3 39 9 79 3 2 rcurveline
          -33 15 55 -11 32 hhcurveto
          59 42 22 56 27 hvcurveto
          -3 -29 -4 -14 -4 -17 6 -10 rcurveline
          hintmask 10111100
          2 33 38 1 38 hhcurveto
          27 29 -2 -2 24 54 callgsubr
          -21 -23 1 10 -11 hvcurveto
          -9 7 -3 12 -3 30 rrcurveto
          -1 87 callsubr
          11 22 -8 callgsubr
          -35 -60 -45 callgsubr
          21 22 -49 callgsubr
          -3 6 -14 2 -14 rrcurveto
          3 -28 1 -16 -56 vvcurveto
          -110 vlineto
          hintmask 11011100
          -34 -8 -43 -55 -60 hhcurveto
          -44 -38 31 62 -12 hvcurveto
          -5 28 -2 40 29 29 3 56 36 -8 callgsubr
          -26 -38 59 callgsubr
          -3 -3 rlineto
          -34 vlineto
          3 -4 rlineto
          21 21 -1 -15 14 hvcurveto
          6 -6 5 -10 -16 vvcurveto
          1 -18 2 -79 -52 vvcurveto
          -78 vlineto
          -53 -18 -118 -37 -68 vhcurveto
          -6 vlineto
          -17 18 36 -8 50 hhcurveto
          9 hlineto
          endchar
        </CharString>
        <CharString name="multiply">
          -128 94 -21 332 -20 hstem
          347 73 rmoveto
          51 51 -114 115 114 114 -52 52 -114 -114 -113 112 -52 -52 113 -112 -113 -113 52 -52 113 113 rlineto
          endchar
        </CharString>
        <CharString name="n">
          46 43 callgsubr
          hstemhm
          106 107 232 109 hintmask 10111000
          -55 callsubr
          hintmask 01111000
          1 -4 79 callgsubr
          -33 callgsubr
          55 hlineto
          hintmask 01111000
          -26 callsubr
          hintmask 10111000
          -38 callgsubr
          hintmask 01111000
          88 callgsubr
          hintmask 10111000
          2 28 33 1 32 hhcurveto
          hintmask 01111000
          32 36 -2 -2 28 hvcurveto
          hintmask 10111000
          2 -13 callgsubr
          -21 -16 2 8 -15 hvcurveto
          -10 5 -9 15 30 vvcurveto
          16 callgsubr
          endchar
        </CharString>
        <CharString name="nine">
          -42 -11 83 168 89 257 79 hstemhm
          46 110 219 115 -98 98 hintmask 11110100
          391 303 rmoveto
          1 -7 0 -5 -5 vvcurveto
          -113 -44 -101 -97 -35 -56 13 38 -25 vhcurveto
          -38 hlineto
          -15 -83 rlineto
          -38 43 86 -13 47 hhcurveto
          191 41 210 157 188 -59 121 -166 -159 -60 -112 -103 -104 62 -106 137 62 55 22 42 25 hvcurveto
          -120 25 rmoveto
          -90 -21 73 55 75 39 54 71 hvcurveto
          hintmask 11111000
          84 25 -77 -60 -71 -35 -49 -73 hvcurveto
          endchar
        </CharString>
        <CharString name="ntilde">
          46 43 callgsubr
          79 9 callsubr
          106 107 232 109 hintmask 1011001110000000
          -55 callsubr
          hintmask 0111001110000000
          -7 callsubr
          hintmask 1011001110000000
          -33 callgsubr
          55 hlineto
          hintmask 0111001110000000
          -26 callsubr
          hintmask 1011001110000000
          -38 callgsubr
          hintmask 0111001110000000
          88 callgsubr
          hintmask 1011001110000000
          2 28 33 1 32 hhcurveto
          hintmask 0111001110000000
          32 36 -2 -2 28 hvcurveto
          hintmask 1010101110000000
          2 -13 callgsubr
          -21 -18 103 callgsubr
          -8 8 -9 11 -3 30 rrcurveto
          16 callgsubr
          258 258 -32 callgsubr
        </CharString>
        <CharString name="numbersign">
          32 21 -21 207 83 89 82 193 -20 hstem
          277 hmoveto
          66 callsubr
          114 hlineto
          15 83 rlineto
          -111 hlineto
          19 89 rlineto
          108 hlineto
          15 82 rlineto
          -106 19 callsubr
          -94 19 callsubr
          -110 hlineto
          -15 -82 rlineto
          108 hlineto
          -19 -89 rlineto
          -103 hlineto
          -15 -83 rlineto
          100 hlineto
          -16 -71 -19 -72 -20 -60 1 -4 rcurveline
          66 callsubr
          94 hlineto
          -16 -71 -19 -72 -20 -60 rrcurveto
          -3 375 rmoveto
          95 hlineto
          -19 -89 rlineto
          -94 hlineto
          endchar
        </CharString>
        <CharString name="o">
          23 callsubr
          -87 callsubr
          endchar
        </CharString>
        <CharString name="oacute">
          -81 callsubr
          -86 461 -99 callgsubr
        </CharString>
        <CharString name="ocircumflex">
          -81 callsubr
          -5 622 -95 callgsubr
        </CharString>
        <CharString name="odieresis">
          23 callsubr
          75 49 callsubr
          35 119 -18 12 callgsubr
          -19 121 hintmask 11110010
          -96 callgsubr
          hintmask 11101100
          -146 556 rmoveto
          -35 29 -29 35 33 33 29 35 -101 callgsubr
        </CharString>
        <CharString name="oe">
          292 -11 76 170 70 98 72 hstem
          35 119 253 119 vstem
          -10 callsubr
          81 60 28 52 47 hvcurveto
          -53 47 61 -27 73 -40 callsubr
          -68 -61 -26 -56 -49 hvcurveto
          52 -46 -63 30 -79 hhcurveto
          -75 callgsubr
          364 342 13 callsubr
        </CharString>
        <CharString name="ograve">
          -81 callsubr
          91 464 -94 callsubr
        </CharString>
        <CharString name="one">
          -197 24 callsubr
          663 -20 hstemhm
          157 110 hintmask 01110000
          43 491 rmoveto
          3 -4 107 27 rlineto
          4 -29 0 -12 -76 vvcurveto
          -143 vlineto
          -92 -1 -26 -3 -34 vhcurveto
          -2 -27 -12 -13 -10 47 callsubr
          -33 -5 -21 hhcurveto
          -3 34 callgsubr
          rlineto
          hintmask 10110000
          -22 callsubr
          hintmask 01110000
          1 19 64 13 callgsubr
          97 hlineto
          hintmask 10110000
          -26 callsubr
          hintmask 01110000
          30 callgsubr
          -30 6 9 -12 91 callsubr
          -12 70 callgsubr
          -4 46 0 17 113 vvcurveto
          121 vlineto
          51 callsubr
          16 0 40 3 21 -32 9 rcurveline
          -7 hlineto
          -59 -57 -61 -32 -69 -34 -3 -6 rcurveline
          endchar
        </CharString>
        <CharString name="onehalf">
          182 0 78 callgsubr
          302 -20 28 -20 hstemhm
          121 72 455 67 hintmask 10110110
          -83 callsubr
          393 223 -38 callsubr
          hintmask 10110110
          53 callgsubr
          hintmask 01110110
          16 callsubr
          hintmask 10110110
          -31 callgsubr
        </CharString>
        <CharString name="oneinferior">
          -310 18 -21 23 -21 366 -20 hstemhm
          115 72 hintmask 10110000
          47 259 -69 callsubr
          hintmask 01110000
          30 callsubr
          hintmask 10110000
          -82 callsubr
          endchar
        </CharString>
        <CharString name="onequarter">
          159 0 56 callsubr
          504 -20 28 -20 hstemhm
          121 72 395 69 hintmask 01110110
          -83 callsubr
          338 86 rmoveto
          160 hlineto
          hintmask 10110110
          73 callgsubr
          hintmask 01110110
          -3 -27 rlineto
          hintmask 10110110
          42 callsubr
          hintmask 01110110
          73 callsubr
          hintmask 10110110
          -80 callsubr
        </CharString>
        <CharString name="onesuperior">
          -293 318 -21 368 -20 hstem
          125 72 vstem
          57 -86 callsubr
          endchar
        </CharString>
        <CharString name="ordfeminine">
          -215 376 42 -28 -21 137 152 -52 52 hstemhm
          49 64 104 68 hintmask 10101100
          207 445 rmoveto
          -13 -12 -18 -14 -36 hhcurveto
          -14 -14 11 26 46 48 5 56 hvcurveto
          -3 -44 rlineto
          -6 -4 -7 -3 -4 vhcurveto
          7 -42 rmoveto
          -8 -2 -8 -2 -8 vhcurveto
          -19 callgsubr
          19 25 1 22 hhcurveto
          18 15 -1 -1 15 hvcurveto
          -2 33 rlineto
          -22 -19 1 30 hvcurveto
          43 2 24 62 vvcurveto
          59 -37 32 -74 -43 -47 -17 -9 -8 vhcurveto
          -2 -4 5 -56 rlineto
          26 hlineto
          2 3 rlineto
          hintmask 01011100
          26 3 33 -39 callgsubr
          29 22 -5 -57 2 hvcurveto
          -35 -133 0 -93 -50 32 -32 49 34 28 13 24 20 hvcurveto
          endchar
        </CharString>
        <CharString name="ordmasculine">
          -223 369 55 176 58 hstem
          46 68 140 70 vstem
          184 658 rmoveto
          -86 -52 -66 -79 -73 44 -71 95 93 46 68 73 78 -50 70 -90 hvcurveto
          1 -234 rmoveto
          -45 -26 45 45 44 22 42 46 47 25 -45 -45 -45 -24 -41 -45 hvcurveto
          endchar
        </CharString>
        <CharString name="oslash">
          -29 -37 -21 47 69 345 72 37 -20 hstem
          5 callsubr
          vstem
          -53 callgsubr
          -58 17 -58 37 -44 hvcurveto
          -57 -60 -1 -4 75 -66 4 2 54 69 rlineto
          -15 33 40 -9 46 hhcurveto
          164 81 116 122 56 -17 55 -33 43 hvcurveto
          63 63 1 4 -88 64 -4 -3 -47 -63 rlineto
          18 -34 -41 11 -47 hhcurveto
          -114 -320 rmoveto
          -9 25 -4 27 27 vvcurveto
          82 38 87 86 29 24 -12 -18 20 vhcurveto
          -60 -75 -61 -73 -63 -70 rrcurveto
          115 -97 rmoveto
          -27 -23 9 17 -19 hvcurveto
          58 70 61 70 64 72 rrcurveto
          7 -22 4 -24 -23 vvcurveto
          -85 -41 -84 -84 vhcurveto
          endchar
        </CharString>
        <CharString name="otilde">
          23 callsubr
          80 9 callsubr
          5 callsubr
          hintmask 11010111
          -96 callgsubr
          155 574 -30 callsubr
        </CharString>
        <CharString name="p">
          31 45 callgsubr
          hstem
          94 104 273 116 vstem
          201 388 rmoveto
          17 1 31 4 9 -71 callsubr
          22 22 -1 -16 12 hvcurveto
          4 -4 7 -13 1 -14 rrcurveto
          3 -49 1 -21 -110 vvcurveto
          -171 27 callgsubr
          -5 34 callgsubr
          2 -3 rlineto
          19 64 13 callgsubr
          52 hlineto
          19 68 -3 19 hhcurveto
          1 3 -2 35 -3 3 rlineto
          -21 -26 1 11 61 callgsubr
          -3 14 -2 26 rrcurveto
          -3 34 0 28 89 vvcurveto
          49 -1 21 -2 23 vhcurveto
          3 2 rlineto
          -58 38 57 -40 71 hhcurveto
          152 71 121 122 181 -122 62 -94 -62 -63 -25 -64 -42 hvcurveto
          267 -151 rmoveto
          7 callgsubr
        </CharString>
        <CharString name="paragraph">
          27 -124 68 -52 -21 715 68 103 callsubr
          277 76 64 74 hintmask 01101100
          208 -129 rmoveto
          hintmask 10101100
          2 22 88 3 22 hhcurveto
          106 hlineto
          hintmask 01011100
          19 74 -3 -2 -67 callgsubr
          -5 3 rlineto
          -10 -16 1 9 -7 hvcurveto
          -11 8 -10 16 -4 34 rrcurveto
          -2 20 -1 148 79 vvcurveto
          220 vlineto
          51 0 23 3 22 vhcurveto
          5 38 10 9 10 9 rrcurveto
          7 7 5 4 21 hhcurveto
          69 callgsubr
          26 callgsubr
          hintmask 01101100
          -1 -19 -45 -5 -28 hhcurveto
          -133 hlineto
          -35 -61 1 -24 hhcurveto
          -82 -95 -72 -129 -164 144 -39 97 -6 hvcurveto
          -48 vlineto
          -55 -2 -136 -3 -22 vhcurveto
          -5 -38 -10 -13 -10 -6 rrcurveto
          -8 -7 -5 -3 -21 hhcurveto
          -5 -3 -3 -38 rlineto
          138 73 rmoveto
          8 58 1 22 86 vvcurveto
          253 vlineto
          58 0 84 -9 73 vhcurveto
          84 callgsubr
          79 hlineto
          -22 callsubr
          -10 -73 0 -84 -58 vvcurveto
          -253 vlineto
          -73 0 -26 10 -67 vhcurveto
          hintmask 10101100
          -2 -4 rlineto
          -79 hlineto
          endchar
        </CharString>
        <CharString name="parenleft">
          94 callgsubr
          39 120 vstem
          241 771 rmoveto
          -127 -116 -75 -158 -170 vvcurveto
          -170 75 -160 127 -114 vhcurveto
          45 31 rlineto
          5 vlineto
          -119 152 -8 153 103 vvcurveto
          51 2 72 18 73 vhcurveto
          19 78 38 71 50 63 rrcurveto
          5 vlineto
          endchar
        </CharString>
        <CharString name="parenright">
          94 callgsubr
          150 120 vstem
          23 740 rmoveto
          -5 vlineto
          50 -63 38 -71 19 -78 rrcurveto
          18 -73 2 -72 -51 vvcurveto
          -103 -8 -153 -119 -152 vhcurveto
          -5 vlineto
          45 -31 rlineto
          127 114 75 160 170 vvcurveto
          170 -75 158 -127 116 vhcurveto
          endchar
        </CharString>
        <CharString name="percent">
          242 64 callsubr
          40 60 callsubr
          136 60 callsubr
          hintmask 1101011110000000
          195 660 -91 callgsubr
          hintmask 1010111110000000
          446 19 -91 callgsubr
          -510 -40 -89 callsubr
          endchar
        </CharString>
        <CharString name="period">
          -349 -11 85 callgsubr
          57 130 vstem
          57 53 rmoveto
          -104 callsubr
        </CharString>
        <CharString name="periodcentered">
          -6 callgsubr
        </CharString>
        <CharString name="perthousand">
          604 64 callsubr
          43 60 callsubr
          136 60 callsubr
          50 60 callsubr
          hintmask 1101011111100000
          198 660 -91 callgsubr
          hintmask 1010111111100000
          446 19 -91 callgsubr
          360 310 -91 callgsubr
          -870 -40 -89 callsubr
          endchar
        </CharString>
        <CharString name="plus">
          -105 62 -21 157 82 147 -20 hstem
          198 92 vstem
          290 427 rmoveto
          -92 -147 -142 hlineto
          -9 -82 rlineto
          151 -157 92 157 142 hlineto
          10 82 rlineto
          -152 hlineto
          endchar
        </CharString>
        <CharString name="plusminus">
          -131 40 83 160 83 89 -20 hstem
          185 92 vstem
          277 455 rmoveto
          -92 -89 -104 hlineto
          -9 -83 rlineto
          113 -100 92 100 104 hlineto
          10 83 rlineto
          -114 hlineto
          -196 -243 rmoveto
          -12 -83 rlineto
          309 hlineto
          13 83 rlineto
          endchar
        </CharString>
        <CharString name="q">
          27 45 callgsubr
          hstem
          37 114 271 104 vstem
          420 386 rmoveto
          64 -42 -61 25 -62 hhcurveto
          -94 -124 -68 -181 -122 67 -115 152 71 57 40 58 38 hvcurveto
          3 -2 rlineto
          -2 -23 -1 -21 -49 vvcurveto
          -89 0 -28 -3 -34 vhcurveto
          -2 -26 -3 -14 -10 -8 rrcurveto
          -11 -11 -23 81 callgsubr
          -3 -2 -35 1 -3 rlineto
          -20 callgsubr
          52 hlineto
          19 64 -3 19 hhcurveto
          2 3 -2 34 6 callsubr
          -20 -21 0 12 61 callgsubr
          -2 13 -3 27 rrcurveto
          -2 46 -2 20 108 vvcurveto
          171 vlineto
          110 1 21 3 49 vhcurveto
          1 14 7 13 4 4 rrcurveto
          16 12 22 1 22 hhcurveto
          62 callgsubr
          34 vlineto
          -4 3 rlineto
          -18 hlineto
          -32 -59 0 4 -34 hvcurveto
          -35 5 -6 -19 rlineto
          4 -9 5 -31 -17 vvcurveto
          -272 -160 4 callsubr
        </CharString>
        <CharString name="question">
          -171 -11 130 495 72 hstemhm
          123 130 -107 84 40 107 hintmask 11011000
          230 234 rmoveto
          5 72 142 97 123 vvcurveto
          129 -107 31 -57 -56 -87 -20 -45 -26 vhcurveto
          -2 -9 12 -103 rlineto
          38 hlineto
          2 3 rlineto
          55 7 44 47 65 hhcurveto
          27 33 -22 -49 hvcurveto
          -116 -124 -70 -107 vvcurveto
          -15 2 -35 1 -27 vhcurveto
          6 -4 65 16 6 7 rlineto
          hintmask 11101000
          -103 -139 rmoveto
          -104 callsubr
        </CharString>
        <CharString name="questiondown">
          -176 -221 72 495 49 callsubr
          42 107 17 130 -107 84 hintmask 11101000
          189 231 rmoveto
          -5 -72 -142 -97 -123 vvcurveto
          -129 107 -31 57 56 87 20 45 26 vhcurveto
          2 9 -12 103 rlineto
          -38 hlineto
          -2 -3 rlineto
          -55 -7 -44 -47 -65 hhcurveto
          -27 -33 22 49 hvcurveto
          116 124 70 107 vvcurveto
          15 -2 35 -1 27 vhcurveto
          -6 4 -65 -16 -6 -7 rlineto
          hintmask 11110000
          103 139 rmoveto
          35 -29 29 -35 -33 -33 -29 -35 -33 33 -33 33 35 29 33 33 vhcurveto
          endchar
        </CharString>
        <CharString name="quotedbl">
          -253 537 -21 214 -20 hstem
          67 76 57 -3 callgsubr
          205 10 22 callgsubr
          -96 -9 -2 28 callgsubr
          endchar
        </CharString>
        <CharString name="quotedblbase">
          -189 17 callgsubr
          36 0 callsubr
          hintmask 11101000
          83 -117 -54 callsubr
        </CharString>
        <CharString name="quotedblleft">
          -198 50 callsubr
          36 108 -108 124 hintmask 11100100
          316 740 rmoveto
          4 callgsubr
          hintmask 11011000
          -1 callsubr
          -174 hmoveto
          4 callgsubr
          hintmask 11101000
          -1 callsubr
          endchar
        </CharString>
        <CharString name="quotedblright">
          -214 43 callsubr
          63 0 callsubr
          36 0 callsubr
          hintmask 11101000
          88 505 -54 callsubr
        </CharString>
        <CharString name="quoteleft">
          -358 50 callsubr
          hintmask 11010000
          156 740 rmoveto
          4 callgsubr
          hintmask 11100000
          -1 callsubr
          endchar
        </CharString>
        <CharString name="quoteright">
          -374 43 callsubr
          63 0 callsubr
          hintmask 11100000
          88 505 -52 callgsubr
        </CharString>
        <CharString name="quotesinglbase">
          -45 callsubr
        </CharString>
        <CharString name="quotesingle">
          -386 537 -21 214 -20 hstem
          67 -3 callgsubr
          endchar
        </CharString>
        <CharString name="r">
          -153 24 callsubr
          376 99 hstemhm
          106 106 hintmask 01110000
          200 355 rmoveto
          30 3 35 8 25 vhcurveto
          -6 19 -35 -5 rlineto
          -4 -34 -55 0 -29 hhcurveto
          -18 -72 callsubr
          21 22 -49 callgsubr
          -4 7 -14 2 -13 rrcurveto
          85 callsubr
          0 -24 -1 -16 vhcurveto
          -2 -36 -5 -11 -10 47 callsubr
          -22 -1 -22 hhcurveto
          -3 34 callgsubr
          rlineto
          hintmask 10110000
          1 -4 rlineto
          hintmask 01110000
          52 callsubr
          hintmask 10110000
          17 66 -3 -1 17 hvcurveto
          hintmask 01110000
          -28 callgsubr
          -14 -35 103 callgsubr
          -11 9 -4 18 -2 29 rrcurveto
          -1 19 -1 20 51 vvcurveto
          69 vlineto
          42 44 70 61 35 15 -21 -16 4 vhcurveto
          43 hlineto
          12 108 -7 6 rlineto
          14 -17 -44 8 -21 hhcurveto
          -69 -38 -71 -50 -27 hvcurveto
          endchar
        </CharString>
        <CharString name="registered">
          124 52 59 90 30 -30 167 116 48 63 59 hstemhm
          55 65 88 109 -67 67 88 64 128 65 hintmask 1101111011000000
          361 201 rmoveto
          -2 30 rlineto
          -35 -7 19 71 hvcurveto
          39 hlineto
          19 -27 rlineto
          -77 56 14 -18 44 hhcurveto
          10 2 0 2 21 hvcurveto
          29 vlineto
          -35 -40 61 47 -31 hvcurveto
          26 13 27 22 61 vvcurveto
          49 -31 49 -94 vhcurveto
          -136 -34 hlineto
          hintmask 1101110111000000
          37 -2 5 -29 -35 vvcurveto
          -120 vlineto
          hintmask 1101111011000000
          -56 0 -21 -42 -3 vhcurveto
          -31 vlineto
          hintmask 1011111011000000
          123 167 rmoveto
          -7 -7 0 13 hvcurveto
          103 35 vlineto
          29 24 -22 -32 -29 -19 -33 -35 hvcurveto
          7 286 -52 callsubr
        </CharString>
        <CharString name="ring">
          -429 528 44 77 44 hstem
          -10 57 69 58 vstem
          82 693 -21 callgsubr
        </CharString>
        <CharString name="s">
          -166 -11 69 353 64 -70 callgsubr
          endchar
        </CharString>
        <CharString name="scaron">
          -166 -11 69 353 64 204 -20 -70 callgsubr
          -47 261 -85 callgsubr
        </CharString>
        <CharString name="schwa">
          -86 -11 75 95 70 170 76 hstem
          359 112 vstem
          30 171 rmoveto
          -154 24 114 -28 70 hhcurveto
          130 103 99 146 143 -98 98 -140 -72 -67 -28 -25 -32 hvcurveto
          -10 -11 rlineto
          -36 vlineto
          17 -7 rlineto
          19 40 49 12 41 hhcurveto
          114 46 -74 -70 -8 0 -9 -1 -9 hvcurveto
          -82 hlineto
          -73 -69 -2 -72 hhcurveto
          -24 -18 rlineto
          199 -145 rmoveto
          -52 -45 32 40 11 8 12 17 hvcurveto
          46 46 3 46 hhcurveto
          50 hlineto
          -52 -11 -40 -46 -65 hhcurveto
          endchar
        </CharString>
        <CharString name="section">
          -155 -60 79 608 81 hstemhm
          43 77 -20 76 80 76 -20 85 hintmask 11101000
          43 367 rmoveto
          -60 24 -33 64 -60 vhcurveto
          56 -54 69 -48 -63 vvcurveto
          -20 -19 -10 -20 -27 -31 19 38 -14 vhcurveto
          -5 hlineto
          -59 -70 2 -8 rlineto
          -41 28 41 -17 34 hhcurveto
          88 58 80 82 16 -1 17 -11 22 hvcurveto
          hintmask 11010100
          43 34 34 43 45 vvcurveto
          60 -32 33 -64 60 vhcurveto
          -56 54 -69 48 63 vvcurveto
          20 19 10 20 31 35 -21 -36 16 vhcurveto
          5 hlineto
          49 90 -2 8 rlineto
          29 -22 -33 11 -28 hhcurveto
          -100 -66 -80 -84 -16 1 -17 11 -23 hvcurveto
          hintmask 11100100
          -43 -34 -26 -42 -45 vvcurveto
          77 31 rmoveto
          7 12 16 16 16 vhcurveto
          144 -148 20 11 -52 vvcurveto
          -7 -12 -16 -17 -17 vhcurveto
          -144 148 -19 -10 52 vvcurveto
          endchar
        </CharString>
        <CharString name="semicolon">
          -331 -96 -21 235 207 0 49 callsubr
          69 0 callsubr
          hintmask 11010000
          94 -117 rmoveto
          -66 callgsubr
          hintmask 10101000
          -70 callsubr
          -12 506 rmoveto
          -104 callsubr
        </CharString>
        <CharString name="seven">
          -67 25 callgsubr
          576 86 hstemhm
          hintmask 10100000
          250 7 rmoveto
          13 68 20 55 24 57 61 144 120 262 29 33 5 25 rcurveline
          -5 3 rlineto
          -157 hlineto
          -35 -101 0 8 -169 hvcurveto
          -8 -8 -15 -128 5 -7 rlineto
          38 hlineto
          6 5 rlineto
          49 9 26 3 132 hhcurveto
          115 hlineto
          -41 callsubr
          -46 -212 -425 -58 -97 vhcurveto
          7 -10 rlineto
          hintmask 01100000
          4 48 52 2 41 hhcurveto
          endchar
        </CharString>
        <CharString name="six">
          -42 -11 79 257 89 168 83 hstemhm
          61 98 -98 115 219 110 hintmask 11110100
          160 351 rmoveto
          -1 7 0 5 5 vvcurveto
          113 44 101 97 35 56 -13 -38 25 vhcurveto
          38 hlineto
          15 83 rlineto
          38 -43 -86 13 -47 hhcurveto
          -191 -41 -210 -157 -188 59 -121 166 159 60 112 103 104 -62 106 -137 -62 -55 -22 -42 -25 hvcurveto
          120 -25 rmoveto
          90 21 -73 -55 -75 -39 -54 -71 hvcurveto
          hintmask 11101100
          -84 -25 77 60 71 35 49 73 hvcurveto
          endchar
        </CharString>
        <CharString name="slash">
          95 callsubr
          34 -57 rmoveto
          118 hlineto
          3 4 21 89 40 114 37 99 rlinecurve
          68 184 25 67 39 115 44 83 rlinecurve
          -1 4 rlineto
          -118 hlineto
          -3 -4 -18 -83 -41 -114 -25 -68 rlinecurve
          -67 -184 -36 -99 -42 -114 -44 -89 rlinecurve
          endchar
        </CharString>
        <CharString name="space">
          -353 endchar
        </CharString>
        <CharString name="sterling">
          -66 -38 -21 314 72 137 -20 138 83 hstemhm
          134 131 -112 112 hintmask 11110100
          70 327 rmoveto
          -20 -72 rlineto
          102 hlineto
          1 -6 0 -5 -5 vvcurveto
          -71 -22 -65 -88 -69 vhcurveto
          -23 vlineto
          10 -25 rlineto
          123 187 -12 -33 59 hvcurveto
          9 10 37 154 rlineto
          -47 hlineto
          -5 -6 rlineto
          -40 -12 -6 -15 -65 hhcurveto
          -15 -45 0 16 -94 hvcurveto
          -2 3 70 30 17 77 1 85 rlinecurve
          97 hlineto
          10 72 rlineto
          -109 hlineto
          -3 51 -6 50 38 vvcurveto
          68 16 48 53 59 23 -38 -76 7 vhcurveto
          -19 callgsubr
          47 hlineto
          13 101 rlineto
          76 -33 -75 24 -57 hhcurveto
          hintmask 11111000
          -113 -64 -81 -127 -41 8 -46 6 -43 hvcurveto
          endchar
        </CharString>
        <CharString name="t">
          -256 -11 65 346 70 146 -20 hstem
          93 105 vstem
          313 405 rmoveto
          64 vlineto
          -5 4 -110 -6 rlineto
          49 4 63 7 33 vhcurveto
          -9 4 -17 -5 -56 -5 -18 -1 rlinecurve
          -14 -1 -7 -6 rlineto
          3 -42 2 -47 -42 vvcurveto
          -52 -14 -9 callgsubr
          -44 80 callsubr
          52 hlineto
          -1 -165 -5 -122 -24 vvcurveto
          -58 32 -42 81 32 40 12 20 36 vhcurveto
          10 33 -6 11 rlineto
          -6 -17 -29 -5 -20 hhcurveto
          -27 -23 13 52 hvcurveto
          14 2 112 155 vvcurveto
          110 hlineto
          endchar
        </CharString>
        <CharString name="thorn">
          14 45 callgsubr
          102 callsubr
          1 183 -107 107 270 116 hintmask 11111010
          184 388 rmoveto
          101 1 167 4 65 -71 callsubr
          22 61 callsubr
          12 hvcurveto
          4 -4 7 -14 1 -13 rrcurveto
          hintmask 11110110
          3 -49 1 -21 -110 vvcurveto
          -447 27 callgsubr
          hintmask 11111010
          -5 34 callgsubr
          2 -3 rlineto
          19 64 13 callgsubr
          52 hlineto
          19 68 -3 19 hhcurveto
          1 3 -2 35 -3 3 rlineto
          -21 -26 1 11 61 callgsubr
          -3 14 -2 26 rrcurveto
          -3 34 0 28 89 vvcurveto
          49 -1 21 -2 23 vhcurveto
          3 2 rlineto
          -58 38 57 -40 71 hhcurveto
          152 71 121 122 181 -122 62 -94 -62 -63 -25 -64 -42 hvcurveto
          267 -158 rmoveto
          -80 -38 -79 -86 -90 -53 70 35 -3 vhcurveto
          111 vlineto
          34 5 44 75 95 hhcurveto
          89 37 -83 -83 hvcurveto
          endchar
        </CharString>
        <CharString name="three">
          -46 -11 83 240 67 204 82 hstemhm
          379 82 -82 116 hintmask 11101000
          118 167 rmoveto
          105 callsubr
          -53 hlineto
          -11 -82 1 -9 rlineto
          -62 45 67 -29 89 hhcurveto
          145 97 82 118 83 -47 71 -74 14 hvcurveto
          4 vlineto
          hintmask 11110000
          39 15 48 53 82 vvcurveto
          104 -92 50 -91 -111 -68 -63 -57 -29 vhcurveto
          -2 -9 12 -82 rlineto
          53 hlineto
          62 callgsubr
          76 9 26 49 88 hhcurveto
          62 31 -42 -46 -54 -48 -62 -51 hvcurveto
          -18 hlineto
          -5 -5 3 -58 5 -4 91 callgsubr
          74 34 -65 -62 -50 -26 -63 -90 -92 -51 47 48 -2 hvcurveto
          endchar
        </CharString>
        <CharString name="threeinferior">
          -236 0 77 callsubr
          hstemhm
          222 63 -45 63 hintmask 11101000
          95 106 -63 callgsubr
        </CharString>
        <CharString name="threequarters">
          183 0 56 callsubr
          136 77 callsubr
          103 callsubr
          222 63 -45 63 312 69 hintmask 1011110011000000
          95 403 -24 callsubr
          hintmask 1011110101000000
          -65 callgsubr
          hintmask 0111101011000000
          8 callgsubr
          2 -384 -89 callsubr
          357 86 rmoveto
          160 hlineto
          hintmask 1011110101000000
          73 callgsubr
          hintmask 0111110101000000
          -3 -27 rlineto
          hintmask 1011110101000000
          42 callsubr
          hintmask 0111110101000000
          73 callsubr
          hintmask 1011110101000000
          -80 callsubr
        </CharString>
        <CharString name="threesuperior">
          -240 297 77 callsubr
          hstemhm
          225 63 -45 63 hintmask 11101000
          98 403 -63 callgsubr
        </CharString>
        <CharString name="tilde">
          -282 546 99 -89 -21 25 24 callgsubr
          hintmask 01101000
          311 623 -35 callsubr
          hintmask 01010000
          -73 callsubr
          hintmask 10001000
          -50 callgsubr
        </CharString>
        <CharString name="trademark">
          197 376 31 -12 -21 231 48 -30 30 103 callsubr
          83 149 -61 61 141 47 hintmask 10010101
          712 407 rmoveto
          -17 -6 7 14 -5 hvcurveto
          -3 18 -3 26 -1 14 -5 55 rcurveline
          -1 10 -3 19 17 vvcurveto
          19 4 17 14 vhcurveto
          18 33 hlineto
          -8 -30 -3 -8 hhcurveto
          -51 hlineto
          0 -13 0 -1 2 vhcurveto
          -11 -44 -57 -154 -4 -8 rrcurveto
          49 -20 -44 158 2 hhcurveto
          -2 -6 -18 -1 -4 hhcurveto
          -39 hlineto
          -9 -30 3 -8 hhcurveto
          2 -34 rlineto
          6 4 1 6 hhcurveto
          10 6 -4 -16 -12 0 -13 -3 -37 hvcurveto
          -6 -78 rlineto
          -45 -3 -8 -11 -22 hhcurveto
          hintmask 01100101
          -3 -33 rlineto
          hintmask 10100101
          7 28 2 8 hhcurveto
          31 hlineto
          hintmask 01100101
          8 24 -2 8 hhcurveto
          hintmask 10100101
          -3 33 rlineto
          -17 -8 0 34 4 0 5 1 21 hvcurveto
          3 65 rlineto
          1 32 1 12 10 vvcurveto
          64 -208 rlineto
          50 hlineto
          17 51 47 132 11 26 10 -113 rcurveline
          -19 0 -15 -2 -9 vhcurveto
          -23 -5 -9 -5 -16 hhcurveto
          hintmask 01100101
          -2 -33 rlineto
          hintmask 10100101
          7 31 2 8 hhcurveto
          32 hlineto
          hintmask 01100101
          8 30 -2 8 hhcurveto
          hintmask 10100101
          -444 33 rmoveto
          -32 -7 6 73 hvcurveto
          80 vlineto
          20 1 10 9 vvcurveto
          4 hlineto
          34 5 -2 -3 4 hvcurveto
          6 -3 3 -8 2 -11 30 -1 rcurveline
          -4 79 rlineto
          hintmask 10001101
          -3 3 rlineto
          hintmask 10100101
          -5 -9 -65 -1 -16 hhcurveto
          -45 hlineto
          hintmask 10001101
          -16 -66 1 5 -10 hvcurveto
          hintmask 10100101
          -4 -6 rlineto
          -76 vlineto
          27 1 2 11 4 7 6 4 rlinecurve
          3 3 5 2 35 hhcurveto
          4 hlineto
          hintmask 10100011
          1 -8 1 -12 -19 vvcurveto
          -88 vlineto
          -57 -2 -14 -37 vhcurveto
          hintmask 01100101
          -2 -33 rlineto
          hintmask 10100101
          8 27 2 8 hhcurveto
          55 hlineto
          hintmask 01100101
          7 31 -2 7 hhcurveto
          endchar
        </CharString>
        <CharString name="two">
          -29 -6 84 -57 -21 582 83 hstemhm
          376 113 hintmask 10110000
          76 444 rmoveto
          44 hlineto
          62 callgsubr
          89 5 64 45 93 hhcurveto
          49 41 -29 -48 -48 -20 -38 -34 -46 hvcurveto
          -77 -101 -149 -161 -56 -73 rrcurveto
          -23 vlineto
          10 -21 rlineto
          hintmask 01110000
          3 43 52 3 38 hhcurveto
          99 hlineto
          hintmask 10110000
          37 149 -5 -1 19 86 callgsubr
          -5 -6 rlineto
          -66 -18 -17 -3 -153 hhcurveto
          -58 hlineto
          -2 3 rlineto
          26 130 127 67 89 vhcurveto
          44 59 34 49 62 vvcurveto
          105 -57 67 -140 -119 -70 -59 -61 -36 vhcurveto
          -3 -9 rlineto
          endchar
        </CharString>
        <CharString name="twoinferior">
          -228 0 78 callgsubr
          hstemhm
          227 67 hintmask 01110000
          62 246 -57 callgsubr
        </CharString>
        <CharString name="twosuperior">
          -215 306 78 callgsubr
          hstemhm
          238 67 hintmask 01110000
          73 552 -57 callgsubr
        </CharString>
        <CharString name="u">
          58 callgsubr
          475 -20 hstemhm
          85 107 234 106 hintmask 10111000
          -40 callgsubr
          38 1 32 hhcurveto
          32 22 -17 callgsubr
          -23 -15 103 callgsubr
          -11 9 -3 15 -2 25 rrcurveto
          -2 28 -1 31 38 vvcurveto
          82 vlineto
          14 0 11 2 67 vhcurveto
          1 31 2 24 4 21 -6 19 rcurveline
          -35 -5 rlineto
          -4 -31 -68 0 -26 hhcurveto
          -18 -72 callsubr
          13 28 0 -16 14 hvcurveto
          4 -4 5 -11 3 -17 rrcurveto
          3 -18 2 -31 -61 vvcurveto
          -100 vlineto
          -35 -9 -48 -59 -79 hhcurveto
          -49 -26 22 46 -13 hvcurveto
          -8 29 -2 38 34 vvcurveto
          33 2 69 1 35 vhcurveto
          -23 callgsubr
          -26 -39 0 -30 hhcurveto
          -49 hlineto
          -3 -3 rlineto
          -34 vlineto
          3 -4 rlineto
          21 22 0 -16 80 callgsubr
          9 -17 -15 vvcurveto
          -90 vlineto
          -101 2 -30 5 -24 vhcurveto
          hintmask 01111000
          -94 19 69 -34 75 hhcurveto
          81 51 40 57 36 hvcurveto
          endchar
        </CharString>
        <CharString name="uacute">
          58 callgsubr
          691 -20 hstemhm
          85 107 234 104 hintmask 10111000
          -40 callgsubr
          37 1 37 hhcurveto
          27 23 -17 callgsubr
          -21 -18 0 11 -11 -50 callsubr
          -1 -13 callsubr
          82 65 callsubr
          11 22 vvcurveto
          16 1 50 5 11 -71 callsubr
          21 20 -49 callgsubr
          -4 8 23 callgsubr
          2 -17 -56 vvcurveto
          -110 vlineto
          -36 -9 -51 -58 -74 hhcurveto
          -44 -37 23 45 -11 hvcurveto
          -4 27 -4 41 29 34 3 65 42 vvcurveto
          -23 callgsubr
          -26 -39 0 -30 hhcurveto
          -49 hlineto
          -3 -3 rlineto
          -34 vlineto
          3 -4 rlineto
          21 22 0 -16 80 callgsubr
          9 -13 -15 vvcurveto
          -20 0 -83 1 -31 vhcurveto
          1 -38 -2 -40 6 -34 rrcurveto
          hintmask 01111000
          -1 callgsubr
          -210 433 -99 callgsubr
        </CharString>
        <CharString name="ucircumflex">
          58 callgsubr
          690 -20 hstemhm
          85 107 234 104 hintmask 10111000
          -40 callgsubr
          37 1 37 hhcurveto
          27 23 -17 callgsubr
          -21 -18 0 11 -11 -50 callsubr
          -1 -13 callsubr
          82 65 callsubr
          11 22 vvcurveto
          16 1 50 5 11 -71 callsubr
          21 20 -49 callgsubr
          -4 8 23 callgsubr
          2 -17 -56 vvcurveto
          -110 vlineto
          -36 -9 -51 -58 -74 hhcurveto
          -44 -37 23 45 -11 hvcurveto
          -4 27 -4 41 29 34 3 65 42 vvcurveto
          -23 callgsubr
          -26 -39 0 -30 hhcurveto
          -49 hlineto
          -3 -3 rlineto
          -34 vlineto
          3 -4 rlineto
          21 22 0 -16 80 callgsubr
          9 -13 -15 vvcurveto
          -20 0 -83 1 -31 vhcurveto
          1 -38 -2 -40 6 -34 rrcurveto
          hintmask 01111000
          -1 callgsubr
          -133 593 -95 callgsubr
        </CharString>
        <CharString name="udieresis">
          58 callgsubr
          560 49 callsubr
          85 107 -43 12 callgsubr
          -13 104 hintmask 10110010
          -40 callgsubr
          37 1 37 hhcurveto
          27 23 -17 callgsubr
          -21 -18 0 11 -11 -50 callsubr
          -1 -13 callsubr
          82 65 callsubr
          11 22 vvcurveto
          16 1 50 5 11 -71 callsubr
          21 20 -49 callgsubr
          -4 8 23 callgsubr
          2 -17 -56 vvcurveto
          -110 vlineto
          -36 -9 -51 -58 -74 hhcurveto
          -44 -37 23 45 -11 hvcurveto
          -4 27 -4 41 29 34 3 65 42 vvcurveto
          -23 callgsubr
          -26 -39 0 -30 hhcurveto
          -49 hlineto
          -3 -3 rlineto
          -34 vlineto
          3 -4 rlineto
          21 22 0 -16 80 callgsubr
          9 -13 -15 vvcurveto
          -20 0 -83 1 -31 vhcurveto
          1 -38 -2 -40 6 -34 rrcurveto
          hintmask 01101010
          -1 callgsubr
          -274 527 -37 callsubr
          hintmask 10110100
          160 hmoveto
          -104 callsubr
        </CharString>
        <CharString name="ugrave">
          58 callgsubr
          691 -20 hstemhm
          85 107 234 104 hintmask 10111000
          -40 callgsubr
          37 1 37 hhcurveto
          27 23 -17 callgsubr
          -21 -18 0 11 -11 -50 callsubr
          -1 -13 callsubr
          82 65 callsubr
          11 22 vvcurveto
          16 1 50 5 11 -71 callsubr
          21 20 -49 callgsubr
          -4 8 23 callgsubr
          2 -17 -56 vvcurveto
          -110 vlineto
          -36 -9 -51 -58 -74 hhcurveto
          -44 -37 23 45 -11 hvcurveto
          -4 27 -4 41 29 34 3 65 42 vvcurveto
          -23 callgsubr
          -26 -39 0 -30 hhcurveto
          -49 hlineto
          -3 -3 rlineto
          -34 vlineto
          3 -4 rlineto
          21 22 0 -16 80 callgsubr
          9 -13 -15 vvcurveto
          -20 0 -83 1 -31 vhcurveto
          1 -38 -2 -40 6 -34 rrcurveto
          hintmask 01111000
          -1 callgsubr
          -39 436 -94 callsubr
        </CharString>
        <CharString name="underscore">
          -112 -82 82 hstem
          24 hmoveto
          -82 433 82 vlineto
          endchar
        </CharString>
        <CharString name="uni00A0">
          -353 endchar
        </CharString>
        <CharString name="uni00AD">
          27 callsubr
        </CharString>
        <CharString name="uni03BC">
          24 67 callgsubr
          96 108 212 106 hintmask 11011100
          159 -125 rmoveto
          11 38 3 39 9 79 3 2 rcurveline
          -33 15 55 -11 32 hhcurveto
          59 42 22 56 27 hvcurveto
          -3 -29 -4 -14 -4 -17 6 -10 rcurveline
          hintmask 10111100
          2 33 38 1 38 hhcurveto
          27 29 -2 -2 24 54 callgsubr
          -21 -23 1 10 -11 hvcurveto
          -9 7 -3 12 -3 30 rrcurveto
          -1 87 callsubr
          11 22 -8 callgsubr
          -35 -60 -45 callgsubr
          21 22 -49 callgsubr
          -3 6 -14 2 -14 rrcurveto
          3 -28 1 -16 -56 vvcurveto
          -110 vlineto
          hintmask 11011100
          -34 -8 -43 -55 -60 hhcurveto
          -44 -38 31 62 -12 hvcurveto
          -5 28 -2 40 29 29 3 56 36 -8 callgsubr
          -26 -38 59 callgsubr
          -3 -3 rlineto
          -34 vlineto
          3 -4 rlineto
          21 21 -1 -15 14 hvcurveto
          6 -6 5 -10 -16 vvcurveto
          1 -18 2 -79 -52 vvcurveto
          -78 vlineto
          -53 -18 -118 -37 -68 vhcurveto
          -6 vlineto
          -17 18 36 -8 50 hhcurveto
          9 hlineto
          endchar
        </CharString>
        <CharString name="uni2215">
          -18 40 -21 654 -20 hstem
          -4 19 -89 callsubr
          endchar
        </CharString>
        <CharString name="uni2219">
          -6 callgsubr
        </CharString>
        <CharString name="v">
          -23 16 -21 464 67 callsubr
          340 hmoveto
          54 128 13 30 74 169 33 53 rlinecurve
          15 25 15 8 -78 callsubr
          25 -4 22 -4 -35 vvcurveto
          -42 -44 -106 -16 -39 vhcurveto
          -50 -121 -44 120 rlineto
          -16 44 -47 117 32 vvcurveto
          22 21 13 -82 callgsubr
          6 -10 3 -6 9 -22 48 -116 13 -19 20 -47 69 -160 rcurveline
          10 -5 rlineto
          endchar
        </CharString>
        <CharString name="w">
          280 16 -21 464 -20 hstem
          181 195 127 198 vstem
          653 hmoveto
          48 128 12 33 59 147 45 72 rlinecurve
          15 23 15 10 -73 callgsubr
          -56 -41 -96 -19 -49 vhcurveto
          -40 -105 -39 105 rlineto
          -10 27 -49 143 31 vvcurveto
          24 21 12 -83 callgsubr
          rlineto
          15 36 -6 -30 -35 -22 -93 -27 -73 hvcurveto
          -38 -105 -44 105 rlineto
          -11 27 -53 143 31 vvcurveto
          24 21 12 -82 callgsubr
          6 -10 7 -13 7 -15 31 -67 36 -88 12 -27 70 -160 rcurveline
          10 -5 103 5 51 158 4 12 20 60 19 52 rlinecurve
          17 -43 11 -34 16 -43 59 -163 rcurveline
          12 -4 rlineto
          endchar
        </CharString>
        <CharString name="x">
          -32 1 37 -23 -21 27 -21 419 34 103 callsubr
          hintmask 10010000
          334 103 rmoveto
          12 -14 7 -14 -12 vvcurveto
          -15 -11 -11 -23 -2 vhcurveto
          -14 callgsubr
          3 26 31 3 21 hhcurveto
          78 hlineto
          22 31 -3 -3 22 hvcurveto
          62 callgsubr
          34 vlineto
          -6 5 -42 7 -33 20 -16 19 rlinecurve
          -123 144 78 116 rlineto
          43 29 34 32 49 hhcurveto
          6 2 rlineto
          34 vlineto
          hintmask 10001000
          -9 callsubr
          hintmask 10010000
          -3 -26 -22 -3 -22 hhcurveto
          -80 hlineto
          -23 -13 1 4 -28 hvcurveto
          -4 -3 rlineto
          -32 vlineto
          -19 callgsubr
          30 -5 9 -3 -25 vvcurveto
          -6 -17 -25 -46 -73 vhcurveto
          -46 55 rlineto
          -17 26 -9 17 11 vvcurveto
          15 15 6 33 7 vhcurveto
          62 callgsubr
          32 vlineto
          hintmask 10001000
          -9 callsubr
          hintmask 10010000
          -3 -26 -30 -3 -21 hhcurveto
          -78 hlineto
          hintmask 10001000
          -22 -31 -43 callsubr
          31 -2 18 -14 17 -20 rlinecurve
          121 -145 -93 -126 rlineto
          -42 -31 -33 -29 -49 hhcurveto
          -5 -6 rlineto
          -34 vlineto
          hintmask 01010000
          -19 callgsubr
          hintmask 00110000
          3 26 22 3 22 hhcurveto
          80 hlineto
          23 13 -1 -4 28 hvcurveto
          4 3 rlineto
          32 vlineto
          -9 callsubr
          -27 5 -9 10 12 vvcurveto
          13 11 14 9 14 vhcurveto
          55 78 rlineto
          endchar
        </CharString>
        <CharString name="y">
          -23 83 callsubr
          719 67 callsubr
          395 131 rmoveto
          12 31 68 154 39 64 15 24 15 9 -73 callgsubr
          -53 -42 -94 -18 -44 -90 callsubr
          endchar
        </CharString>
        <CharString name="yacute">
          -23 83 callsubr
          940 67 callsubr
          -84 callgsubr
          -99 635 -99 callgsubr
        </CharString>
        <CharString name="ydieresis">
          -23 83 callsubr
          713 96 0 49 callsubr
          142 12 callgsubr
          hintmask 11011000
          -84 callgsubr
          -155 729 rmoveto
          -94 callgsubr
          vhcurveto
          hintmask 10111000
          -101 callgsubr
        </CharString>
        <CharString name="yen">
          149 0 237 -222 -21 161 82 72 82 270 -20 hstemhm
          315 111 hintmask 01111100
          157 237 40 callsubr
          172 hlineto
          -23 -1 -14 -1 -11 -48 callsubr
          hintmask 10011100
          93 callgsubr
          hintmask 10111100
          19 74 -5 -1 19 hvcurveto
          2 4 2 callgsubr
          -11 9 -11 11 -3 37 -3 48 rcurveline
          155 60 callgsubr
          -171 27 hlineto
          16 6 19 5 10 vhcurveto
          150 60 callgsubr
          -116 hlineto
          23 35 28 42 46 67 -103 callsubr
          39 -57 39 -56 35 -53 rrcurveto
          -87 hlineto
          -15 -82 rlineto
          153 hlineto
          8 -15 6 -19 -25 vvcurveto
          -13 vlineto
          endchar
        </CharString>
        <CharString name="z">
          94 callsubr
          hstemhm
          hintmask 10100000
          -5 callgsubr
          hintmask 01100000
          92 callsubr
          hintmask 10100000
          -4 callsubr
          213 45 50 rlinecurve
          3 16 -6 8 rlineto
          -4 -23 -32 -2 -12 hhcurveto
          -85 hlineto
          -23 -103 71 callsubr
          endchar
        </CharString>
        <CharString name="zcaron">
          94 callsubr
          218 -20 hstemhm
          hintmask 10110000
          -5 callgsubr
          hintmask 01110000
          92 callsubr
          hintmask 10110000
          -4 callsubr
          214 45 49 rlinecurve
          3 16 -6 8 rlineto
          -4 -16 -30 -2 -12 hhcurveto
          -85 hlineto
          -23 -112 71 callsubr
          223 221 -85 callgsubr
        </CharString>
        <CharString name="zero">
          45 31 callgsubr
          hstem
          54 118 296 90 callsubr
          319 41 callsubr
          -167 -98 -153 -190 -179 88 -154 172 177 94 164 176 180 -98 156 -168 hvcurveto
          40 callgsubr
          -85 -61 98 159 145 50 108 93 94 59 -110 -144 -140 -55 -116 -95 hvcurveto
          endchar
        </CharString>
        <CharString name="zeroinferior">
          -178 10 58 252 58 hstem
          53 60 callsubr
          vstem
          208 378 -91 callgsubr
          endchar
        </CharString>
        <CharString name="zerosuperior">
          -190 292 58 252 58 hstem
          47 60 callsubr
          vstem
          202 660 -91 callgsubr
          endchar
        </CharString>
      <CharString index="0">
        -12 callsubr
        hintmask 01011111
        -96 callsubr
        hintmask 10011111
        -11 callgsubr
        hintmask 00111111
        -69 callgsubr
        hintmask 10011111
        -106 callgsubr
        return
      </CharString>
      <CharString index="1">
        -84 callsubr
        58 0 -14 10 hvcurveto
        6 -8 3 -89 callgsubr
        -4 -10 -6 -6 vhcurveto
        -16 -16 -60 5 -97 callsubr
        return
      </CharString>
      <CharString index="2">
        -94 callgsubr
        -100 callgsubr
        return
      </CharString>
      <CharString index="3">
        471 -2 rmoveto
        2 callgsubr
        -11 9 -11 11 -3 37 rrcurveto
        -2 31 -1 16 95 vvcurveto
        15 vlineto
        20 9 22 5 8 vhcurveto
        37 61 26 43 81 117 -103 callsubr
        55 -80 55 -78 44 -72 rrcurveto
        11 -18 13 -22 -37 vvcurveto
        -19 vlineto
        14 callsubr
        -2 -20 -48 callsubr
        return
      </CharString>
      <CharString index="4">
        477 293 rmoveto
        -15 callgsubr
        -130 -103 -99 -146 -143 98 -98 140 -92 callgsubr
        rlineto
        -199 145 -79 callsubr
        return
      </CharString>
      <CharString index="5">
        -44 callsubr
        205 -20 10 callgsubr
        hintmask 01011110
        -107 callsubr
        hintmask 10101110
        -98 callsubr
        return
      </CharString>
      <CharString index="6">
        -100 callgsubr
        160 hmoveto
        -104 callsubr
      </CharString>
      <CharString index="7">
        33 -33 33 -33 -35 -29 -33 -33 vhcurveto
        return
      </CharString>
      <CharString index="8">
        -76 callsubr
        -85 callsubr
      </CharString>
      <CharString index="9">
        90 callsubr
        -102 callsubr
        return
      </CharString>
      <CharString index="10">
        -20 hstemhm
        106 106 hintmask 01110000
        -105 callsubr
        hintmask 10110000
        1 -4 rlineto
        hintmask 01110000
        -42 callsubr
        hintmask 10110000
        -26 callsubr
        return
      </CharString>
      <CharString index="11">
        -10 callsubr
        164 81 116 122 129 -89 119 -158 hvcurveto
        -75 callgsubr
        return
      </CharString>
      <CharString index="12">
        rmoveto
        -110 -99 -3 -7 9 -29 7 -3 101 41 101 -41 7 3 9 29 -3 7 -110 99 rlineto
        endchar
      </CharString>
      <CharString index="13">
        -35 29 -29 35 33 33 29 35 return
      </CharString>
      <CharString index="14">
        -49 callsubr
        21 0 -10 11 hvcurveto
        11 -8 11 -11 3 -38 rrcurveto
        3 -37 0 -19 -96 vvcurveto
        -145 vlineto
        -123 -68 -49 -90 -101 -48 49 123 vhcurveto
        145 -28 callsubr
        2 62 callsubr
        10 9 rrcurveto
        9 12 24 1 18 hhcurveto
        4 4 3 38 return
      </CharString>
      <CharString index="15">
        72 67 28 25 32 hvcurveto
        10 11 rlineto
        36 vlineto
        -17 7 rlineto
        -19 -40 -49 -12 -41 hhcurveto
        -114 -46 74 70 8 0 9 1 9 hvcurveto
        82 hlineto
        73 69 2 72 hhcurveto
        24 18 return
      </CharString>
      <CharString index="16">
        rmoveto
        -97 -58 -77 -110 -103 52 -78 100 104 54 84 101 103 -57 80 -98 hvcurveto
        -310 vmoveto
        -44 -35 41 86 78 29 47 48 49 32 -48 -77 -76 -31 -51 -48 hvcurveto
        return
      </CharString>
      <CharString index="17">
        -41 callsubr
        22 19 -41 callgsubr
        12 -8 16 -21 2 -28 rrcurveto
        2 -31 0 -29 -93 vvcurveto
        -163 vlineto
        -79 0 -25 -2 -20 vhcurveto
        -4 -39 -17 -12 -9 -6 rrcurveto
        -9 -13 -16 -1 -24 -2 callgsubr
        65 -5 -1 20 -20 callsubr
        6 callsubr
        -27 -16 0 10 -11 hvcurveto
        -13 8 -14 16 -3 33 rrcurveto
        -3 31 0 82 31 vvcurveto
        74 vlineto
        69 -1 56 -2 24 vhcurveto
        309 -466 10 -12 rlineto
        return
      </CharString>
      <CharString index="18">
        -14 -15 vvcurveto
        14 callgsubr
        -2 4 2 rlineto
        -2 32 -3 25 32 vvcurveto
        29 3 20 2 30 -34 callgsubr
        -12 return
      </CharString>
      <CharString index="19">
        752 48 callsubr
        52 callgsubr
        37 callsubr
        -19 callgsubr
        21 21 -41 callgsubr
        19 -15 8 -20 2 -22 rrcurveto
        2 -31 1 -29 -93 vvcurveto
        -136 vlineto
        -34 -1 -34 -34 vvcurveto
        -30 41 -53 75 -96 159 -53 87 -60 100 -9 37 -5 3 rcurveline
        -2 -12 -19 -2 -10 hhcurveto
        -85 hlineto
        -19 -58 -91 callsubr
        -90 callgsubr
        return
      </CharString>
      <CharString index="20">
        rmoveto
        -19 callgsubr
        21 23 -49 callgsubr
        -4 8 -13 1 -15 rrcurveto
        3 -46 0 -107 -28 vvcurveto
        -26 -2 -195 -1 -25 vhcurveto
        -1 -55 -6 -45 -30 -28 rrcurveto
        -22 -20 -19 -2 -27 hhcurveto
        -4 -5 2 -39 8 -2 rlineto
        13 10 0 3 13 hvcurveto
        115 25 55 67 161 vvcurveto
        226 vlineto
        92 1 30 1 24 vhcurveto
        1 18 0 48 5 11 -5 19 rcurveline
        -36 callsubr
        return
      </CharString>
      <CharString index="21">
        -64 callsubr
        -31 callsubr
        return
      </CharString>
      <CharString index="22">
        rmoveto
        130 99 3 7 -9 29 -7 3 -120 -54 -122 54 -7 -3 -9 -29 3 -7 130 -99 rlineto
        endchar
      </CharString>
      <CharString index="23">
        394 128 rmoveto
        11 28 71 161 38 63 14 24 16 9 -73 callgsubr
        -56 -43 -92 -17 -43 -90 callsubr
        return
      </CharString>
      <CharString index="24">
        25 3 vhcurveto
        62 callgsubr
        32 vlineto
        -9 callsubr
        -3 -24 -32 -3 -20 hhcurveto
        -79 hlineto
        -21 -28 -43 callsubr
        return
      </CharString>
      <CharString index="25">
        -83 callgsubr
        28 -3 15 -12 13 -21 rlinecurve
        return
      </CharString>
      <CharString index="26">
        1 3 callgsubr
        -5 -4 -46 -83 -57 -75 -49 -68 104 callgsubr
        -165 -72 -100 -50 -66 -75 -89 rlinecurve
        return
      </CharString>
      <CharString index="27">
        -2 31 -1 18 95 vvcurveto
        144 vlineto
        96 0 19 3 37 -67 callsubr
        return
      </CharString>
      <CharString index="28">
        32 callsubr
        5 4 55 89 45 65 73 101 rlinecurve
        133 183 45 62 52 72 66 74 rlinecurve
        return
      </CharString>
      <CharString index="29">
        0 -31 hhcurveto
        -51 -72 callsubr
        21 22 -49 callgsubr
        return
      </CharString>
      <CharString index="30">
        -51 callgsubr
        -60 callgsubr
        return
      </CharString>
      <CharString index="31">
        -86 -221 -102 -262 -14 -34 -9 -15 rlinecurve
        -54 -35 -32 -9 -36 18 callgsubr
        rlineto
        return
      </CharString>
      <CharString index="32">
        1 -417 rmoveto
        -81 -47 92 84 82 38 87 86 83 46 -93 -83 -85 -41 -84 -84 hvcurveto
        return
      </CharString>
      <CharString index="33">
        90 callgsubr
        -5 -64 callgsubr
        return
      </CharString>
      <CharString index="34">
        -78 callsubr
        23 -3 24 -7 -29 vvcurveto
        return
      </CharString>
      <CharString index="35">
        -86 6 callgsubr
        205 -20 -99 callsubr
        return
      </CharString>
      <CharString index="36">
        hstem
        60 102 246 114 vstem
        162 503 rmoveto
        53 46 35 80 71 41 -33 -55 8 vhcurveto
        5 -5 rlineto
        48 hlineto
        16 114 -4 11 rlineto
        22 -42 -66 20 -72 hhcurveto
        -156 -77 -67 -117 -113 73 -41 96 -35 hvcurveto
        107 -39 72 -13 -84 vvcurveto
        -63 -40 -34 -91 -93 -56 36 91 -8 vhcurveto
        -5 6 rlineto
        -45 hlineto
        -23 -134 4 -13 rlineto
        -35 62 86 -21 79 hhcurveto
        150 94 77 117 114 -88 44 -96 36 hvcurveto
        -95 36 -81 20 70 vvcurveto
        return
      </CharString>
      <CharString index="37">
        hstem
        45 91 165 92 vstem
        192 296 rmoveto
        -44 10 -12 26 24 vvcurveto
        28 21 27 53 37 69 -17 -58 vhcurveto
        4 -3 rlineto
        31 hlineto
        11 97 -13 12 rlineto
        16 -27 -53 17 -58 hhcurveto
        -93 -73 -45 -89 -55 21 -61 88 -22 hvcurveto
        96 -24 rlineto
        50 -17 1 -28 -18 vvcurveto
        -25 -24 -33 -76 -70 -37 37 58 vhcurveto
        105 callsubr
        -33 hlineto
        -15 -123 12 -13 rlineto
        -17 31 57 -15 61 hhcurveto
        117 72 62 85 47 -17 71 -113 26 hvcurveto
        return
      </CharString>
      <CharString index="38">
        37 104 -4 13 hhcurveto
        8 10 19 147 rlineto
        -47 hlineto
        -9 callgsubr
        return
      </CharString>
      <CharString index="39">
        49 callgsubr
        -3 -13 -9 -9 rrcurveto
        -47 callsubr
        return
      </CharString>
      <CharString index="40">
        19 -20 callsubr
        return
      </CharString>
      <CharString index="41">
        31 16 68 95 71 vvcurveto
        18 -4 35 -36 -34 -50 -16 -32 vhcurveto
        return
      </CharString>
      <CharString index="42">
        35 19 12 29 29 vvcurveto
        46 -42 44 -73 -68 -28 -33 -28 -15 vhcurveto
        5 -44 rlineto
        42 hlineto
        -1 4 0 3 3 vvcurveto
        29 32 19 29 29 27 -19 -26 -28 -27 -30 -57 -1 vhcurveto
        -6 -41 rlineto
        42 hlineto
        return
      </CharString>
      <CharString index="43">
        105 callgsubr
        -22 callsubr
        return
      </CharString>
      <CharString index="44">
        -24 callsubr
        hintmask 11110000
        -65 callgsubr
        hintmask 11101000
        8 callgsubr
        endchar
      </CharString>
      <CharString index="45">
        -68 callgsubr
        rlineto
        return
      </CharString>
      <CharString index="46">
        31 callgsubr
        184 -20 -93 callsubr
        return
      </CharString>
      <CharString index="47">
        -4 -26 callgsubr
        -12 91 callsubr
        -12 11 -2 37 rrcurveto
        return
      </CharString>
      <CharString index="48">
        hstem
        46 120 vstem
        543 507 rmoveto
        -30 callgsubr
        -200 133 -135 199 -59 callsubr
        return
      </CharString>
      <CharString index="49">
        6 callsubr
        -34 -36 1 66 -31 hvcurveto
        -8 16 -9 22 -25 66 return
      </CharString>
      <CharString index="50">
        -38 callsubr
        hintmask 10110000
        53 callgsubr
        hintmask 01110000
        16 callsubr
        hintmask 10110000
        -31 callgsubr
      </CharString>
      <CharString index="51">
        123 -5 8 5 rlineto
        -5 64 -2 30 149 vvcurveto
        156 -28 callsubr
        4 37 13 11 11 9 rrcurveto
        9 12 21 1 20 hhcurveto
        5 4 2 38 rlineto
        return
      </CharString>
      <CharString index="52">
        14 callsubr
        19 callgsubr
        return
      </CharString>
      <CharString index="53">
        rmoveto
        -98 hlineto
        -7 -4 -32 -50 -33 -43 -67 -84 rlinecurve
        67 -83 33 -43 32 -50 7 -4 rcurveline
        98 hlineto
        5 10 -58 59 -39 51 -43 60 rlinecurve
        43 61 38 51 59 59 rrcurveto
        return
      </CharString>
      <CharString index="54">
        281 475 rmoveto
        -154 -92 -112 -131 return
      </CharString>
      <CharString index="55">
        rmoveto
        -66 callgsubr
        hintmask 11010000
        -70 callsubr
        endchar
      </CharString>
      <CharString index="56">
        19 74 -5 -1 -67 callgsubr
        return
      </CharString>
      <CharString index="57">
        42 60 -14 53 hhcurveto
        55 25 41 36 8 hvcurveto
        endchar
      </CharString>
      <CharString index="58">
        0 -17 3 callsubr
        return
      </CharString>
      <CharString index="59">
        -58 callgsubr
        -172 454 rcurveline
        -49 -166 -16 callsubr
        return
      </CharString>
      <CharString index="60">
        83 callgsubr
        -12 -33 callsubr
        -12 return
      </CharString>
      <CharString index="61">
        9 -26 rlineto
        4 14 18 3 16 hhcurveto
        28 24 -7 -24 -22 -25 -6 -29 -25 -28 11 4 -16 hvcurveto
        -7 hlineto
        -13 -38 rlineto
        endchar
      </CharString>
      <CharString index="62">
        0 -32 hhcurveto
        -18 -72 callsubr
        return
      </CharString>
      <CharString index="63">
        375 41 callsubr
        -71 -30 -76 callgsubr
        return
      </CharString>
      <CharString index="64">
        19 61 -5 -1 -67 callgsubr
        rlineto
        return
      </CharString>
      <CharString index="65">
        4 4 rcurveline
        38 vlineto
        -9 callsubr
        return
      </CharString>
      <CharString index="66">
        0 -10 12 hvcurveto
        return
      </CharString>
      <CharString index="67">
        426 84 rmoveto
        -3 -25 -5 -27 -4 -15 6 -20 rcurveline
        2 33 return
      </CharString>
      <CharString index="68">
        5 19 hhcurveto
        return
      </CharString>
      <CharString index="69">
        -3 callsubr
        -3 28 rrcurveto
        -3 25 0 10 52 vvcurveto
        103 vlineto
        34 55 66 80 43 36 21 callsubr
        -45 -3 -51 vhcurveto
        return
      </CharString>
      <CharString index="70">
        hhcurveto
        221 115 155 175 180 -122 150 -208 hvcurveto
        return
      </CharString>
      <CharString index="71">
        -23 callsubr
        hintmask 11000000
        -1 -19 return
      </CharString>
      <CharString index="72">
        50 -25 callsubr
        return
      </CharString>
      <CharString index="73">
        vhcurveto
        -4 2 -37 -2 -5 -5 rlineto
        return
      </CharString>
      <CharString index="74">
        1 -20 callgsubr
        return
      </CharString>
      <CharString index="75">
        -35 callsubr
        hintmask 1010010110000000
        -73 callsubr
        hintmask 1011001110000000
        -50 callgsubr
      </CharString>
      <CharString index="76">
        -55 -8 -19 -2 -57 hhcurveto
        -53 hlineto
        29 149 96 86 vvcurveto
        57 -37 40 -75 -69 -36 -33 -30 -21 vhcurveto
        endchar
      </CharString>
      <CharString index="77">
        -2 callsubr
        -74 -96 7 -53 hhcurveto
        -220 -116 -153 -188 return
      </CharString>
      <CharString index="78">
        -67 -17 -25 -2 -222 hhcurveto
        -60 hlineto
        -5 3 25 80 273 384 69 71 rlinecurve
        5 25 -8 21 rlineto
        -5 -23 -43 -3 -16 hhcurveto
        -96 hlineto
        -35 -120 0 8 -169 hvcurveto
        -8 -8 -16 -128 rlineto
        return
      </CharString>
      <CharString index="79">
        2 4 -51 callsubr
        return
      </CharString>
      <CharString index="80">
        -29 -55 -91 callsubr
        -41 callsubr
        33 8 -41 callgsubr
        12 -8 10 -16 3 -33 rrcurveto
        165 -469 -8 callsubr
        124 vlineto
        return
      </CharString>
      <CharString index="81">
        4 rlineto
        -21 -21 1 9 return
      </CharString>
      <CharString index="82">
        -184 rmoveto
        -17 26 33 -12 32 hhcurveto
        72 53 45 49 47 -34 35 -55 -2 -8 -1 -1 -4 hvcurveto
        return
      </CharString>
      <CharString index="83">
        55 31 vvcurveto
        38 23 4 38 vhcurveto
        -36 callgsubr
        return
      </CharString>
      <CharString index="84">
        16 1 -35 callgsubr
        return
      </CharString>
      <CharString index="85">
        -25 hvcurveto
        -14 callgsubr
        return
      </CharString>
      <CharString index="86">
        rmoveto
        -58 -34 -41 -42 -39 30 -43 63 60 31 40 40 42 -34 43 -58 hvcurveto
        1 -121 -12 callgsubr
      </CharString>
      <CharString index="87">
        19 65 13 callgsubr
        return
      </CharString>
      <CharString index="88">
        4 -4 rlineto
        return
      </CharString>
      <CharString index="89">
        rmoveto
        59 45 callsubr
        -58 -59 5 -10 rcurveline
        98 hlineto
        7 4 32 50 33 43 67 83 rlinecurve
        -67 84 -33 43 -32 50 -7 4 rcurveline
        -98 hlineto
        return
      </CharString>
      <CharString index="90">
        -1 -2 25 hvcurveto
        2 3 12 callsubr
        return
      </CharString>
      <CharString index="91">
        1 19 61 -7 callgsubr
        return
      </CharString>
      <CharString index="92">
        154 -24 -114 28 -70 hhcurveto
        return
      </CharString>
      <CharString index="93">
        -9 callgsubr
        -32 vlineto
        -19 callgsubr
        return
      </CharString>
      <CharString index="94">
        89 callgsubr
        105 callsubr
        return
      </CharString>
      <CharString index="95">
        rmoveto
        -21 -15 20 19 18 12 20 22 21 14 -22 -19 -17 -13 -19 -20 hvcurveto
        endchar
      </CharString>
      <CharString index="96">
        -74 callsubr
        202 hlineto
        return
      </CharString>
      <CharString index="97">
        58 519 rmoveto
        38 hlineto
        6 5 rlineto
        49 9 25 3 133 hhcurveto
        122 hlineto
        5 -5 -54 -121 -233 -337 -77 -75 rlinecurve
        -23 vlineto
        10 -21 rlineto
        return
      </CharString>
      <CharString index="98">
        -4 -4 rlineto
        return
      </CharString>
      <CharString index="99">
        vvcurveto
        16 1 50 5 11 vhcurveto
        -6 9 -35 -5 rlineto
        -4 return
      </CharString>
      <CharString index="100">
        -39 callgsubr
        59 hlineto
        return
      </CharString>
      <CharString index="101">
        -338 180 55 callgsubr
        244 rmoveto
        -104 callsubr
      </CharString>
      <CharString index="102">
        50 315 rmoveto
        37 hlineto
        62 callgsubr
        51 7 7 18 80 hhcurveto
        75 hlineto
        4 -4 -34 -92 -147 -221 -51 -53 rlinecurve
        -14 vlineto
        7 -8 rlineto
        return
      </CharString>
      <CharString index="103">
        -5 -19 hhcurveto
        return
      </CharString>
      <CharString index="104">
        76 vstem
        141 526 22 callgsubr
        -97 -9 -1 28 callgsubr
        return
      </CharString>
      <CharString index="105">
        hhcurveto
        -5 -64 callgsubr
        -74 callsubr
        59 hlineto
        19 return
      </CharString>
      <CharString index="106">
        -100 18 72 -31 76 hhcurveto
        78 53 41 56 35 hvcurveto
        return
      </CharString>
      <CharString index="107">
        47 callgsubr
        -10 9 return
      </CharString>
      <CharString index="108">
        -3 15 callgsubr
        return
      </CharString>
      <CharString index="109">
        -3 38 -5 -26 callgsubr
        -11 hvcurveto
        return
      </CharString>
      <CharString index="110">
        4 rlineto
        -116 hlineto
        return
      </CharString>
      <CharString index="111">
        -31 -16 -68 -95 -71 vvcurveto
        -18 4 -35 36 34 50 16 32 vhcurveto
        return
      </CharString>
      <CharString index="112">
        rrcurveto
        -2 -13 callsubr
        return
      </CharString>
      <CharString index="113">
        -11 76 170 70 95 75 return
      </CharString>
      <CharString index="114">
        -83 -37 -83 -89 -95 -44 75 34 -5 vhcurveto
        111 vlineto
        35 3 53 70 90 hhcurveto
        86 38 -79 -80 hvcurveto
        endchar
      </CharString>
      <CharString index="115">
        44 22 -29 -37 -39 -37 -24 -38 -33 -32 17 40 -5 hvcurveto
        return
      </CharString>
      <CharString index="116">
        102 callgsubr
        -21 -1 101 callsubr
        return
      </CharString>
      <CharString index="117">
        69 callsubr
        175 112 return
      </CharString>
      <CharString index="118">
        75 callgsubr
        -39 callgsubr
        return
      </CharString>
      <CharString index="119">
        130 30 130 return
      </CharString>
      <CharString index="120">
        3 19 hhcurveto
        return
      </CharString>
      <CharString index="121">
        4 -3 38 return
      </CharString>
      <CharString index="122">
        -1 19 hvcurveto
        return
      </CharString>
      <CharString index="123">
        45 0 35 -1 45 vhcurveto
        38 0 40 -4 35 vhcurveto
        97 -13 -82 42 -83 hhcurveto
        -71 -56 -44 -58 -30 hvcurveto
        return
      </CharString>
      <CharString index="124">
        -96 31 callsubr
        58 0 callsubr
        return
      </CharString>
      <CharString index="125">
        hhcurveto
        -5 -4 -2 -38 return
      </CharString>
      <CharString index="126">
        -1 -20 vhcurveto
        return
      </CharString>
      <CharString index="127">
        243 rmoveto
        -50 38 -37 50 45 43 37 50 46 -43 43 -45 -50 -38 -43 -46 vhcurveto
        endchar
      </CharString>
      <CharString index="128">
        -49 callsubr
        20 -41 callgsubr
        10 -8 12 return
      </CharString>
      <CharString index="129">
        rmoveto
        84 callgsubr
        67 4 72 8 57 vhcurveto
        -2 4 return
      </CharString>
      <CharString index="130">
        79 callsubr
        2 -27 return
      </CharString>
      <CharString index="131">
        85 -85 99 12 -20 hstemhm
        return
      </CharString>
      <CharString index="132">
        15 -21 27 -21 return
      </CharString>
      <CharString index="133">
        -2 4 rlineto
        return
      </CharString>
      <CharString index="134">
        vlineto
        -108 -2 -20 -2 -46 49 callgsubr
        -2 -13 -10 -8 rrcurveto
        -12 -11 -21 0 -20 hhcurveto
        return
      </CharString>
      <CharString index="135">
        -4 8 -62 3 -70 1 -64 rlinecurve
        2 -5 rlineto
        return
      </CharString>
      <CharString index="136">
        -17 24 rlineto
        -21 -40 -55 -9 -45 hhcurveto
        -107 -49 return
      </CharString>
      <CharString index="137">
        -28 callgsubr
        -20 return
      </CharString>
      <CharString index="138">
        -11 83 510 83 return
      </CharString>
      <CharString index="139">
        0 78 -63 -21 return
      </CharString>
      <CharString index="140">
        0 40 -25 -21 return
      </CharString>
      <CharString index="141">
        -4 -2 -34 return
      </CharString>
      <CharString index="142">
        11 107 -3 9 rlineto
        16 -29 -73 20 -63 hhcurveto
        -141 -115 -99 -146 return
      </CharString>
      <CharString index="143">
        -67 callsubr
        3 38 rlineto
        return
      </CharString>
      <CharString index="144">
        32 callsubr
        84 callgsubr
        -11 89 -1 return
      </CharString>
      <CharString index="145">
        -51 callsubr
        -20 return
      </CharString>
      <CharString index="146">
        -286 24 callsubr
        return
      </CharString>
      <CharString index="147">
        -1 -593 rmoveto
        return
      </CharString>
      <CharString index="148">
        0 -31 hhcurveto
        return
      </CharString>
      <CharString index="149">
        81 callgsubr
        34 callgsubr
        return
      </CharString>
      <CharString index="150">
        0 38 -21 -21 392 87 return
      </CharString>
      <CharString index="151">
        69 callgsubr
        rlineto
        return
      </CharString>
      <CharString index="152">
        83 callsubr
        249 80 325 81 return
      </CharString>
      <CharString index="153" raw="1">
        77de1d0b   
      </CharString>
      <CharString index="154">
        0 74 callsubr
        return
      </CharString>
      <CharString index="155">
        vlineto
        96 1 19 return
      </CharString>
      <CharString index="156">
        vhcurveto
        -3 -27 return
      </CharString>
      <CharString index="157">
        hhcurveto
        69 callgsubr
        26 callgsubr
        -53 callsubr
        return
      </CharString>
      <CharString index="158">
        280 rmoveto
        -16 -82 rlineto
        405 hlineto
        15 82 rlineto
        endchar
      </CharString>
      <CharString index="159">
        -2 -19 -56 -4 -19 hhcurveto
        -87 hlineto
        return
      </CharString>
      <CharString index="160">
        1 19 21 2 16 hhcurveto
        74 hlineto
        return
      </CharString>
      <CharString index="161">
        hvcurveto
        2 4 12 callsubr
        return
      </CharString>
      <CharString index="162">
        85 callgsubr
        63 130 vstem
        63 return
      </CharString>
      <CharString index="163">
        -2 4 rcurveline
        -116 hlineto
        return
      </CharString>
      <CharString index="164">
        -2 80 -63 -21 27 -21 return
      </CharString>
      <CharString index="165">
        32 0 62 -52 -21 return
      </CharString>
      <CharString index="166">
        41 callgsubr
        -51 hlineto
        return
      </CharString>
      <CharString index="167">
        hlineto
        74 callgsubr
        return
      </CharString>
      <CharString index="168">
        104 callsubr
        8 return
      </CharString>
      <CharString index="169">
        4 4 rlineto
        return
      </CharString>
      <CharString index="170">
        -3 -1 20 hvcurveto
        hintmask 10110110
        -28 callgsubr
        return
      </CharString>
      <CharString index="171">
        76 9 53 -2 4 rcurveline
        -126 hlineto
        -2 -4 8 -57 return
      </CharString>
      <CharString index="172">
        47 callsubr
        -17 95 callgsubr
        return
      </CharString>
      <CharString index="173">
        -21 25 -21 return
      </CharString>
      <CharString index="174">
        -110 -21 120 78 -46 -21 464 -20 hstemhm
        return
      </CharString>
      <CharString index="175">
        6 -56 callsubr
        return
      </CharString>
      <CharString index="176">
        5 4 3 38 return
      </CharString>
      <CharString index="177">
        12 -2 28 rrcurveto
        return
      </CharString>
      <CharString index="178">
        -35 callgsubr
        -26 return
      </CharString>
      <CharString index="179">
        -11 80 -48 -21 394 81 102 callsubr
        return
      </CharString>
      <CharString index="180">
        -63 0 -21 -54 vhcurveto
        return
      </CharString>
      <CharString index="181">
        16 82 rlineto
        return
      </CharString>
      <CharString index="182">
        1 19 75 return
      </CharString>
      <CharString index="183">
        vlineto
        -4 2 rlineto
        -11 -77 -18 -1 -36 hhcurveto
        return
      </CharString>
      <CharString index="184">
        vlineto
        3 -2 rlineto
        11 78 18 1 35 hhcurveto
        return
      </CharString>
      <CharString index="185">
        55 -37 -21 316 50 return
      </CharString>
      <CharString index="186">
        rlineto
        hintmask 10111000
        return
      </CharString>
      <CharString index="187">
        3 callsubr
        -4 return
      </CharString>
      <CharString index="188">
        90 callgsubr
        -3 return
      </CharString>
      <CharString index="189">
        198 82 hstem
        return
      </CharString>
      <CharString index="190">
        vhcurveto
        -3 -37 return
      </CharString>
      <CharString index="191">
        2 4 rlineto
        return
      </CharString>
      <CharString index="192">
        130 hstem
        return
      </CharString>
      <CharString index="193">
        hvcurveto
        9 10 18 149 rlineto
        -47 hlineto
        return
      </CharString>
      <CharString index="194">
        -374 540 -21 161 -20 hstem
        return
      </CharString>
      <CharString index="195">
        -1 -21 -4 -43 -4 -17 7 -20 rcurveline
        return
      </CharString>
      <CharString index="196">
        4 -2 34 return
      </CharString>
      <CharString index="197">
        -1 -21 hhcurveto
        return
      </CharString>
      <CharString index="198">
        rlineto
        32 hlineto
        return
      </CharString>
      <CharString index="199">
        12 hvcurveto
        10 return
      </CharString>
      <CharString index="200">
        11 callgsubr
        59 hlineto
        return
      </CharString>
      <CharString index="201">
        -284 -96 -21 888 -20 hstem
        return
      </CharString>
      <CharString index="202">
        42 callgsubr
        rlineto
        return
      </CharString>
      <CharString index="203">
        -180 73 -21 377 -20 hstem
        return
      </CharString>
      <CharString index="204">
        72 339 75 hstem
        35 113 return
      </CharString>
      <CharString index="205" raw="1">
        b1da1d0b   
      </CharString>
      <CharString index="206" raw="1">
        0613789e 0b  
      </CharString>
      <CharString index="207">
        38 rrcurveto
        -2 31 -1 return
      </CharString>
      <CharString index="208">
        -4 callgsubr
        -59 hlineto
        return
      </CharString>
      <CharString index="209">
        107 callgsubr
        -12 return
      </CharString>
      <CharString index="210">
        0 11 -12 hvcurveto
        return
      </CharString>
      <CharString index="211">
        rlinecurve
        -120 return
      </CharString>
      <CharString index="212">
        -4 -3 -38 return
      </CharString>
      <CharString index="213">
        hvcurveto
        -9 8 return
      </CharString>
      <CharString index="214">
        -9 rrcurveto
        -9 return
      </CharString>
</ttFont>
